<?xml version="1.0" encoding="UTF-8" standalone="no"?>
<!-- Created with Inkscape (http://www.inkscape.org/) -->

<svg
   xmlns:dc="http://purl.org/dc/elements/1.1/"
   xmlns:cc="http://creativecommons.org/ns#"
   xmlns:rdf="http://www.w3.org/1999/02/22-rdf-syntax-ns#"
   xmlns:svg="http://www.w3.org/2000/svg"
   xmlns="http://www.w3.org/2000/svg"
   xmlns:sodipodi="http://sodipodi.sourceforge.net/DTD/sodipodi-0.dtd"
   xmlns:inkscape="http://www.inkscape.org/namespaces/inkscape"
   id="svg4875"
   version="1.1"
   inkscape:version="0.91 r13725"
   width="150"
   height="150"
   viewBox="0 0 150 150"
   sodipodi:docname="1coin-simplified.svg">
  <metadata
     id="metadata4881">
    <rdf:RDF>
      <cc:Work
         rdf:about="">
        <dc:format>image/svg+xml</dc:format>
        <dc:type
           rdf:resource="http://purl.org/dc/dcmitype/StillImage" />
        <dc:title></dc:title>
      </cc:Work>
    </rdf:RDF>
  </metadata>
  <defs
     id="defs4879" />
  <sodipodi:namedview
     pagecolor="#ffffff"
     bordercolor="#666666"
     borderopacity="1"
     objecttolerance="10"
     gridtolerance="10"
     guidetolerance="10"
     inkscape:pageopacity="0"
     inkscape:pageshadow="2"
     inkscape:window-width="1263"
     inkscape:window-height="972"
     id="namedview4877"
     showgrid="false"
     inkscape:zoom="4.4500587"
     inkscape:cx="32.817717"
     inkscape:cy="78.82773"
     inkscape:window-x="65"
     inkscape:window-y="24"
     inkscape:window-maximized="0"
     inkscape:current-layer="svg4875" />
  <path
     style="fill:#000000"
     d="M 73.875,140.16386 C 60.836717,136.78136 48.558031,131.03191 35.954944,126.42445 21.948812,118.8311 15.658122,103.0733 11.137762,88.662211 7.7719549,80.248742 7.4410694,70.628763 11.545964,62.410135 14.828845,55.755398 15.690462,46.111054 21.975287,43.337212 22.248939,36.239166 29.83828,39.39897 32.677019,33.548858 39.701948,27.482049 45.24331,19.525946 53.605868,15.120837 67.239919,11.9934 81.471362,12.333399 95.294938,13.70542 c 14.430722,2.802358 28.197492,10.012832 38.537022,20.416668 9.15205,13.482543 11.24686,30.968362 8.22345,46.737265 -2.39925,9.217438 -5.22774,18.436548 -9.30713,27.053447 -5.25678,9.77698 -14.32499,16.56948 -22.52879,23.7163 -6.48316,5.32993 -15.187288,5.55055 -22.981977,7.54925 -4.398911,0.80663 -8.88817,1.29823 -13.362513,0.98551 z m 1.536459,-3.91907 c -4.009207,-2.26235 -2.966968,2.86963 0,0 z m 8.776041,-0.10645 c -5.195875,-1.19321 -3.354547,2.01572 0.446515,0.15552 L 84.1875,136.13834 Z m 18.0215,-3.57402 c 10.10196,-6.6034 20.16186,-14.2741 26.4842,-24.73143 7.10733,-12.881821 10.2448,-27.52186 12.311,-41.950787 -0.50408,-6.166587 -7.92821,-7.904032 -7.44288,-14.876687 0.6487,-4.893111 -8.99925,-11.620742 -8.93061,-4.1958 8.08658,7.645069 -12.56254,7.928829 -5.1913,0.524577 1.59762,-2.541276 5.85217,-8.591903 6.19752,-8.894647 -4.66085,-1.528271 -8.57784,-11.449594 -10.86972,-6.284081 -2.65557,-6.054362 -8.91383,-8.840411 -15.282051,-8.42142 -3.66641,-2.078697 -4.846,-6.788783 -9.936435,-4.203941 0.310118,-0.422318 -3.872626,2.411093 -5.127296,-1.169245 C 78.500233,13.932774 69.783496,17.612493 62.69681,15.88324 55.002477,14.186138 49.633824,22.111517 45.895177,27.781514 c -1.669326,3.059676 -1.331771,4.744933 -5.615342,4.650915 -3.533981,3.700371 -4.392118,9.689961 -10.631827,9.820031 -5.493976,2.53525 0.969449,8.232858 -4.829757,9.094032 -4.762796,4.138912 3.729361,7.928413 -1.506115,12.575281 -1.633517,5.430034 -9.357559,-1.53916 -5.966727,3.703749 1.229373,3.20198 -3.655832,9.781251 -3.091269,2.90385 -0.705869,-6.192495 -0.869718,5.224691 -0.453097,6.915751 -0.295314,6.789246 6.86352,12.782168 4.019758,18.944475 7.093529,11.415862 15.451664,23.667752 28.577106,28.586162 6.542643,3.36431 13.622258,5.74717 20.697794,8.15463 6.776826,1.91478 14.250745,-0.008 21.303718,0.49119 4.615908,-0.13467 9.233806,-0.41671 13.809581,-1.05726 z m -8.959,-1.11555 c 0.79529,-6.94027 4.046276,3.1572 0.600475,0.93259 L 93.25,131.44877 Z m -25.234375,-0.30266 c 3.562066,-1.61549 1.153453,2.28343 0,0 z m 16.067709,0.0205 c -5.798058,-3.62208 6.779984,-9.43834 2.340745,-2.30747 -0.334053,1.55283 0.387727,4.89968 -2.340745,2.30747 z M 98.25,128.45834 c 5.37633,-9.45449 0.689737,7.52607 0,0 z m -32.264801,-1.13149 c 2.50373,-7.5629 8.36586,6.47319 0.232057,1.46609 l -0.34439,-0.68195 0.112333,-0.78414 0,0 z m 29.863485,-2.30602 c 1.850283,-4.79619 0.167981,5.29371 0,0 z M 52,122 c 3.148618,-8.46654 6.240421,9.14639 0,0 z m 46.757802,1.06037 c -0.121342,-2.06191 4.455288,-5.83997 -0.168603,-5.68503 7.195291,-4.67411 5.140901,10.73751 0.168603,5.68503 z m -26.453091,-0.64082 c -4.120877,-4.34305 -10.540275,-5.84388 -14.832267,-10.44473 -7.214106,-4.45287 -16.929258,-9.94417 -15.445931,-19.948815 1.812248,-8.957489 -7.75771,-16.092289 -2.099382,-24.841358 2.193432,-7.080411 -4.478114,-17.873519 4.64201,-22.071494 11.52427,4.351828 9.117142,-12.730092 18.085975,-14.020248 4.125781,-2.357623 14.786455,-6.76218 13.585169,2.298702 4.745823,7.205229 13.384512,10.451252 18.615125,17.262152 2.451987,1.673717 9.23447,11.073357 3.277444,5.561395 C 91.414809,50.362035 85.797352,42.723076 77.586904,38.927367 71.449046,40.497956 66.767432,46.063034 61.59258,49.436006 56.281424,54.124368 49.8271,59.802562 50.983168,67.68165 50.491704,76.404028 50.612663,85.143628 50.478707,93.875 c 5.665696,3.602654 11.363859,14.6684 19.013743,9.65538 2.61934,-3.607673 10.704358,-2.38283 5.562441,2.15803 -4.792386,1.71319 -1.516076,10.33358 0.612564,3.77614 3.495255,2.10879 -4.27966,15.26233 3.538644,10.76973 6.333662,-5.70943 15.453968,-6.23102 22.385661,-10.97753 8.32716,-2.6247 -3.582628,4.07763 -6.227646,4.95028 -5.798921,2.51675 -11.33107,5.64322 -17.042036,8.28382 -1.946969,0.58066 -4.100534,0.68636 -6.017367,-0.0713 z M 74.5,117.14288 c 1.561032,-6.14154 -9.464093,-6.64866 -9.90216,-6.88454 6.985107,-0.24109 -4.744769,-5.27824 -7.362888,-4.80082 -1.931968,-2.02214 -8.766792,-10.008365 -9.718804,-3.92876 -4.389711,-3.698499 1.444975,-7.082982 3.899795,-2.597143 7.406664,4.404653 -4.401326,-2.631049 -3.276216,-6.255384 -0.209194,-9.366241 -0.261202,-18.812794 0.432513,-28.179509 -0.255549,-6.216528 3.83039,-10.914356 7.928614,-15.103523 5.882965,-4.555305 14.715869,-6.988204 17.416893,-14.633059 3.35147,-6.799162 -8.8443,-4.669739 -7.05148,-2.051419 2.185943,-2.186118 7.529342,1.474955 3.519413,1.985717 -6.016763,-2.344614 -12.518016,4.635687 -15.980258,9.329228 -4.09089,3.085265 -10.673635,9.042398 -11.149809,11.826056 -2.687658,-8.323801 -1.956082,4.893079 -1.200036,7.532181 1.076622,3.866564 1.046837,11.281954 3.082809,13.042187 1.375847,-3.299268 1.891061,-5.630939 1.824354,-0.637839 -0.622952,6.922775 -7.310939,-2.094503 -5.907127,-0.77588 1.843381,6.31772 4.833101,12.626586 3.444387,19.354513 0,2.465855 0,4.931709 0,7.397564 5.082484,1.96956 13.031146,9.28899 15.766556,8.63376 1.061386,0.41988 4.886133,2.53893 5.131841,2.64913 3.957424,0.0458 4.326985,7.36553 9.101603,4.09754 z M 43.493686,61.375 c 0.811377,-4.841031 0.625892,5.390213 0,0 l 0,0 z M 47,55.976828 c 0.956094,-5.535165 6.689401,-0.631204 0,0 z M 39.5,118.25 c -2.504315,-4.19163 6.192359,2.7722 0,0 z m 0.559017,-3.64324 c -3.307805,-4.96768 7.390981,0.53184 0.802721,1.12773 -0.475359,-0.0472 -1.247983,-0.54102 -0.802721,-1.12773 z m 71.610443,-3.35397 c -1.25218,-10.09066 9.84745,2.68644 0,0 z m -27.74641,-2.92504 c 4.263536,-7.3338 16.40322,-9.402843 15.478056,-19.691275 -0.388519,-7.650482 -1.584292,-15.314328 0.490147,-22.862219 0.07803,-2.585164 1.989207,-5.431306 1.740287,-1.077736 2.0169,-2.700898 8.54111,-7.052051 6.37767,-2.869384 3.49832,1.927871 -1.08709,8.142214 -0.21267,1.733678 -1.60033,-2.806184 -6.04706,4.113476 -2.13468,0.531145 2.77912,2.760221 -6.036928,3.935764 -3.44887,8.339021 -0.16291,7.468236 3.51405,15.862903 -0.56462,22.738643 -5.133298,3.179048 -5.916674,9.525987 -11.324954,12.425497 -1.776757,1.25718 -4.513143,2.5084 -6.400366,0.73263 z m 17.6548,-19.14025 c -2.331839,2.529724 1.65315,3.704681 0,0 z m 0.0691,-11.857812 c -1.932216,2.698227 0.7846,8.807424 0.19985,2.44347 -0.022,-0.817224 -0.0808,-1.634284 -0.19985,-2.44347 z M 27.932612,106.6875 c 0.848558,-6.10414 6.134309,-11.378585 2.433432,-17.733349 -1.009383,-3.607796 0.656276,-9.850806 1.570295,-2.653969 3.335691,6.455859 1.79808,13.583562 0.0077,19.895968 5.766258,-0.51737 -3.52129,4.66159 -4.011459,0.49135 z M 106.375,104.5 c 4.14276,-5.276684 0.50752,4.82318 0,0 z M 20.258736,97.52277 c -2.031441,-7.600981 6.080001,6.07183 0,0 z M 119.5,97.69877 c 2.04243,-7.745542 6.10251,6.38699 0.0597,0.282535 L 119.5,97.69877 Z M 21.047012,94.1875 c -4.35279,-4.263423 6.26762,-10.025995 4.934753,-2.776803 -4.973666,1.323021 5.229703,3.2949 -0.437419,4.157427 -1.51234,0.07181 -3.706115,0.263185 -4.497334,-1.380624 z m 50.911702,-0.36225 c -3.268433,-7.266792 1.805148,-16.838962 -0.476746,-22.968914 -8.199981,-0.261911 -14.166551,-10.011507 -5.836262,-15.3291 4.108934,-6.09153 14.931259,-8.301487 17.984112,-0.120133 2.131286,8.220459 -0.329865,16.952955 1.706838,25.257153 4.233711,6.814295 -2.410699,15.487865 -9.977637,14.825853 -1.309716,-0.13396 -2.593753,-0.589405 -3.400305,-1.664859 z m 9.09732,-4.01275 c 5.958121,-1.038278 -1.587504,-11.497176 -1.058641,-2.926612 -2.62393,1.652852 -10.435974,3.23971 -3.838561,6.194291 2.136984,-0.01543 3.415609,-2.042139 4.897202,-3.267679 z m -6.952142,-6.796875 c -2.244996,1.208802 1.654826,3.145662 0,0 z M 78.281714,81.0625 c -1.00684,-8.067078 3.249679,-16.832794 -1.474038,-24.267002 -4.667838,-4.266851 -12.623993,9.470355 -4.480481,3.610987 9.007816,1.678332 2.861924,13.716582 4.08517,20.008815 -0.03218,3.725749 1.550608,7.37045 1.869349,0.6472 z M 75.366239,67.33629 c -2.16756,2.632168 1.473103,5.426217 0,0 z m 6.289675,-5.626404 C 79.842559,63.862278 82.131388,72.361233 81.86,65.378632 81.8571,64.15336 81.799538,62.927154 81.655914,61.709886 Z M 67.159444,58.5625 c 2.458701,-4.342688 -5.296097,5.114645 0,0 z M 76.375,53.25 c -3.161827,-3.156348 -2.323736,0.902505 0.201279,1.011164 L 76.375,53.25 Z m 29.48774,33.090632 c -2.40209,-2.99855 5.68815,-11.409292 4.94602,-7.219369 -2.54448,0.462196 -5.22002,15.283996 -4.94602,7.219369 z m 18.24664,1.102077 c -4.04572,-7.979957 10.93287,0.07964 0,0 z M 16.762289,81.345623 c -3.986929,-4.184675 6.59014,-11.59126 4.286762,-3.35445 -0.579089,1.650576 -1.978642,5.200229 -4.286762,3.35445 z m 93.452001,-7.559909 c -4.92785,-5.76856 3.25324,-1.915773 1.99001,1.622045 -0.90631,-0.105364 -1.41376,-1.065372 -1.99001,-1.622045 z m 15.11904,1.130952 c -2.72728,-5.939898 8.95047,0.844538 1.22295,0.727402 -0.40765,-0.242467 -0.8153,-0.484935 -1.22295,-0.727402 z m 0.026,-11.223957 c -4.04563,-7.979998 10.93294,0.07969 0,0 z M 25.75,53.875 c -1.847372,-3.461469 5.554638,-1.180626 2.166487,1.07532 C 28.284877,56.722911 25.80618,54.291846 25.75,53.875 Z m 73.511806,-6.641564 c -3.921401,0.151787 -7.436647,-13.068518 -3.594183,-5.135266 1.795809,4.462326 13.333867,1.571832 10.937067,6.816904 -2.51231,0.81145 -5.32187,-0.124142 -7.342884,-1.681638 z m 15.657984,-5.942457 c 0.11093,-8.863018 8.13556,5.588418 0.25647,0.47871 l -0.17909,-0.334269 -0.0774,-0.144441 0,0 z M 107.625,32 c -1.07151,-8.66557 10.37277,3.374828 0.71566,0.69669 C 108.10211,32.46446 107.86355,32.23223 107.625,32 Z M 82,30.75 C 80.221805,24.846961 92.079914,31.44828 84.469608,29.905088 83.487203,31.024653 83.844996,32.796321 82,30.75 Z m 15,-4.229211 c 4.67579,-4.004316 6.50054,2.418249 0,0 z m -41.68876,-5.1112 c -3.366059,-5.445629 9.266744,-1.746337 2.529673,-0.536948 -0.555958,1.127613 -2.307799,3.098113 -2.529673,0.536948 z m 17.62626,-2.73744 c 3.811181,-1.781537 4.286345,2.436582 0,0 z M 33.25,120.34289 c -2.051858,-2.62481 -9.137797,-8.54814 -3.344588,-2.3482 0.857488,1.05297 1.883744,2.21139 3.344588,2.3482 z M 11.603893,75.515625 c -2.2449918,1.208797 1.654813,3.145665 0,0 z M 19.5,60.622426 c 0.654226,-1.539085 6.532876,-0.65193 2.259243,-4.140662 -4.843738,-3.112986 -4.532613,9.642431 -1.680546,4.522167 L 19.762088,60.795207 19.5,60.622426 Z M 136.8536,45.507981 c 0.81342,-2.965901 -5.99704,-11.480254 -3.91406,-4.696151 3.03816,4.10665 1.9298,10.453435 5.55501,13.941981 0.86541,-3.19624 -0.94725,-6.218519 -1.64095,-9.24583 z M 122.625,28.846662 c -0.89943,-2.106905 -8.73574,-5.402596 -3.76758,-1.637606 -1.85627,5.223286 11.53345,8.122151 4.55083,2.290933 l -0.78325,-0.653327 0,0 z M 114.5,24.5 c -6.01445,-4.988459 -3.26,4.510227 0,0 z m -13.25376,-3.958334 c -3.486539,-3.868872 -2.811179,3.704381 0,0 z m 9.50376,0.96707 c -3.10677,-4.295141 -4.91293,1.672101 0,0 z M 47.324522,14.393148 C 50.911565,9.5850622 63.720269,2.600093 65.260469,10.941706 63.595485,12.900972 59.432907,11.186799 62.703643,9.3076087 57.45044,7.9328367 48.76538,16.517343 47.067508,14.598584 l 0.257014,-0.205436 z M 70.4375,9.922149 c 3.811186,-1.781539 4.286341,2.436585 0,0 z"
     id="path5425"
     inkscape:connector-curvature="0" />
</svg>
