<?xml version="1.0" encoding="UTF-8" standalone="no"?>
<!-- Created with Inkscape (http://www.inkscape.org/) -->

<svg
   xmlns:dc="http://purl.org/dc/elements/1.1/"
   xmlns:cc="http://creativecommons.org/ns#"
   xmlns:rdf="http://www.w3.org/1999/02/22-rdf-syntax-ns#"
   xmlns:svg="http://www.w3.org/2000/svg"
   xmlns="http://www.w3.org/2000/svg"
   xmlns:sodipodi="http://sodipodi.sourceforge.net/DTD/sodipodi-0.dtd"
   xmlns:inkscape="http://www.inkscape.org/namespaces/inkscape"
   id="svg4875"
   version="1.1"
   inkscape:version="0.91 r13725"
   width="150"
   height="150"
   viewBox="0 0 150 150"
   sodipodi:docname="1coin.svg">
  <metadata
     id="metadata4881">
    <rdf:RDF>
      <cc:Work
         rdf:about="">
        <dc:format>image/svg+xml</dc:format>
        <dc:type
           rdf:resource="http://purl.org/dc/dcmitype/StillImage" />
        <dc:title></dc:title>
      </cc:Work>
    </rdf:RDF>
  </metadata>
  <defs
     id="defs4879" />
  <sodipodi:namedview
     pagecolor="#ffffff"
     bordercolor="#666666"
     borderopacity="1"
     objecttolerance="10"
     gridtolerance="10"
     guidetolerance="10"
     inkscape:pageopacity="0"
     inkscape:pageshadow="2"
     inkscape:window-width="1263"
     inkscape:window-height="972"
     id="namedview4877"
     showgrid="false"
     inkscape:zoom="4.4500587"
     inkscape:cx="66.075705"
     inkscape:cy="78.82773"
     inkscape:window-x="65"
     inkscape:window-y="24"
     inkscape:window-maximized="0"
     inkscape:current-layer="svg4875" />
  <path
     style="fill:#000000"
     d="m 73.875,140.16386 c -0.6875,-0.1982 -3.78125,-1.0852 -6.875,-1.97112 -3.09375,-0.88593 -8.4375,-2.85043 -11.875,-4.36557 -3.4375,-1.51513 -9.552844,-3.79538 -13.589653,-5.06722 C 31.404837,125.56823 23.476275,117.90148 17.693174,105.70508 12.563851,94.88747 8.25,80.758455 8.25,74.776154 c 0,-4.196159 6.814305,-23.454829 8.714588,-24.629268 0.577891,-0.357156 0.743948,-1.822442 0.369014,-3.25619 -0.568694,-2.174691 -0.186627,-2.537099 2.30485,-2.186255 2.416627,0.340304 2.933877,-0.09273 2.710538,-2.26917 -0.151805,-1.47935 0.659296,-3.4481 1.802449,-4.375 1.458393,-1.182506 1.79841,-1.219132 1.139737,-0.122775 -0.525591,0.874849 -0.328912,1.5625 0.4469,1.5625 0.76209,0 6.279663,-5.01105 12.261271,-11.135666 C 43.980956,22.239717 50.5625,16.40194 52.625,15.391494 c 5.536545,-2.712427 33.908561,-3.598001 44.700547,-1.395236 14.879793,3.037132 36.036103,16.048467 39.252633,24.140746 0.98113,2.468397 2.29464,5.612996 2.91891,6.987996 3.67372,8.091676 5.09433,27.862567 2.59832,36.161252 -8.7708,29.160888 -9.71146,30.804728 -25.84638,45.167298 -8.26129,7.35381 -11.13862,9.16885 -15.625,9.8563 -3.024469,0.46345 -6.90528,1.32507 -8.62403,1.91474 -3.391791,1.16363 -16.099238,2.52326 -18.125,1.93927 z m 1.536459,-3.91907 c -0.415365,-0.41536 -1.49349,-0.45977 -2.395834,-0.0986 -0.997166,0.39903 -0.70097,0.69523 0.755209,0.7552 1.317707,0.0542 2.055988,-0.24115 1.640625,-0.65652 z m 8.776041,-0.10645 c -1.203125,-0.3144 -3.171875,-0.3144 -4.375,0 -1.203125,0.31441 -0.21875,0.57166 2.1875,0.57166 2.40625,0 3.390625,-0.25725 2.1875,-0.57166 z m 18.0215,-3.57402 c 2.87162,-0.90585 16.31301,-11.9598 21.96587,-18.06432 4.68027,-5.05423 8.58821,-13.58042 12.71034,-27.730948 3.76914,-12.938763 5.0203,-25.157362 2.72155,-26.57807 -0.62877,-0.388607 -1.3797,7.2e-5 -1.66871,0.863729 -0.289,0.863659 -1.55171,-1.516676 -2.806,-5.289632 -1.2543,-3.772958 -3.21502,-8.396559 -4.35718,-10.27467 -1.99047,-3.273067 -2.19714,-3.330335 -4.98123,-1.380281 -2.72972,1.911967 -2.77141,2.131866 -0.69234,3.652113 3.48904,2.551244 1.46322,5.547242 -3.5009,5.177525 -3.33848,-0.248641 -4.19997,-0.839956 -4.10086,-2.814766 0.069,-1.375 0.96921,-2.5 2.00046,-2.5 1.03322,0 1.93501,-1.186359 2.00868,-2.642522 0.171,-3.380344 1.60737,-5.712806 2.99132,-4.857478 0.59249,0.366179 1.48756,-0.04653 1.98903,-0.91711 0.50148,-0.87059 0.50793,-1.22234 0.0143,-0.781667 -1.03953,0.928058 -7.25947,-4.627952 -9.29319,-8.301223 -1.31447,-2.374164 -1.39004,-2.342705 -1.50138,0.625 l -0.11725,3.125 -1.13721,-2.830681 c -0.62547,-1.556875 -2.50393,-3.350303 -4.17435,-3.985396 -1.67042,-0.635093 -3.43744,-1.802428 -3.9267,-2.594078 -0.55718,-0.901525 -2.47086,-1.14271 -5.12143,-0.645462 C 97.526376,24.514534 97,24.290396 97,22.01741 c 0,-3.301014 -3.152134,-4.557799 -5.880866,-2.344755 -1.446381,1.173036 -1.807155,1.216519 -1.16031,0.139845 0.516295,-0.859375 0.384266,-1.5625 -0.293398,-1.5625 -0.677663,0 -1.468931,0.984375 -1.758371,2.1875 -0.442901,1.841021 -0.715122,1.726216 -1.718672,-0.724824 -1.126012,-2.750134 -1.963098,-2.943484 -15.031004,-3.471862 l -13.838587,-0.559539 -5.471896,4.58052 c -3.009542,2.519285 -5.304884,5.354777 -5.100759,6.301091 0.204127,0.946315 -0.546162,2.072574 -1.667307,2.502798 -1.632361,0.626396 -1.706296,0.992773 -0.371138,1.83913 1.162363,0.73682 0.701973,1.062701 -1.520192,1.076045 C 39.225372,32.004651 37,34.124516 37,37.875 37,40.011369 36.277426,40.760214 34.1875,40.789754 31.031775,40.834366 27,43.460346 27,45.471136 c 0,0.726293 -0.421875,1.556465 -0.9375,1.844829 -0.515625,0.288364 -0.280926,0.370756 0.521551,0.183094 0.802479,-0.187661 1.7454,0.405007 2.09538,1.317043 0.405259,1.056086 -0.633422,1.912197 -2.860349,2.357582 -2.993505,0.598701 -3.405805,1.174699 -2.865186,4.002764 0.479818,2.510003 0.919763,2.900537 1.831713,1.62599 0.83819,-1.171459 0.914432,-0.923344 0.252765,0.822562 -0.521102,1.375 -0.996039,3.771844 -1.055415,5.326319 -0.06249,1.635887 -0.73206,2.586827 -1.589699,2.257721 -0.814958,-0.312729 -1.707859,0.102925 -1.984224,0.923681 -0.371751,1.104033 -1.053549,1.037345 -2.620576,-0.256322 -1.924284,-1.5886 -2.011934,-1.469378 -0.957894,1.302956 0.810973,2.13302 0.648161,3.976263 -0.540888,6.123601 -1.650636,2.980929 -1.708636,2.905209 -1.955513,-2.552956 -0.252078,-5.573159 -0.258969,-5.581345 -0.747688,-0.88823 -0.659913,6.337074 1.935369,18.37914 4.143665,19.22654 0.973422,0.37354 1.769858,1.21468 1.769858,1.8692 0,0.65452 -0.480899,0.89282 -1.068664,0.52956 -0.587764,-0.36326 -1.009638,0.9606 -0.9375,2.94191 0.07214,1.9813 0.381804,3.35405 0.688143,3.05055 0.306338,-0.3035 2.311285,2.5434 4.455436,6.32644 4.092764,7.22109 16.032266,18.68544 20.888179,20.05689 6.514342,1.83985 9.645242,3.50395 8.890384,4.72534 -0.470811,0.76179 -0.193801,0.92203 0.670502,0.38786 1.671994,-1.03335 12.899927,2.88015 12.078135,4.20984 -0.703717,1.13864 33.271533,0.56856 37.044385,-0.62157 z m -8.959,-1.11555 c 0,-0.99067 0.5625,-2.14887 1.25,-2.57377 0.6875,-0.4249 1.25,0.38565 1.25,1.80122 0,1.41558 -0.5625,2.57378 -1.25,2.57378 -0.6875,0 -1.25,-0.81055 -1.25,-1.80123 z m -25.234375,-0.30266 c 0.902344,-0.36109 1.980469,-0.31668 2.395834,0.0986 0.415363,0.41537 -0.322918,0.7108 -1.640625,0.65652 -1.456179,-0.06 -1.752375,-0.35617 -0.755209,-0.7552 z m 16.067709,0.0205 C 82.490969,129.5743 83.227679,124.5 85.051229,124.5 c 2.509511,0 3.848225,2.57608 1.948771,3.75 -0.863659,0.53377 -1.183776,1.59588 -0.711372,2.36025 0.923246,1.49384 -0.826412,1.9353 -2.205294,0.55641 z M 98.25,128.45834 c 0,-1.66492 0.781333,-2.70834 2.02806,-2.70834 1.73599,0 1.78693,0.31502 0.35371,2.1875 -0.920895,1.20313 -1.83352,2.42187 -2.02806,2.70834 -0.194541,0.28645 -0.35371,-0.69793 -0.35371,-2.1875 z m -32.264801,-1.13149 c 0.608669,-3.16055 4.312546,-3.44128 5.111158,-0.38738 0.541927,2.07233 0.07861,2.56053 -2.430037,2.56053 -2.271381,0 -2.987801,-0.58069 -2.681121,-2.17315 z m 29.863485,-2.30602 c 0.05997,-1.45618 0.356176,-1.75237 0.755208,-0.75521 0.361089,0.90235 0.316681,1.98047 -0.09869,2.39584 -0.415365,0.41537 -0.710801,-0.32292 -0.656525,-1.64063 z M 52,122 c 0,-2.8423 3.134851,-3.40603 4.155137,-0.74721 C 56.939606,123.29709 56.017763,124.5 53.666666,124.5 52.75,124.5 52,123.375 52,122 Z m 46.757802,1.06037 c -0.489357,-0.7918 0.0804,-2.14901 1.266118,-3.01603 2.02907,-1.4837 2.02193,-1.61104 -0.121535,-2.16537 -1.869153,-0.48339 -1.786455,-0.61496 0.461335,-0.73397 3.52491,-0.18662 5.10674,2.33752 2.41048,3.84642 -1.14223,0.63923 -1.75051,1.69016 -1.35173,2.33541 0.39879,0.64524 0.16257,1.17317 -0.52493,1.17317 -0.6875,0 -1.65038,-0.64783 -2.139738,-1.43963 z m -26.453091,-0.64082 c -0.863657,-0.34819 -1.252336,-1.14753 -0.863729,-1.77631 0.705766,-1.14195 -1.066883,-1.64523 -4.253922,-1.20774 -0.928368,0.12744 -1.365571,-0.2899 -0.971565,-0.92742 0.394007,-0.63751 -1.518295,-2.16681 -4.24956,-3.39844 C 59.234671,113.87801 57,112.42478 57,111.88023 57,111.33569 53.956261,109.06962 50.236137,106.84451 42.824945,102.41168 42,100.61979 42,88.95445 42,84.199215 41.33372,81.756235 39.5,79.787969 36.550009,76.621524 36.420477,74.746453 38.923124,71.437143 40.351781,69.547994 40.59068,66.87519 39.984531,59.562143 39.292204,51.20938 39.497335,49.76592 41.76975,47 c 2.173587,-2.645629 2.939631,-2.898541 4.99381,-1.648725 3.469314,2.110822 7.413825,-0.985439 8.47731,-6.654301 0.738946,-3.93892 1.647439,-4.83796 7.5078,-7.42969 3.666919,-1.621687 8.092322,-3.306222 9.834228,-3.743412 2.914692,-0.731541 3.169671,-0.460322 3.199333,3.403118 0.02783,3.623741 0.886234,4.777349 6.275135,8.433087 6.267194,4.251555 20.556714,18.692514 19.521174,19.728055 -0.3043,0.304298 -3.568334,-2.639026 -7.253408,-6.540718 C 90.64006,48.64572 85.189377,43.774674 82.212506,41.722865 l -5.412494,-3.730561 -4.826708,3.878847 C 69.318615,44.004519 66.597986,45.75 65.927465,45.75 c -0.670523,0 -1.406631,0.421875 -1.635799,0.9375 C 64.0625,47.203125 61.34375,49.847535 58.25,52.563968 55.15625,55.2804 52.206636,58.93665 51.695302,60.688968 51.18397,62.441285 50.701054,70.625 50.622157,78.875 l -0.14345,15 6.623705,5.9375 c 7.301987,6.54551 9.649169,7.16509 13.022588,3.4375 C 72.425791,100.70765 77,99.80796 77,101.89777 77,104.46213 75.37909,107 73.741264,107 c -1.955776,0 -2.041855,0.76658 -0.491264,4.375 0.875762,2.03801 1.090523,2.10939 1.162144,0.38627 0.04833,-1.16255 0.63484,-2.45178 1.303376,-2.86496 1.256884,-0.7768 0.67339,9.80864 -0.65956,11.9654 -0.929018,1.50318 -0.07632,1.4357 3.721028,-0.29449 1.729541,-0.78804 2.794097,-1.99995 2.365681,-2.69314 -0.43135,-0.69794 -0.159352,-0.87742 0.609541,-0.40222 0.763665,0.47197 6.475576,-1.69676 12.693136,-4.81941 6.217564,-3.12265 11.304654,-5.24278 11.304654,-4.7114 0,1.10714 -1.31061,1.86232 -13.218993,7.61677 -4.760803,2.30055 -10.149046,4.97242 -11.973872,5.9375 -3.40355,1.8 -5.498279,2.0346 -8.252424,0.92423 z M 74.5,117.14288 c 0,-0.60891 -0.733564,-2.52106 -1.630143,-4.24922 -1.271686,-2.45117 -2.096283,-2.88123 -3.75,-1.95577 -1.384242,0.77466 -2.878946,0.7103 -4.307357,-0.18546 -1.850556,-1.1605 -1.730175,-1.24571 0.781536,-0.5532 2.014164,0.55533 2.693962,0.37352 2.113729,-0.56531 -0.470419,-0.76116 -1.480944,-1.38392 -2.24561,-1.38392 -0.764668,0 -2.51566,-0.98437 -3.891098,-2.1875 -1.375436,-1.20312 -2.089655,-1.48437 -1.587153,-0.625 1.64861,2.81944 -0.7201,1.64002 -5.648504,-2.8125 -5.227748,-4.72295 -7.731904,-5.61274 -6.458745,-2.29494 0.536696,1.3986 0.319086,1.78395 -0.664231,1.17623 C 46.40809,101.00918 45.75,99.49086 45.75,98.13225 c 0,-2.15702 0.356586,-2.28679 2.8125,-1.0235 1.546875,0.7957 4.251936,2.64361 6.011248,4.10648 1.759311,1.46288 0.989957,0.55582 -1.709674,-2.01567 l -4.908422,-4.67544 0.117525,-15.613825 c 0.144144,-19.15001 0.674133,-21.605916 5.627692,-26.078042 2.158271,-1.948512 3.134094,-3.127226 2.168495,-2.619365 -1.167133,0.613857 -1.452438,0.432797 -0.851128,-0.540142 0.49748,-0.80494 1.376224,-1.17199 1.952765,-0.815667 1.075074,0.664431 13.162349,-8.146749 15.966498,-11.63899 0.859375,-1.070253 1.5625,-3.207404 1.5625,-4.749225 0,-2.35898 -0.531588,-2.706916 -3.353815,-2.195149 -1.844598,0.334489 -4.235223,1.13135 -5.3125,1.770804 -1.346833,0.799456 -0.689645,0.925285 2.103815,0.402811 3.412795,-0.638312 4.059439,-0.385 4.043358,1.58392 -0.01601,1.96123 -0.212306,2.038186 -1.202694,0.47152 -1.032432,-1.633174 -1.788119,-1.554899 -5.918359,0.613034 -2.604143,1.366895 -5.148067,3.053149 -5.653164,3.74723 -0.604575,0.830777 -0.925563,0.834866 -0.939442,0.012 -0.01163,-0.6875 -1.004585,0.71875 -2.206642,3.125 -1.374311,2.751065 -3.577501,4.838981 -5.935557,5.625 -2.0625,0.6875 -3.811141,1.8125 -3.885869,2.5 -0.304209,2.798727 -2.093556,6.875 -3.017896,6.875 -0.542953,0 -0.692991,-1.125 -0.333421,-2.5 0.392121,-1.499473 0.03835,-2.5 -0.883954,-2.5 -1.144864,0 -1.276099,1.516911 -0.513684,5.9375 0.56322,3.265625 1.00611,7.781249 0.9842,10.03472 -0.02714,2.7916 0.32279,3.58825 1.098134,2.5 0.733489,-1.029503 0.892966,-0.170468 0.448674,2.416814 -0.379114,2.207717 -0.181658,4.327771 0.438791,4.71123 0.620449,0.383457 1.355754,-1.141607 1.634011,-3.389034 0.501735,-4.052423 0.507576,-4.047448 0.705968,0.60127 0.139512,3.269063 -0.32686,4.6875 -1.541218,4.6875 -1.717396,0 -3.872654,-3.400271 -3.426214,-5.405413 0.12618,-0.566726 -0.348538,-0.673214 -1.054932,-0.236639 -1.383479,0.855037 0.201059,4.863279 2.479131,6.271205 C 43.940525,80.551767 44.5,85.592146 44.5,91.32999 l 0,10.43246 5.9375,3.41726 c 3.265625,1.87949 7.018565,4.32357 8.339868,5.43128 1.604648,1.34525 2.06571,1.44133 1.388506,0.28934 -0.700226,-1.19114 -0.47668,-1.52949 0.722631,-1.09375 0.955073,0.34701 1.602618,1.24349 1.43899,1.99219 -0.171756,0.78588 0.57535,1.02631 1.767556,0.56882 1.303177,-0.50007 1.758184,-0.2959 1.23328,0.55341 -0.528985,0.85592 0.192693,1.15572 1.982444,0.82357 1.547824,-0.28726 2.025944,-0.15954 1.06249,0.28381 -1.317631,0.60635 -1.007864,1.21834 1.25,2.46957 3.56304,1.97452 4.876735,2.14825 4.876735,0.64493 z M 43.493686,61.375 c 0.02548,-2.0625 0.305623,-2.75492 0.622553,-1.53871 0.316928,1.216209 0.296086,2.903709 -0.04631,3.75 C 43.72752,64.43258 43.468214,63.4375 43.493689,61.375 Z M 47,55.976828 c 0,-1.510694 2.3715,-3.271995 3.238371,-2.405123 0.314624,0.314624 -0.2853,1.283575 -1.333163,2.153225 C 47.717227,56.710866 47,56.805694 47,55.976828 Z M 39.5,118.25 c -1.602371,-1.03553 -1.556934,-1.2145 0.3125,-1.23086 C 41.015625,117.00861 42,117.5625 42,118.25 c 0,1.52451 -0.140984,1.52451 -2.5,0 z m 0.559017,-3.64324 c 0.388608,-0.62878 -7.1e-5,-1.42812 -0.863728,-1.77631 -0.863659,-0.3482 -0.304664,-0.67749 1.242211,-0.73177 1.710526,-0.06 2.8125,0.63597 2.8125,1.77632 0,1.03125 -0.876948,1.875 -1.948771,1.875 -1.071824,0 -1.63082,-0.51446 -1.242212,-1.14324 z m 71.610443,-3.35397 C 110.45303,110.03636 112.1232,107 114.00874,107 c 0.95769,0 1.74126,1.125 1.74126,2.5 0,2.35323 -2.43441,3.39893 -4.08054,1.75279 z m -27.74641,-2.92504 c -0.39847,-0.64474 1.677707,-2.88125 4.613729,-4.97001 10.817641,-7.69597 10.742632,-7.5744 10.742632,-17.411901 0,-5.721144 -0.456794,-8.674735 -1.264415,-8.175598 -0.69543,0.429798 -0.576322,-0.504264 0.264681,-2.075695 0.841005,-1.57143 1.480562,-5.275304 1.421237,-8.23083 -0.05933,-2.955526 0.493966,-5.745632 1.229526,-6.200236 0.87687,-0.541934 1.04606,0.09135 0.49135,1.839099 -0.73607,2.319142 -0.31581,2.181361 3.23295,-1.059933 2.24344,-2.049071 4.37573,-3.428837 4.73842,-3.066149 0.36269,0.362689 -0.16802,1.182737 -1.17936,1.822328 -1.24526,0.787526 -1.33444,1.169071 -0.2763,1.182034 0.85938,0.0105 1.5625,1.458588 1.5625,3.217912 0,1.759324 -0.53793,2.86631 -1.19541,2.459969 -0.65747,-0.406341 -0.90037,-1.507641 -0.53978,-2.447333 1.0259,-2.673468 -1.54021,-3.427946 -3.43568,-1.010145 -1.54212,1.967085 -1.49617,2.010643 0.48337,0.458182 1.20312,-0.943555 2.1875,-1.153055 2.1875,-0.465555 0,1.667758 -3.16204,4.227401 -4.08372,3.305727 -0.40078,-0.400782 -0.56932,0.307223 -0.37454,1.573345 0.19479,1.266122 -0.26929,2.7153 -1.03129,3.220398 -0.96678,0.640837 -0.91327,0.924143 0.17705,0.9375 1.13284,0.01388 1.5625,3.112682 1.5625,11.269141 0,6.1875 -0.42187,11.1607 -0.9375,11.05155 -2.04976,-0.43389 -5.507341,1.80549 -4.115659,2.6656 0.886694,0.548 -0.681056,2.79344 -4.242264,6.07604 -5.55675,5.12204 -8.602387,6.34695 -10.031527,4.03456 z m 17.6548,-19.14025 c -0.34677,-0.85937 -0.63048,-0.15625 -0.63048,1.5625 0,1.71875 0.28371,2.42188 0.63048,1.5625 0.34677,-0.85937 0.34677,-2.26562 0,-3.125 z m 0.0691,-11.857812 c -0.28731,-1.900079 -0.53007,-0.642188 -0.53945,2.795312 -0.009,3.4375 0.22569,4.992109 0.52239,3.454688 0.29671,-1.537423 0.30439,-4.349923 0.0171,-6.25 z M 27.932612,106.6875 c -0.851306,-2.53017 0.472562,-5.9375 2.306927,-5.9375 1.148511,0 1.525071,-1.11236 1.16368,-3.4375 -1.306572,-8.40632 -1.72844,-18.328567 -0.677623,-15.9375 0.60428,1.375 1.14684,4.1875 1.205689,6.25 0.07854,2.75234 0.408876,3.27294 1.2417,1.95681 0.727202,-1.14921 0.987171,1.08119 0.723895,6.21066 -0.225945,4.40211 -1.026425,8.20905 -1.778845,8.45985 -0.752419,0.25081 -1.368035,0.95399 -1.368035,1.56262 0,0.60863 0.936025,0.74741 2.080056,0.30841 1.398608,-0.5367 1.783953,-0.31909 1.176229,0.66423 -1.200455,1.94237 -5.409803,1.87302 -6.073673,-0.10008 z M 106.375,104.5 c 0.4249,-0.6875 1.02059,-1.25 1.32377,-1.25 0.30318,0 0.55123,0.5625 0.55123,1.25 0,0.6875 -0.5957,1.25 -1.32377,1.25 -0.72807,0 -0.97613,-0.5625 -0.55123,-1.25 z M 20.258736,97.52277 C 19.085329,94.46492 19.339739,94.06088 21.375,95.75 c 2.077971,1.72456 2.487777,3.75 0.758736,3.75 -0.613945,0 -1.457695,-0.88975 -1.875,-1.97723 z M 119.5,97.69877 c 0,-2.56763 2.58781,-3.82922 3.80728,-1.8561 0.56527,0.91463 0.75043,2.1117 0.41147,2.66015 C 122.66822,100.20261 119.5,99.59879 119.5,97.69877 Z M 21.047012,94.1875 C 19.612721,92.40759 21.206769,87 23.16574,87 c 0.685465,0 1.826522,1.08415 2.535681,2.40923 1.02493,1.9151 0.841669,2.52629 -0.89352,2.98 -1.596051,0.41732 -1.406957,0.60975 0.70337,0.71577 1.587449,0.0797 2.538628,0.7075 2.113729,1.395 -1.081036,1.74915 -5.06934,1.55968 -6.577988,-0.3125 z M 71.958714,93.82525 C 70.72796,92.34229 70.621104,89.22852 71.493159,80.259194 72.547328,69.416766 72.47778,68.709862 70.479722,69.958255 c -1.717762,1.073263 -2.901,0.616348 -5.9375,-2.292804 C 62.4565,65.667203 60.75,63.20924 60.75,62.203311 60.75,59.365537 71.884708,49.5 75.087551,49.5 c 1.553917,0 4.30741,1.165826 6.118875,2.590725 C 84.403582,54.605609 84.5,55.07916 84.5,68.266954 c 0,7.708641 0.540729,13.919692 1.25,14.358046 2.553688,1.578265 1.213539,6.68345 -2.595906,9.88888 -4.335273,3.64789 -8.820241,4.17324 -11.19538,1.31137 z m 9.09732,-4.01275 C 83.99899,86.72235 84.148931,86.129818 82.539897,83.948588 80.789876,81.576233 80.75,81.582215 80.75,84.217109 c 0,2.835323 -4.187481,5.932601 -6.275834,4.641921 -1.417591,-0.876116 -1.52136,-0.33797 -0.46543,2.41374 1.109558,2.89146 3.343751,2.42851 7.047298,-1.46027 z m -6.952142,-6.796875 c -0.399032,-0.997166 -0.695228,-0.70097 -0.755208,0.755209 -0.05428,1.317707 0.24116,2.055989 0.656525,1.640625 0.415364,-0.415365 0.459772,-1.49349 0.09869,-2.395834 z M 78.281714,81.0625 c 0.01744,-2.578125 0.24159,-8.701134 0.498105,-13.606688 0.436556,-8.348602 0.275734,-9.021225 -2.513935,-10.514209 -2.677823,-1.433128 -3.306351,-1.24324 -6.192336,1.87079 -3.549095,3.829536 -3.182844,6.055222 0.454715,2.763277 5.373306,-4.862776 7.083433,-0.908457 6.148231,14.216526 -0.338639,5.476793 -0.123135,9.957804 0.478899,9.957804 0.602033,0 1.108878,-2.109375 1.126321,-4.6875 z M 75.366239,67.33629 c -0.31693,-1.21621 -0.597079,-0.52379 -0.622553,1.53871 -0.02548,2.0625 0.233832,3.05758 0.576235,2.21129 0.342404,-0.846291 0.363246,-2.533791 0.04631,-3.75 z m 6.289675,-5.626404 C 81.377712,59.463199 81.144352,61 81.137336,65.125 c -0.007,4.125 0.220604,5.963199 0.505821,4.084886 0.285218,-1.878312 0.290959,-5.253312 0.01275,-7.5 z M 67.159444,58.5625 C 68.714282,56.57993 68.67007,56.535718 66.6875,58.090556 64.605315,59.723517 63.943151,60.75 64.971944,60.75 c 0.25957,0 1.243945,-0.984375 2.1875,-2.1875 z M 76.375,53.25 c -0.424899,-0.6875 -1.44247,-1.241386 -2.261271,-1.230859 -0.89452,0.0115 -0.740344,0.502784 0.386271,1.230859 2.401404,1.551906 2.834131,1.551906 1.875,0 z m 29.48774,33.090632 C 105.7321,81.95532 108.76749,77 111.58436,77 c 1.51583,0 1.37687,0.48057 -0.63254,2.1875 -1.41633,1.203125 -3.11541,4.15625 -3.77575,6.5625 l -1.2006,4.375 -0.11274,-3.784368 z m 18.24664,1.102077 C 122.33998,85.673314 123.34121,83.25 125.84166,83.25 c 1.74745,0 2.46,0.678812 2.18749,2.083918 -0.44617,2.300598 -2.58,3.448572 -3.91977,2.108791 z M 16.762289,81.345623 c -0.974324,-0.974324 0.351422,-6.768358 1.745879,-7.630179 2.515282,-1.55453 4.011812,1.852317 2.25535,5.134298 -1.665152,3.111363 -2.724775,3.772334 -4.001229,2.495881 z M 110.21429,73.785714 C 109.13393,72.705358 108.25,71.205358 108.25,70.452381 c 0,-0.752976 0.14662,-1.134672 0.32582,-0.848215 0.1792,0.286459 1.39138,1.786459 2.69373,3.333334 2.6933,3.198977 1.91838,3.821855 -1.05526,0.848214 z m 15.11904,1.130952 C 123.74859,73.331928 124.5097,72 127,72 c 1.38889,0 2.5,0.833334 2.5,1.875 0,1.903014 -2.64425,2.564077 -4.16667,1.041666 z m 0.026,-11.223957 C 123.58998,61.923314 124.59121,59.5 127.09165,59.5 c 1.74746,0 2.46001,0.678812 2.1875,2.083917 -0.44617,2.300599 -2.58,3.448569 -3.91977,2.108792 z M 25.75,53.875 c -1.310755,-1.579362 -1.088524,-1.85944 1.409444,-1.776316 1.631056,0.05428 2.258926,0.38357 1.395267,0.731763 -0.863657,0.348193 -1.252336,1.147535 -0.863729,1.776316 C 28.82494,56.441544 27.449769,55.923096 25.75,53.875 Z m 73.511806,-6.641564 c -3.285197,-1.990734 -6.060805,-6.345195 -5.962879,-9.354752 0.02691,-0.827027 0.835264,0.304841 1.796344,2.51526 1.665995,3.83168 6.559919,6.489245 9.080869,4.931213 1.65221,-1.021123 4.5007,1.222937 3.53523,2.785089 -1.17416,1.899841 -4.42392,1.562615 -8.449564,-0.87681 z m 15.657984,-5.942457 c -0.98517,-2.567309 0.99215,-4.485978 3.21031,-3.115084 C 120.01919,39.34342 119.14912,43.25 117,43.25 c -0.73065,0 -1.66675,-0.88156 -2.08021,-1.959021 z M 107.625,32 c -1.02004,-1.650469 0.34607,-3.75 2.44003,-3.75 1.82836,0 3.4584,3.059901 2.26551,4.252792 C 111.16491,33.668424 108.47875,33.381404 107.625,32 Z M 82,30.75 c -1.362457,-0.880488 -1.427715,-1.21695 -0.238729,-1.230859 0.899949,-0.0105 1.321048,-0.529184 0.935775,-1.152567 -0.385272,-0.623385 0.434047,-0.836738 1.820709,-0.474118 1.386663,0.362621 2.86413,1.214176 3.283261,1.892345 C 88.272467,30.547625 87.490326,30.677357 85.75,30.125 83.833655,29.516776 83.209575,29.673319 83.792235,30.616082 84.834017,32.301722 84.445984,32.330716 82,30.75 Z m 15,-4.229211 c 0,-0.263565 1.125,-0.773405 2.5,-1.132975 1.375,-0.35957 2.5,-0.143927 2.5,0.479211 C 102,26.490161 100.875,27 99.5,27 98.125,27 97,26.784355 97,26.520789 Z m -41.68876,-5.1112 c -1.096015,-2.856172 -1.021829,-3.437283 0.331997,-2.600572 0.628781,0.388608 1.352465,0.07888 1.608189,-0.688296 0.280633,-0.841897 1.190138,-0.502097 2.294263,0.85716 1.006121,1.238609 1.160757,1.850958 0.343636,1.360776 -0.825906,-0.495451 -1.992192,0.01386 -2.62626,1.146875 -1.046602,1.870177 -1.20743,1.863919 -1.951825,-0.07595 z m 17.62626,-2.73744 c 0.859375,-0.346765 2.265625,-0.346765 3.125,0 0.859375,0.346766 0.15625,0.630482 -1.5625,0.630482 -1.71875,0 -2.421875,-0.283716 -1.5625,-0.630482 z M 33.25,120.34289 c 0,-0.22391 -1.546875,-1.77078 -3.4375,-3.4375 l -3.4375,-3.03039 3.030392,3.4375 c 2.832359,3.21286 3.844608,4.01074 3.844608,3.03039 z M 11.603893,75.515625 c -0.399033,-0.997166 -0.695229,-0.70097 -0.755209,0.755209 -0.05428,1.317707 0.24116,2.055989 0.656524,1.640625 0.415365,-0.415365 0.459773,-1.49349 0.09868,-2.395834 z M 19.5,60.622426 c -1.506375,-1.075987 -1.322061,-1.218106 0.9375,-0.722883 3.312854,0.726069 3.546053,-0.267158 0.844804,-3.598131 -1.082234,-1.334527 -1.650928,-1.787022 -1.263764,-1.005546 0.387164,0.781476 -0.133623,2.115978 -1.157302,2.965557 -2.497894,2.073066 -2.351422,3.742866 0.326262,3.719436 1.889562,-0.01654 1.932125,-0.201553 0.3125,-1.358433 z M 136.8536,45.507981 c -3.13334,-9.17627 -3.03199,-9.008797 -4.79306,-7.920393 -0.90129,0.557021 -0.50699,2.029966 1.17616,4.393726 1.39256,1.955689 2.89369,6.194956 3.3358,9.420594 0.57984,4.230321 1.1061,5.324725 1.88835,3.926925 0.69569,-1.243118 0.1195,-4.764022 -1.60725,-9.820852 z M 122.625,28.846662 c -2.75,-2.370208 -5.5625,-4.300733 -6.25,-4.290056 -0.6875,0.01063 -0.26562,0.592761 0.9375,1.293518 1.20313,0.700756 2.1875,1.977401 2.1875,2.836989 0,2.37727 2.69891,4.568402 5.5625,4.515953 2.13025,-0.03901 1.71908,-0.773869 -2.4375,-4.356404 z M 114.5,24.5 c 0,-0.6875 -1.26562,-1.241386 -2.8125,-1.230859 -2.2743,0.01548 -2.4537,0.251016 -0.9375,1.230859 2.42345,1.566152 3.75,1.566152 3.75,0 z M 101.24624,20.541666 C 100.89216,19.96875 100.07316,19.5 99.426229,19.5 98.779302,19.5 98.25,19.96875 98.25,20.541666 c 0,0.572918 0.819006,1.041668 1.82001,1.041668 1.00101,0 1.53031,-0.46875 1.17623,-1.041668 z m 9.50376,0.96707 c 0,-0.270195 -0.87297,-0.826252 -1.93992,-1.235682 -1.11241,-0.42687 -1.61415,-0.217312 -1.17623,0.491263 0.73407,1.187755 3.11615,1.75681 3.11615,0.744419 z M 47.324522,14.393148 c 1.209738,-0.704456 3.574796,-2.656101 5.255683,-4.336989 3.477744,-3.477744 8.936306,-4.005896 12.618383,-1.220913 1.334527,1.009385 1.769292,1.853135 0.966146,1.875 -0.803145,0.02187 -2.490645,0.374066 -3.75,0.782669 C 60.510418,12.11078 60.440607,12.008799 62,10.887056 66.169272,7.887905 57.018006,9.563123 52.506078,12.625 c -2.53272,1.71875 -5.229575,3.107895 -5.993012,3.086989 -0.763436,-0.0209 -0.398281,-0.614384 0.811456,-1.318841 z M 70.4375,9.922149 c 0.859375,-0.346765 2.265625,-0.346765 3.125,0 0.859375,0.346766 0.15625,0.630483 -1.5625,0.630483 -1.71875,0 -2.421875,-0.283718 -1.5625,-0.630483 z"
     id="path5425"
     inkscape:connector-curvature="0" />
</svg>
