<?xml version="1.0" encoding="UTF-8" standalone="no"?>
<!-- Created with Inkscape (http://www.inkscape.org/) -->

<svg
   xmlns:dc="http://purl.org/dc/elements/1.1/"
   xmlns:cc="http://creativecommons.org/ns#"
   xmlns:rdf="http://www.w3.org/1999/02/22-rdf-syntax-ns#"
   xmlns:svg="http://www.w3.org/2000/svg"
   xmlns="http://www.w3.org/2000/svg"
   xmlns:sodipodi="http://sodipodi.sourceforge.net/DTD/sodipodi-0.dtd"
   xmlns:inkscape="http://www.inkscape.org/namespaces/inkscape"
   id="svg4269"
   version="1.1"
   inkscape:version="0.91 r13725"
   width="211.25"
   height="410"
   viewBox="0 0 211.25 410"
   sodipodi:docname="5coins.svg">
  <metadata
     id="metadata4275">
    <rdf:RDF>
      <cc:Work
         rdf:about="">
        <dc:format>image/svg+xml</dc:format>
        <dc:type
           rdf:resource="http://purl.org/dc/dcmitype/StillImage" />
        <dc:title></dc:title>
      </cc:Work>
    </rdf:RDF>
  </metadata>
  <defs
     id="defs4273" />
  <sodipodi:namedview
     pagecolor="#ffffff"
     bordercolor="#666666"
     borderopacity="1"
     objecttolerance="10"
     gridtolerance="10"
     guidetolerance="10"
     inkscape:pageopacity="0"
     inkscape:pageshadow="2"
     inkscape:window-width="1720"
     inkscape:window-height="1188"
     id="namedview4271"
     showgrid="false"
     inkscape:zoom="2.302439"
     inkscape:cx="105.625"
     inkscape:cy="205"
     inkscape:window-x="65"
     inkscape:window-y="24"
     inkscape:window-maximized="0"
     inkscape:current-layer="svg4269" />
  <path
     style="fill:#000000"
     d="m 96.25,404.83786 c -3.78125,-1.28118 -8.5625,-3.10882 -10.625,-4.06141 -2.0625,-0.95259 -7.17384,-3.19484 -11.35854,-4.98278 -4.1847,-1.78793 -9.8097,-4.21671 -12.5,-5.39726 C 59.07616,389.21585 51.53125,386.24937 45,383.80423 31.68894,378.82087 32.59011,379.87219 24.5953,360 21.11252,351.34307 12.76076,330.94412 7.45081,318.125 3.58228,308.78574 3.20995,306.25289 5.19704,302.79318 c 1.07978,-1.88 2.33816,-4.99104 2.79641,-6.91343 0.45824,-1.9224 3.06593,-8.26134 5.79486,-14.08653 2.72893,-5.8252 4.96169,-11.12317 4.96169,-11.77326 0,-0.6501 1.08996,-1.76533 2.42214,-2.47829 1.33218,-0.71296 2.34972,-2.27962 2.26121,-3.48148 -0.1724,-2.34078 4.01661,-9.5269 4.98753,-8.55598 0.58567,0.58568 -5.02146,12.95479 -12.91667,28.49364 -2.33982,4.60508 -4.25421,9.20779 -4.25421,10.22828 0,1.59317 4.74474,4.27964 5.43184,3.07551 0.1339,-0.23465 0.87761,-2.11414 1.65271,-4.17664 5.14405,-13.68813 10.91619,-28.28645 12.98721,-32.84594 3.21278,-7.07316 3.10286,-8.2194 -0.69676,-7.26576 -2.77172,0.69566 -3.125,0.39169 -3.125,-2.6888 0,-2.11938 0.97445,-4.08169 2.5,-5.03441 1.375,-0.8587 2.5,-1.04088 2.5,-0.40485 0,0.63603 -0.70312,1.42038 -1.5625,1.74301 -0.91539,0.34364 -0.26827,1.10729 1.5625,1.84389 2.76722,1.11335 3.32907,0.84511 4.90745,-2.34299 0.98035,-1.98016 2.75768,-3.90983 3.94962,-4.28814 1.19194,-0.3783 2.92109,-1.61777 3.84255,-2.75436 0.92146,-1.1366 1.03576,-1.68338 0.25401,-1.21505 -0.8602,0.51531 -1.35371,-0.006 -1.25,-1.32255 0.24703,-3.13395 -4.17918,-2.14349 -7.64113,1.70987 -3.11425,3.46635 -3.34765,3.31138 -1.66766,-1.10733 0.64978,-1.70904 2.94708,-3.68729 5.3125,-4.57468 8.80538,-3.30334 13.36007,-5.1455 26.66766,-10.78582 7.5625,-3.20532 15.4375,-6.5576 17.5,-7.44953 2.0625,-0.89192 6.70313,-2.56011 10.3125,-3.70709 3.60938,-1.14696 6.5625,-2.5124 6.5625,-3.03428 0,-1.09812 -5.64132,-3.85019 -7.89226,-3.85019 -0.83855,0 -10.23396,-3.84052 -20.87869,-8.5345 C 61.83432,190.52153 48.79398,185.11278 43.5005,183.19605 38.20703,181.27931 33.1076,178.79171 32.16843,177.66804 31.22925,176.54437 28.87725,171.40625 26.94174,166.25 23.04586,155.87121 17.85649,143.49417 12.36163,131.47529 10.37523,127.13045 8.75,122.60232 8.75,121.41279 8.75,120.22326 8.28531,118.71562 7.71735,118.0625 7.14939,117.40937 5.92316,114.45044 4.99239,111.48709 3.49686,106.7257 3.54427,105.68579 5.40004,102.54422 6.55502,100.589 7.5,98.27016 7.5,97.391248 7.5,94.34684 19.24291,69.367901 21.41269,67.796859 c 1.19877,-0.867978 2.10761,-2.555478 2.01965,-3.75 -0.17137,-2.327239 4.01998,-9.511205 4.9857,-8.545484 C 28.95374,56.037079 20.17318,75.745258 17.50319,80 15.27711,83.547355 11.25,92.820046 11.25,94.398387 c 0,0.869327 1.34421,1.917967 2.98712,2.330313 2.52214,0.633015 5.35001,4.11843 4.2298,5.21331 -0.18806,0.18381 -2.35758,-0.3607 -4.82117,-1.21002 -4.35624,-1.501801 -4.52427,-1.442516 -6.11835,2.15878 -1.93045,4.36118 -0.31508,10.51894 2.5628,9.76935 0.98164,-0.25569 2.69924,-0.72488 3.81689,-1.04265 1.53216,-0.43563 3.41429,2.2927 7.65038,11.08988 3.09006,6.41721 6.55649,14.92194 7.70319,18.89939 1.14669,3.97746 2.56239,6.93664 3.14599,6.57596 0.5836,-0.36069 1.00072,0.0412 0.92692,0.89325 -0.0738,0.85198 0.65451,3.98389 1.61843,6.9598 1.51318,4.6716 1.50809,5.56547 -0.0372,6.54336 -1.38397,0.87579 -1.16205,1.13695 0.97873,1.15175 1.58553,0.0112 3.40139,1.22091 4.24963,2.83164 1.5503,2.94389 3.47949,4.63601 5.3224,4.66836 0.59981,0.01 0.31856,-0.96524 -0.625,-2.16836 -1.54786,-1.97367 -1.50563,-2.02305 0.43198,-0.50511 1.18115,0.92531 2.09891,2.05031 2.03948,2.5 -0.30711,2.32361 0.31046,4.01446 1.2534,3.43169 0.58599,-0.36215 4.10161,0.502 7.8125,1.92034 3.7109,1.41834 10.67575,3.95782 15.47746,5.64327 8.15635,2.86297 13.97284,5.31982 24.23889,10.23836 4.08206,1.95574 14.22232,2.98247 13.20542,1.33709 -0.27563,-0.44598 2.87479,-2.04179 7.00093,-3.54625 4.12613,-1.50447 7.21501,-3.19984 6.86418,-3.76752 -0.35084,-0.56766 0.0592,-1.00701 0.91116,-0.97632 0.85198,0.0307 2.67405,-0.0415 4.04905,-0.16028 2.10397,-0.18182 2.20297,-0.41672 0.625,-1.4828 -1.48702,-1.00463 -1.22837,-1.21909 1.25,-1.03646 1.71875,0.12666 4.25,0.1342 5.625,0.0168 2.09468,-0.17892 2.19602,-0.41371 0.625,-1.44818 -1.54352,-1.01637 -1.43302,-1.19897 0.625,-1.03281 4.60121,0.37148 7.02933,-0.18327 6.25885,-1.42996 -0.45363,-0.73397 0.10725,-0.90149 1.38128,-0.41257 1.45528,0.55845 1.85437,0.35288 1.24115,-0.63932 -0.50745,-0.82106 -0.18622,-1.52069 0.73244,-1.5953 C 153.0714,175.58257 160,173.63173 160,172.31281 c 0,-0.61857 1.32936,-1.63011 2.95414,-2.24785 3.4838,-1.32453 5.37167,-6.31496 2.38893,-6.31496 C 163.16796,163.75 155,155.57715 155,153.40074 c 0,-0.78169 2.4588,0.99187 5.46401,3.94126 4.75495,4.66662 6.25603,5.40297 11.56743,5.67434 l 6.10343,0.31182 9.59688,-22.60159 c 9.54337,-22.47558 9.58167,-22.61003 6.87006,-24.11978 -3.72657,-2.07484 -4.0364,-2.00702 -5.50839,1.20571 -1.02665,2.24076 -1.1733,1.54198 -0.72138,-3.4375 0.31196,-3.4375 0.50155,-7.375 0.42131,-8.75 -0.0803,-1.375 -0.15424,-4.45111 -0.16444,-6.835806 -0.0141,-3.300202 -0.31999,-3.897325 -1.28061,-2.5 -0.95951,1.39571 -1.07434,1.167613 -0.47895,-0.95147 0.43071,-1.533002 0.15945,-3.783002 -0.60281,-5 -1.17463,-1.875381 -1.26678,-1.7363 -0.60446,0.912276 0.72033,2.880591 0.59563,2.831709 -1.59437,-0.625 -3.35746,-5.299466 -5.34841,-11.590516 -4.42754,-13.990276 0.49646,-1.293729 0.28672,-1.73708 -0.57098,-1.206992 -0.74562,0.460814 -1.57122,0.191178 -1.83468,-0.599192 -0.35195,-1.055864 -1.29206,-1.009685 -3.54426,0.174099 l -3.06525,1.611133 2.39024,-2.691828 c 2.3655,-2.663988 2.35257,-2.763977 -1.25,-9.667478 -3.44029,-6.59248 -3.67457,-6.788012 -4.26524,-3.55968 -0.85974,4.698973 -6.11728,8.449885 -10.35361,7.386634 -3.79428,-0.952305 -10.00342,-11.874096 -8.73407,-15.3631 0.64777,-1.780465 0.35628,-1.737435 -1.95036,0.287915 -2.1234,1.864442 -2.71196,3.778541 -2.71196,8.81965 0,6.868927 2.69397,11.892149 9.06584,16.904255 C 156.39171,81.54292 157.5,81.843372 157.5,80 c 0,-0.6875 -0.82396,-1.25 -1.83103,-1.25 -1.00706,0 -2.403,-1.068771 -3.1021,-2.375049 -1.7202,-3.214211 0.77758,-4.087786 5.60478,-1.960227 2.03684,0.897726 2.96325,1.677915 2.05867,1.733752 -0.90457,0.05584 -2.80057,-0.517096 -4.21335,-1.273186 -1.41276,-0.756091 -2.2316,-0.829333 -1.81963,-0.16276 0.41196,0.666574 2.52506,1.947613 4.69578,2.846754 3.82299,1.583532 3.85856,1.667434 1.13414,2.67526 -2.38439,0.882041 -2.56572,1.337946 -1.19106,2.994317 0.89185,1.074623 3.67355,3.000707 6.18154,4.280187 5.56631,2.839723 10.80796,9.492174 13.90842,17.651912 2.67445,7.0386 2.78518,10.95129 0.50838,17.96404 -1.57974,4.86576 -1.60633,4.76233 -0.99019,-3.85319 0.57645,-8.06038 0.27764,-9.5981 -3.33685,-17.17157 -4.12691,-8.64717 -4.63647,-9.156919 -17.01295,-17.019512 -4.14174,-2.631189 -9.62412,-7.241374 -12.18306,-10.244854 -4.20484,-4.935298 -4.65305,-6.158096 -4.65705,-12.705193 -0.004,-6.020156 0.5119,-7.760657 3.05115,-10.299905 3.86782,-3.867828 6.94441,-2.885225 6.94441,2.217918 0,4.857636 4.52169,12.201306 7.51266,12.201306 7.91011,0 8.34645,-11.290619 0.76864,-19.889063 -1.46096,-1.657735 -1.86626,-2.555198 -0.90066,-1.994365 1.14198,0.663283 1.46136,0.543563 0.91373,-0.342515 -1.09471,-1.771287 -14.40946,-6.754982 -15.78151,-5.907005 -1.36285,0.842289 -7.77049,-1.536952 -9.38786,-3.485837 -1.66815,-2.010081 -11.50024,-6.57572 -16.5486,-7.684525 -2.22625,-0.488968 -4.36863,-1.408255 -4.76084,-2.042861 -0.3922,-0.634605 -1.37552,-1.153829 -2.18515,-1.153829 -0.80962,0 1.47427,1.984156 5.0753,4.409237 5.22892,3.521361 7.49095,6.227238 11.23331,13.4375 l 4.68598,9.028263 -0.0298,17.5 c -0.0265,15.592494 -0.32702,18.045001 -2.75726,22.5 -2.24875,4.122314 -2.73724,4.498581 -2.78278,2.143521 -0.0304,-1.571064 0.91668,-4.339825 2.10459,-6.152802 1.74056,-2.656435 2.1652,-6.227015 2.1875,-18.39352 0.0271,-14.774151 -0.0684,-15.2983 -4.46085,-24.49543 -3.81257,-7.982902 -5.54805,-10.127963 -11.52418,-14.243877 -3.86961,-2.665105 -6.76348,-5.286027 -6.43083,-5.824273 0.33265,-0.538245 -0.5046,-1.330744 -1.86055,-1.761109 -2.80194,-0.8893 -11.29617,1.714829 -17.65594,5.412891 -2.3594,1.371994 -7.38365,3.431255 -11.1649,4.576138 -6.38413,1.932977 -16.29489,5.93779 -30.03633,12.137295 -5.96615,2.691656 -5.98071,2.713437 -13.60196,20.351166 -2.07947,4.8125 -4.40394,8.595245 -5.16549,8.4061 -0.85297,-0.211855 -1.0792,0.618386 -0.58919,2.162276 0.43748,1.378396 0.17177,3.501902 -0.59049,4.7189 -1.17925,1.882767 -1.27491,1.746729 -0.64154,-0.912276 0.60122,-2.524034 0.49179,-2.724381 -0.56906,-1.0418 -0.72238,1.14576 -1.17112,3.11451 -0.99718,4.375 0.17393,1.26049 -0.24626,2.2918 -0.93376,2.2918 -2.30185,0 0.53428,-9.807803 6.96786,-24.095939 3.189,-7.082355 3.07679,-8.218151 -0.71786,-7.265756 -2.81647,0.706888 -3.125,0.411732 -3.125,-2.98949 0,-4.363073 -0.0907,-4.321125 4.35574,-2.014279 2.92668,1.518378 3.07475,1.84115 1.08039,2.354999 -2.09635,0.540125 -2.10596,0.608936 -0.1034,0.740464 1.36821,0.08986 2.99876,-1.513825 4.28797,-4.217327 1.14414,-2.39928 3.05299,-4.671063 4.24189,-5.048407 1.18891,-0.377344 2.91557,-1.616024 3.83703,-2.75262 0.92146,-1.136598 1.03577,-1.683367 0.25401,-1.215045 -0.8602,0.515319 -1.35371,-0.0069 -1.25,-1.322553 0.25226,-3.200228 -4.20956,-2.11139 -7.80968,1.905832 l -2.98105,3.326433 0.94654,-3.078156 c 1.38484,-4.503546 2.86848,-5.944757 7.06962,-6.867484 2.06597,-0.453763 12.29273,-4.510745 22.72613,-9.015513 C 86.11438,13.338961 102.5,7.4242902 102.5,8.9789385 c 0,0.5956162 -1.40625,1.6175935 -3.125,2.2710615 -1.71875,0.653468 -3.125,1.69567 -3.125,2.316005 0,2.110815 3.15702,3.823021 4.97608,2.698778 1.08328,-0.669503 3.35442,-0.429043 5.86828,0.621312 2.90584,1.214141 4.34743,1.314855 4.94647,0.345579 0.53285,-0.86216 0.26234,-1.007569 -0.73161,-0.393273 -1.14984,0.710641 -1.35812,0.284875 -0.76886,-1.571722 0.66647,-2.099876 0.12031,-2.697479 -3.11463,-3.407991 -2.2939,-0.503825 -3.46056,-1.323855 -2.8096,-1.974822 1.33421,-1.3342049 4.65673,-0.2889046 25.38387,7.986033 44.747,17.864435 44.10469,17.559595 45.38263,21.538652 0.65647,2.044046 1.86689,4.560199 2.68983,5.591449 0.82293,1.03125 2.21627,4.392139 3.09629,7.468643 0.88004,3.076502 3.16769,8.982752 5.08366,13.125 1.91598,4.142246 5.793,12.531096 8.61559,18.641888 2.8226,6.110793 5.132,11.857333 5.132,12.770091 0,0.912758 0.90488,3.557118 2.01085,5.876348 1.84779,3.87486 1.84779,4.53209 0,8.10533 -1.10598,2.1387 -2.01085,4.86389 -2.01085,6.05597 0,1.19208 -1.04526,4.45439 -2.32281,7.24958 -1.27754,2.79517 -3.88785,8.7384 -5.80069,13.20715 -1.91284,4.46875 -4.4728,10.375 -5.68881,13.125 -1.21602,2.75 -3.99567,9.78125 -6.17701,15.625 -2.18136,5.84375 -4.623,11.22837 -5.42589,11.96583 -0.80289,0.73745 -5.67854,2.94058 -10.83479,4.89585 -11.52246,4.36935 -28.85694,11.71282 -43.20715,18.30403 -2.79519,1.28386 -6.0575,2.33429 -7.24958,2.33429 -2.76804,0 -9.01012,3.21685 -11.9535,6.16022 -1.2525,1.25251 -3.05071,2.53737 -3.99602,2.85525 -1.44772,0.48683 -1.45166,0.90157 -0.025,2.62999 1.27853,1.54895 2.27169,1.7427 4.05121,0.79034 1.7067,-0.9134 3.37614,-0.73489 6.04781,0.64667 2.70392,1.39827 3.928,1.52384 4.57942,0.4698 0.59055,-0.95551 0.33318,-1.09498 -0.76648,-0.41534 -1.21282,0.74955 -1.43498,0.44835 -0.83073,-1.12629 0.61943,-1.61421 -0.10585,-2.4739 -2.91258,-3.45234 -2.05558,-0.71658 -3.73741,-1.81034 -3.73741,-2.43059 0,-1.46056 0.77649,-1.42259 6.16125,0.3014 8.85147,2.83389 14.76852,5.13564 33.21375,12.92025 10.3125,4.35228 21.38667,8.87338 24.60929,10.04689 5.09511,1.85539 6.24841,2.97127 8.84301,8.5562 1.64106,3.5324 3.71664,8.67255 4.61239,11.42255 0.89576,2.75 3.24452,8.49216 5.21948,12.76037 1.97495,4.2682 3.59083,8.09437 3.59083,8.50257 0,0.4082 2.25,5.25122 5,10.76226 2.75,5.51104 5,10.80643 5,11.76753 0,0.96109 0.90487,3.64501 2.01085,5.96424 1.84779,3.87487 1.84779,4.53209 0,8.10533 -1.10598,2.1387 -2.01085,4.76636 -2.01085,5.83925 0,1.07289 -1.09418,4.33519 -2.4315,7.24958 -5.90799,12.87502 -13.03531,29.95772 -17.0324,40.82311 -4.95499,13.46924 -5.65721,14.54641 -10.23151,15.69448 -1.83858,0.46146 -5.72214,1.92289 -8.63015,3.24764 -2.908,1.32475 -5.63095,2.40864 -6.051,2.40864 -0.85574,0 -24.05048,9.94996 -33.86905,14.52899 -3.50384,1.63405 -7.44134,2.99095 -8.75,3.01531 -1.30867,0.0243 -3.78564,0.84817 -5.50439,1.8307 -1.71875,0.98252 -3.40625,1.73149 -3.75,1.66435 -0.34375,-0.0671 -3.71875,-1.1703 -7.5,-2.45149 z m 12.41206,-2.25706 c 0.98288,-0.622 1.86862,-2.23802 1.96831,-3.59116 0.14852,-2.01598 -0.51278,-2.40108 -3.66206,-2.13252 -5.70851,0.48679 -11.10683,-0.71859 -9.6669,-2.15852 0.77687,-0.77687 2.01941,-0.75338 3.48334,0.0659 1.47742,0.82681 3.06342,0.85196 4.5213,0.0718 1.23509,-0.661 2.79649,-0.86135 3.46978,-0.44524 0.67329,0.4161 1.22417,0.20447 1.22417,-0.47028 0,-0.67476 1.97393,-1.87829 4.38651,-2.67451 2.41258,-0.79623 4.09191,-1.92435 3.73185,-2.50694 -0.94349,-1.5266 4.21025,-3.2786 10.63164,-3.61421 2.51082,-0.13124 2.75649,-0.40599 1.25,-1.39798 -1.54351,-1.01636 -1.43301,-1.19896 0.625,-1.0328 1.375,0.111 3.625,0.10413 5,-0.0154 2.09494,-0.182 2.19621,-0.41724 0.625,-1.45184 -1.54351,-1.01636 -1.43301,-1.19896 0.625,-1.0328 4.60121,0.37148 7.02934,-0.18327 6.25885,-1.42996 -0.45363,-0.73398 0.10725,-0.90149 1.38129,-0.41258 1.45527,0.55845 1.85436,0.35289 1.24115,-0.63931 -0.49712,-0.80434 -0.44877,-1.50812 0.10737,-1.56397 0.5562,-0.0559 2.41753,-0.32875 4.13628,-0.60643 1.71875,-0.27769 5.58338,-0.86004 8.5881,-1.29411 3.33745,-0.48214 4.85387,-1.16574 3.89733,-1.75691 -1.11397,-0.68848 -0.79675,-1.21176 1.09941,-1.81358 1.46583,-0.46525 2.66516,-1.32448 2.66516,-1.90942 0,-0.58494 0.28699,-1.81266 0.63775,-2.72826 0.41792,-1.09094 -0.4454,-1.72698 -2.50468,-1.8453 -5.33326,-0.30644 -6.71472,-1.40088 -7.57822,-6.00374 -0.45813,-2.44238 -1.32154,-4.44069 -1.91862,-4.44069 -1.44995,0 -8.38037,12.23973 -9.29922,16.42322 -0.40076,1.82466 -1.77585,4.26524 -3.05575,5.42354 -2.1845,1.97695 -2.85035,1.95898 -10.86665,-0.29325 -7.71458,-2.16746 -8.9622,-2.22235 -12.91455,-0.56819 -4.24915,1.77839 -4.2941,1.86797 -1.5625,3.11389 8.20919,3.74434 -2.7387,12.23883 -11.46027,8.89205 -1.10493,-0.424 -1.98536,-2.21625 -1.99566,-4.0625 l -0.0184,-3.30376 -1.57444,3.125 c -1.33572,2.65118 -2.58026,3.18283 -8.20804,3.50634 -3.9248,0.22562 -7.38244,-0.24014 -8.46745,-1.14062 -2.43822,-2.02353 -1.69737,-6.14971 1.41179,-7.86306 1.375,-0.75771 2.8436,-1.8467 3.26355,-2.41997 0.41995,-0.57327 1.07855,-0.2214 1.46357,0.78193 0.43921,1.14458 -0.46398,2.35459 -2.42423,3.24776 -3.35847,1.53021 -3.35441,4.62358 0.006,4.34125 1.12173,-0.0943 1.73111,0.32762 1.35419,0.9375 -1.10312,1.78488 6.25985,1.27307 8.84137,-0.61459 2.2372,-1.63588 2.24934,-1.88772 0.23891,-4.95601 -2.81314,-4.29339 -2.63411,-5.91343 0.26911,-2.43524 l 2.304,2.76028 5.14,-5.48397 c 2.82699,-3.01619 6.27148,-5.8431 7.65441,-6.28202 3.25088,-1.03179 3.26123,-3.03047 0.0144,-2.78589 -1.375,0.10362 -2.5,0.57487 -2.5,1.04731 0,1.47989 -8.9239,9.859 -10.5,9.859 -0.825,0 -2.175,-0.675 -3,-1.5 -0.825,-0.825 -1.5,-1.0082 -1.5,-0.40711 0,0.6011 -1.3845,-0.20778 -3.07667,-1.79749 -2.48893,-2.33821 -2.82711,-3.35669 -1.77028,-5.33139 1.22865,-2.29573 0.94489,-2.40706 -4.76835,-1.87075 -3.3411,0.31364 -8.42832,1.77097 -11.30492,3.2385 -5.62678,2.87054 -8.44531,3.42535 -7.20484,1.41824 0.4249,-0.6875 -0.0683,-1.25 -1.096,-1.25 -1.5925,0 -9.71481,-13.62524 -9.38553,-15.74429 0.0623,-0.40092 -1.10119,-2.12569 -2.58552,-3.83282 -2.10796,-2.42437 -3.7096,-3.03146 -7.31587,-2.77308 -2.5394,0.18195 -5.74208,-0.32271 -7.11708,-1.12149 -2.14489,-1.24601 -1.61223,-1.46042 3.75,-1.50944 3.86932,-0.0354 5.61965,-0.45682 4.59514,-1.10638 -1.33669,-0.84748 -1.25943,-1.44464 0.40179,-3.10585 1.13115,-1.13116 2.86021,-2.05665 3.84236,-2.05665 3.2397,0 1.83506,-1.83761 -3.27702,-4.28714 -7.05118,-3.37867 -6.22734,-6.33786 1.76448,-6.33786 5.33372,0 6.22389,-0.40089 7.87851,-3.54801 1.02596,-1.9514 2.18277,-3.23063 2.57069,-2.8427 0.38792,0.38791 -0.0736,1.64377 -1.02552,2.79081 -1.55681,1.87584 -1.41762,1.99667 1.38437,1.20185 l 3.1152,-0.88366 -3.10889,2.4948 -3.10889,2.4948 2.84703,3.03052 C 65.90711,332.92114 78.39708,340 80.50708,340 c 0.36545,0 0.36251,-0.78685 -0.007,-1.74856 -0.36904,-0.96171 -0.0701,-2.1199 0.66423,-2.57378 0.73434,-0.45386 1.33519,0.0517 1.33519,1.12357 0,1.07182 0.70313,1.95738 1.5625,1.96791 1.04167,0.0127 0.9375,0.42305 -0.3125,1.23086 -1.60237,1.03554 -1.55693,1.2145 0.3125,1.23086 1.20313,0.01 2.1875,-0.76511 2.1875,-1.72362 0,-1.05706 1.18237,-1.67184 3.00505,-1.5625 1.65278,0.0991 2.72133,0.63976 2.37456,1.20136 -0.34677,0.56161 0.35198,0.84286 1.55277,0.625 1.20079,-0.21785 2.44879,0.36605 2.77333,1.29757 0.42789,1.22817 -0.1377,1.46269 -2.05782,0.85327 -2.08845,-0.66285 -2.64789,-0.31763 -2.64789,1.63395 0,1.91961 1.14029,2.66702 5.086,3.33363 3.73628,0.63125 4.90111,1.34108 4.38932,2.6748 -0.44491,1.1594 -0.17335,1.49209 0.75142,0.92054 0.97589,-0.60312 1.1797,-0.19551 0.625,1.25 -0.53276,1.38836 -0.33999,1.8464 0.5465,1.29853 0.91432,-0.56509 1.08932,0.0366 0.52644,1.81007 -0.50024,1.57611 -0.30051,2.65654 0.49109,2.65654 0.73383,0 1.26762,-0.42188 1.1862,-0.9375 -0.3918,-2.48144 0.27157,-4.13369 1.38371,-3.44635 0.73399,0.45363 0.9015,-0.10725 0.41258,-1.38129 -0.55845,-1.45527 -0.35288,-1.85436 0.63932,-1.24115 0.80433,0.49712 1.46242,0.35502 1.46242,-0.31577 0,-0.67079 -0.70312,-1.50333 -1.5625,-1.85009 -0.93343,-0.37665 -0.6818,-0.67021 0.625,-0.72916 1.20313,-0.0542 2.1875,0.72741 2.1875,1.73709 0,1.19866 0.72187,1.55875 2.08006,1.03757 1.51031,-0.57956 1.79979,-0.34472 1.05686,0.85736 -0.65162,1.05434 -0.53789,1.35563 0.31318,0.82964 0.73501,-0.45426 1.62126,-0.11925 1.96945,0.74436 0.44207,1.0965 0.66286,1.12579 0.73177,0.0971 0.0543,-0.81028 -0.71828,-2.29018 -1.7168,-3.28869 -2.07183,-2.07189 -1.30393,-3.36315 2,-3.36315 2.32134,0 3.24816,2.56066 3.28347,9.07173 0.014,2.57835 -0.71756,3.63152 -2.9036,4.18018 -1.60727,0.40339 -3.4072,0.43377 -3.99984,0.0675 -0.59265,-0.36627 -3.15587,-0.19722 -5.69605,0.37569 -3.23916,0.73055 -4.62422,0.6143 -4.63764,-0.38922 -0.0115,-0.85917 -0.45509,-0.74258 -1.11025,0.29178 -0.63306,0.99949 -1.75309,1.31352 -2.66804,0.74804 -1.39989,-0.86518 -4.9335,-1.46921 -13.07757,-2.23546 -1.91691,-0.18036 -2.41114,-0.99966 -2.11901,-3.51271 0.24038,-2.06793 -0.33073,-3.55059 -1.54751,-4.01752 -1.07409,-0.41216 -1.79668,-0.1305 -1.63099,0.63576 0.40803,1.88692 -6.3293,3.69709 -7.38751,1.98487 -1.09813,-1.7768 -1.28737,-9.70233 -0.23165,-9.70138 0.45834,4.2e-4 1.11927,0.57732 1.46875,1.282 0.34948,0.70469 0.49037,0.56406 0.31309,-0.3125 -0.17729,-0.87656 -1.2601,-1.77562 -2.40625,-1.9979 C 70.46742,342.40734 70,343.27181 70,346.57501 c 0,2.34208 -0.37012,4.62844 -0.82249,5.08081 -1.14483,1.14483 -4.10494,-1.5152 -3.68308,-3.30971 0.19021,-0.80911 0.1006,-1.02135 -0.19912,-0.47164 -0.29973,0.54972 -1.89504,0.11488 -3.54513,-0.96631 -2.69464,-1.7656 -3.00018,-1.76876 -3.00018,-0.031 0,1.06411 1.47972,2.49733 3.28826,3.18495 1.80854,0.6876 4.8485,2.36117 6.75546,3.71906 1.90696,1.35787 4.29324,2.46886 5.30284,2.46886 1.00961,0 4.50752,1.1819 7.77316,2.62644 11.23191,4.96841 36.09435,4.56527 47.50528,-0.77028 l 3.75,-1.75343 -3.75,0.65253 c -3.10219,0.53981 -3.37211,0.41224 -1.5625,-0.73847 1.20312,-0.76506 2.1704,-2.34744 2.14949,-3.5164 -0.0347,-1.94605 -0.14677,-1.93859 -1.32683,0.0884 -0.70885,1.21759 -1.81673,1.88751 -2.46198,1.48874 C 125.52793,353.9288 125,354.76071 125,356.17629 c 0,1.45446 -0.81542,2.57377 -1.875,2.57377 -1.38273,0 -1.91386,-1.55885 -2.02303,-5.9375 -0.0814,-3.26563 -0.0814,-6.35938 0,-6.875 0.0814,-0.51563 -1.57267,-0.9375 -3.67574,-0.9375 -2.23088,0 -3.50195,-0.52073 -3.05123,-1.25 0.4249,-0.6875 -0.0712,-1.25 -1.10246,-1.25 -1.03125,0 -2.22264,0.5625 -2.64754,1.25 -0.4249,0.6875 -1.44247,1.20559 -2.26127,1.15131 -1.07344,-0.0711 -1.05286,-0.27456 0.0738,-0.72916 0.85938,-0.34676 1.5625,-1.1793 1.5625,-1.85009 0,-0.67079 -0.64941,-0.81825 -1.44313,-0.3277 -0.82644,0.51077 -1.10627,0.34685 -0.65484,-0.38359 0.43357,-0.70152 2.06736,-1.14711 3.63064,-0.9902 1.56328,0.15693 1.85796,0.0424 0.65483,-0.25457 -1.20312,-0.29694 -2.1875,-1.16131 -2.1875,-1.92083 0,-0.75952 -1.40625,-0.0599 -3.125,1.55483 -1.71875,1.61469 -3.125,2.36899 -3.125,1.67622 0,-0.69276 0.38646,-1.64601 0.8588,-2.11835 1.16534,-1.16533 1.44651,-5.83508 0.30902,-5.13207 -0.49822,0.30791 -1.27631,-0.40554 -1.72908,-1.58545 -0.70543,-1.83833 -0.98912,-1.88201 -1.98266,-0.30531 -0.80491,1.27735 -0.52559,2.31378 0.91349,3.38955 1.14012,0.85226 1.78242,1.84008 1.42735,2.19516 -0.35507,0.35506 -1.59417,-0.4026 -2.75355,-1.68371 -1.98313,-2.19134 -1.96047,-2.50642 0.38274,-5.32017 2.07859,-2.49597 2.4976,-2.62891 2.53231,-0.80337 0.0434,2.2827 2.49942,2.47059 4.08494,0.3125 0.5051,-0.6875 0.92698,-0.0969 0.9375,1.3125 0.0105,1.40937 -0.51202,3.09687 -1.16123,3.75 -0.74405,0.74855 0.41664,1.2224 3.14002,1.28191 3.58807,0.0784 4.20112,-0.28137 3.61676,-2.12251 -0.50427,-1.58883 0.38843,-2.78164 3.15086,-4.21014 4.06411,-2.10164 4.03752,-4.38676 -0.051,-4.38676 -3.18222,0 -3.09088,-2.76103 0.18955,-5.72978 5.59219,-5.06086 5.23872,-6.22058 -1.92752,-6.32417 -8.31345,-0.12016 -9.43826,-0.84244 -9.43826,-6.06059 0,-3.25709 0.6402,-4.43421 2.8125,-5.17129 3.18849,-1.08187 6.2467,-0.72261 7.22279,0.84851 0.36316,0.58453 2.05066,1.61764 3.75,2.29582 l 3.08971,1.23304 -3.36373,0.0793 c -1.85005,0.0436 -3.71137,-0.48329 -4.13627,-1.17079 -1.25242,-2.02645 -6.53892,-1.4288 -7.4086,0.83756 -1.00794,2.62665 0.96565,3.87129 7.77021,4.90025 4.04059,0.61101 5.91272,0.31203 7.59842,-1.21352 1.23025,-1.11335 2.75503,-2.00558 3.38839,-1.9827 0.63337,0.0229 -0.0901,1.07803 -1.60777,2.34482 -1.51763,1.26678 -2.46053,2.60204 -2.09532,2.96725 0.88605,0.88605 -2.87026,8.05465 -4.50637,8.60001 -0.70875,0.23626 -0.15808,1.13559 1.2237,1.99853 2.26217,1.41275 2.51234,1.26114 2.51234,-1.52263 0,-1.84987 1.04212,-3.64933 2.59461,-4.48021 2.328,-1.2459 2.46304,-1.14274 1.31419,1.00393 -0.70425,1.31589 -0.93948,3.69642 -0.52273,5.29009 0.4849,1.85423 0.28775,2.60708 -0.54753,2.09085 -1.99067,-1.2303 -4.15666,2.0408 -2.78618,4.20769 0.63765,1.00819 1.12844,2.67683 1.09064,3.70808 -0.0453,1.23632 -0.43465,1.02342 -1.143,-0.625 -0.95896,-2.23161 -1.08372,-2.13858 -1.16214,0.86662 -0.0519,1.98992 -1.22392,4.16234 -2.86599,5.3125 l -2.77814,1.94588 3.34628,0 c 5.24039,0 19.13683,-5.52186 23.932,-9.50959 3.29548,-2.74053 4.36934,-4.61632 4.43774,-7.75168 0.0496,-2.27495 0.61389,-3.81265 1.25388,-3.41712 0.63999,0.39555 1.53778,0.11375 1.99508,-0.62616 0.94679,-1.53194 12.26923,-0.65121 19.55441,1.52104 l 4.58813,1.36806 -6.46313,5.01308 c -3.55472,2.75718 -6.92116,5.41807 -7.48098,5.91307 -0.55982,0.49501 -0.23169,1.68618 0.72917,2.64704 3.21569,3.21569 2.09678,5.99937 -2.73215,6.7971 -6.69935,1.10671 -7.60416,1.53876 -7.60416,3.63094 0,1.29358 1.21584,1.91422 3.75,1.91422 3.4375,0 3.75,0.35714 3.75,4.28571 0,4.93809 2.6901,8.21429 6.74479,8.21429 2.23113,0 3.57595,-1.62306 6.47321,-7.8125 2.01135,-4.29687 3.57989,-8.50957 3.48562,-9.36155 -0.0942,-0.85197 0.26763,-1.27774 0.80417,-0.94614 0.53653,0.3316 1.37737,-0.94007 1.86852,-2.82595 l 0.89299,-3.42886 1.11777,2.92794 c 1.21185,3.17439 0.39664,5.67445 -1.47345,4.51867 -1.06442,-0.65785 -1.64376,1.40707 -1.50167,5.35244 0.0308,0.85198 -0.53879,1.18158 -1.2655,0.73244 -0.83149,-0.51388 -1.01616,-0.0215 -0.49819,1.32837 0.4527,1.17974 0.40399,1.88595 -0.10825,1.56937 -0.51226,-0.31659 -1.80849,1.48232 -2.88051,3.99757 l -1.94915,4.5732 3.83234,0.0802 c 3.63062,0.076 4.05423,-0.45032 8.04872,-10 2.31901,-5.54411 5.6299,-13.45521 7.35751,-17.58021 1.72762,-4.125 4.18264,-9.73793 5.45562,-12.47318 l 2.31451,-4.97318 -3.36423,-1.7627 c -2.14575,-1.12427 -3.52033,-1.29437 -3.79525,-0.46963 -0.6746,2.02379 -7.95686,10.44401 -13.12206,15.17256 -2.57812,2.36018 -4.7046,5.18334 -4.72551,6.27368 -0.0319,1.66479 -0.24503,1.62681 -1.32998,-0.23698 -1.0686,-1.8357 -0.13386,-3.34851 5.40648,-8.75 3.68414,-3.59181 7.79825,-8.13977 9.14247,-10.10658 1.34423,-1.9668 3.19682,-4.3669 4.11688,-5.33354 1.3985,-1.46933 1.35686,-2.68483 -0.25386,-7.41208 -1.05969,-3.10998 -1.62477,-6.44135 -1.25574,-7.40302 0.36904,-0.96168 0.0345,-2.76705 -0.74333,-4.01193 -1.22282,-1.95702 -1.3102,-1.84038 -0.64537,0.86158 1.20172,4.88405 -4.82693,-5.90491 -8.28999,-14.8359 -1.7117,-4.41435 -3.72785,-7.66414 -4.75477,-7.66414 -2.41919,0 -6.35479,-3.70918 -6.35479,-5.98919 0,-1.26787 1.04504,-0.80669 3.3144,1.46268 1.82291,1.82291 3.55189,3.07689 3.84216,2.78661 0.87937,-0.87936 -3.37607,-8.2601 -4.76244,-8.2601 -0.71041,0 -0.95783,-0.54015 -0.54982,-1.20033 0.40801,-0.66017 -0.91969,-4.49179 -2.95045,-8.51471 -3.06755,-6.07677 -4.60823,-7.70545 -9.10558,-9.6256 -2.9773,-1.27116 -9.77421,-4.22177 -15.10423,-6.55691 -5.33004,-2.33514 -10.39254,-3.89051 -11.25,-3.45639 -0.85748,0.43414 -0.46715,-0.0961 0.86737,-1.17836 2.55766,-2.07414 2.20749,-2.46825 -1.07417,-1.20896 -1.15474,0.44311 -1.93619,2.13303 -1.87855,4.0625 0.0542,1.81706 0.3824,2.60063 0.72916,1.74126 0.86989,-2.15579 2.92215,-1.96721 2.92215,0.26852 0,1.00707 -1.11118,2.42571 -2.46928,3.15253 -2.13568,1.14299 -2.57262,0.8534 -3.23433,-2.14351 -0.42079,-1.90578 -0.89833,-4.01244 -1.0612,-4.68148 -0.16289,-0.66904 -0.93489,0.61585 -1.71557,2.8553 -0.79716,2.28674 -0.89339,3.74665 -0.21952,3.33018 1.09093,-0.67424 1.74226,1.03692 1.335,3.50725 -0.0885,0.53695 1.53236,0.10062 3.60197,-0.9696 2.34187,-1.21103 3.76293,-1.43385 3.76293,-0.59002 0,0.74573 0.5625,1.00823 1.25,0.58333 0.6875,-0.4249 1.25,-0.11663 1.25,0.68496 0,0.80163 -0.75266,1.16869 -1.67258,0.81569 -0.91991,-0.35301 -3.50042,0.24342 -5.73446,1.32541 -3.47942,1.68513 -4.22271,1.71318 -5.18329,0.19559 -0.89647,-1.41631 -1.12523,-1.30658 -1.14053,0.54715 -0.0161,1.95369 0.76813,2.24371 4.98086,1.84196 2.75,-0.26225 5,-0.008 5,0.56565 0,0.57336 -3.23438,0.93208 -7.1875,0.79714 -3.95313,-0.13494 -8.45313,0.0816 -10,0.48127 -4.20899,1.08743 -3.41241,-1.09435 2.27583,-6.23332 2.79858,-2.52835 5.80579,-6.32376 6.68269,-8.43425 1.44618,-3.48061 1.35084,-3.97835 -1.02583,-5.35545 -1.4411,-0.83503 -4.12019,-1.53815 -5.95352,-1.5625 -1.83334,-0.0244 -3.531,-0.63728 -3.77258,-1.36203 -0.24158,-0.72476 -2.7374,-1.83409 -5.54626,-2.4652 -5.48205,-1.23173 -11.87505,-0.0159 -15.33257,2.91615 -1.10839,0.93993 -5.95276,2.98789 -10.76526,4.55104 -9.48779,3.08173 -22.59097,8.42504 -32.50431,13.25484 -3.95883,1.92875 -6.80666,4.31127 -7.75926,6.4915 -1.82255,4.17129 -13.98229,32.68667 -15.06115,35.3194 -0.6449,1.57372 -0.44736,1.61419 1.2294,0.2518 1.37837,-1.11994 2.25483,-1.20723 2.82695,-0.28153 0.45606,0.73792 0.0843,1.1871 -0.82622,0.9982 -0.91048,-0.18891 -1.48305,0.45487 -1.27238,1.43062 0.31894,1.47726 0.0528,1.50002 -1.59072,0.13602 -1.15974,-0.9625 -1.70753,-2.72521 -1.32824,-4.27409 0.35503,-1.44981 -0.75003,0.17648 -2.45569,3.61398 -1.70567,3.4375 -3.10845,7.00579 -3.1173,7.92952 -0.009,0.92374 -1.18863,1.98615 -2.62175,2.36093 -1.8861,0.49322 -2.16462,0.95397 -1.00857,1.66845 1.26541,0.78207 1.28539,1.6712 0.0962,4.28121 -0.84422,1.85286 -0.94985,2.95358 -0.24143,2.51575 0.69271,-0.42812 1.25948,-0.2159 1.25948,0.4716 0,0.6875 -0.56647,1.6001 -1.25883,2.028 -1.90262,1.17588 -3.07676,-3.15571 -1.52775,-5.63609 1.10562,-1.77036 0.82473,-2.41742 -1.51149,-3.48187 -2.62259,-1.19494 -3.0034,-0.90159 -4.42623,3.40962 -1.16481,3.52942 -1.20464,5.37502 -0.15819,7.33032 1.31253,2.45248 1.66315,2.50272 5.69867,0.81658 4.73891,-1.98005 5.17796,-1.66876 5.36801,3.80598 0.0716,2.0625 -0.15735,3.04337 -0.50877,2.17971 -0.35142,-0.86366 -1.24031,-1.19862 -1.97532,-0.74436 -0.78987,0.48816 -0.97163,0.23576 -0.44446,-0.61721 1.20947,-1.95698 -0.61684,-1.75292 -3.43729,0.38405 -2.19459,1.66276 -1.90323,2.67797 5.99765,20.89773 4.56736,10.53254 8.82767,20.4157 9.46735,21.96258 1.12859,2.72916 3.71665,3.92664 3.71665,1.71966 0,-0.60106 -0.84375,-3.48429 -1.875,-6.40716 -2.17797,-6.17304 -2.24129,-6.62393 -0.80557,-5.7366 0.58819,0.36353 0.79397,-0.78 0.45731,-2.54116 -0.46202,-2.4169 -0.89761,-2.79078 -1.77631,-1.52468 -0.81941,1.18064 -0.94692,0.89814 -0.43058,-0.9539 0.4035,-1.44724 0.14616,-3.97849 -0.57186,-5.625 -1.26653,-2.90431 -1.28527,-2.89106 -0.62792,0.44384 1.10819,5.62224 -0.0993,3.9444 -3.14859,-4.375 C 19.98443,327.90204 18.32619,320 19.38933,320 c 0.77083,0 6.50421,12.21766 8.10816,17.27825 l 1.71255,5.40324 1.80569,-3.44626 c 1.7218,-3.28619 1.88532,-3.33737 3.51998,-1.10184 0.94286,1.28943 1.71429,2.90694 1.71429,3.59443 0,0.6875 -0.75672,0.21513 -1.68159,-1.04971 -1.56002,-2.13345 -1.7383,-2.01616 -2.46602,1.62241 -0.96038,4.80194 0.18994,8.78553 1.80242,6.24179 0.82861,-1.30716 1.06104,-1.23121 1.07605,0.35161 0.0105,1.11042 1.14414,3.44914 2.51914,5.19717 2.99956,3.81332 3.18377,5.18877 0.56008,4.18196 -1.25302,-0.48082 -1.62801,-0.23972 -1.05903,0.6809 0.48449,0.78393 -0.15631,2.18372 -1.42399,3.11067 -2.23715,1.63585 -2.23724,1.68538 -0.003,1.68538 1.26595,0 4.60784,2.43884 7.42641,5.41964 2.8611,3.02576 5.95286,5.19224 6.99967,4.90482 1.27993,-0.35141 1.41056,-0.18307 0.41161,0.5304 -0.80487,0.57485 -1.83221,2.51466 -2.28299,4.31069 -0.69878,2.78418 -0.33983,3.38591 2.43522,4.0824 1.79015,0.4493 6.19249,2.16216 9.78299,3.80637 3.59049,1.64421 11.86057,5.31172 18.37794,8.15002 11.16257,4.86128 11.94461,5.03085 13.48523,2.92392 1.4215,-1.94401 1.26126,-2.38632 -1.22477,-3.38071 -12.64632,-5.05844 -20.98702,-9.31964 -19.54467,-9.98521 0.92645,-0.42752 0.27352,-0.51609 -1.45094,-0.19683 -1.72446,0.31925 -3.97446,0.05 -5,-0.59839 -1.65036,-1.04338 -1.64917,-1.19113 0.0104,-1.28583 1.26311,-0.0721 1.05914,-0.45759 -0.625,-1.18129 -3.43144,-1.47454 -4.66422,-1.47924 -3.75885,-0.0144 0.44634,0.72218 -0.086,0.90962 -1.28104,0.45103 -1.49557,-0.5739 -1.6365,-1.03692 -0.52476,-1.72402 1.04045,-0.64304 0.64945,-1.21569 -1.23939,-1.81518 -1.51765,-0.48168 -2.488,-1.14716 -2.15633,-1.47882 0.33168,-0.33168 2.20219,0.2224 4.15671,1.23126 1.95451,1.00886 8.02214,3.333 13.48363,5.16473 5.46148,1.83173 11.36773,4.13767 13.125,5.12431 1.75726,0.98662 4.65497,2.31325 6.43934,2.94805 2.56299,0.91179 3.26895,2.0211 3.36168,5.28239 0.0677,2.38096 1.04417,4.80591 2.3071,5.72938 2.53352,1.85257 7.78372,2.07118 10.37397,0.43198 z M 90,380 c 0,-0.6875 0.5957,-1.25 1.32377,-1.25 0.72808,0 0.97613,0.5625 0.55123,1.25 -0.4249,0.6875 -1.02059,1.25 -1.32377,1.25 C 90.24805,381.25 90,380.6875 90,380 Z M 62.60972,372.8125 C 58.86109,369.31061 56.1011,361.25 58.65068,361.25 c 0.74213,0 1.34932,0.89759 1.34932,1.99464 0,3.37942 4.20159,9.32107 7.10698,10.05027 1.55126,0.38935 4.00194,-0.17987 5.60322,-1.30145 3.06122,-2.14416 8.87619,-2.47891 12.9148,-0.74346 1.91744,0.82395 1.18924,1.10507 -3.125,1.20644 -3.09375,0.0728 -7.03125,0.93603 -8.75,1.91856 -4.58587,2.62153 -7.02811,2.27897 -11.14028,-1.5625 z M 40,361.52405 c 0,-0.53678 1.82813,-1.64399 4.0625,-2.46046 l 4.0625,-1.4845 -2.95098,2.46046 C 42.10551,362.598 40,363.2021 40,361.52405 Z m 12.1875,-6.22184 C 47.50653,352.4 47.79923,350.54703 52.5,353.32384 c 2.0625,1.21835 3.75,2.6564 3.75,3.19567 0,1.28455 -0.0528,1.26873 -4.0625,-1.2173 z m 107.91119,-1.03137 c 0.06,-1.45619 0.35617,-1.75238 0.7552,-0.75522 0.36109,0.90234 0.31669,1.98048 -0.0986,2.39584 -0.41537,0.41536 -0.7108,-0.32292 -0.65652,-1.64062 z M 54.58333,350.41666 C 54.125,349.95834 53.75,349.00209 53.75,348.29166 c 0,-0.78325 0.58221,-0.70945 1.47917,0.1875 0.81354,0.81355 1.18854,1.7698 0.83333,2.125 -0.35521,0.35521 -1.02083,0.27084 -1.47917,-0.1875 z M 172.74369,343.125 c 0.0255,-2.0625 0.30562,-2.75492 0.62255,-1.53871 0.31692,1.21621 0.29608,2.90371 -0.0464,3.75 -0.34241,0.84628 -0.60171,-0.14879 -0.57624,-2.21129 z m -78.6574,1.00876 c 1.21621,-0.31692 2.90371,-0.29609 3.75,0.0464 0.84629,0.34241 -0.14879,0.60171 -2.21129,0.57623 -2.0625,-0.0255 -2.75492,-0.30562 -1.53871,-0.62255 z M 98.75,341.25 c -0.86059,-1.60803 -0.89197,-2.5 -0.088,-2.5 0.6875,0 1.85208,1.125 2.58796,2.5 0.86059,1.60802 0.89197,2.5 0.088,2.5 -0.6875,0 -1.85208,-1.125 -2.58796,-2.5 z m -55.21963,-2.89121 2.71615,-2.89122 -3.77504,-2.79101 c -2.07627,-1.53505 -4.25288,-2.49567 -4.83691,-2.13472 -0.58403,0.36095 -2.34555,-0.45705 -3.91449,-1.81779 -3.10539,-2.69329 -2.06751,-3.45001 1.25025,-0.91155 1.1232,0.85937 0.34499,0.0156 -1.72935,-1.875 -2.41629,-2.20227 -3.09996,-3.4375 -1.9026,-3.4375 2.01021,0 6.49011,3.19809 13.58803,9.70014 l 4.44859,4.07513 -2.95098,2.48737 c -4.07346,3.43348 -6.21753,3.13426 -2.89365,-0.40385 z m 80.66717,-0.0235 C 124.63889,337.07591 125,335.41654 125,334.64776 c 0,-0.96896 0.4629,-0.93486 1.50892,0.11113 1.17858,1.17857 1.00289,1.9859 -0.80246,3.6875 -2.2014,2.0749 -2.2732,2.06961 -1.50892,-0.11113 z m -83.6913,-4.89779 -2.38124,-2.8125 3.125,2.48668 c 1.71875,1.36767 3.35938,2.6333 3.64583,2.8125 0.28646,0.1792 -0.0482,0.32582 -0.74376,0.32582 -0.69553,0 -2.33616,-1.26563 -3.64583,-2.8125 z m 87.84085,1.99291 c -1.34685,-1.34685 -0.98539,-2.65777 0.71541,-2.5946 6.5414,0.24294 8.42533,-0.4771 9.18684,-3.51117 0.51923,-2.06884 0.114,-3.93006 -1.16295,-5.34105 -1.23402,-1.36358 -1.56698,-2.80148 -0.89899,-3.8823 0.83964,-1.35856 1.76662,-1.0109 4.44434,1.66681 1.86087,1.86088 3.05657,3.71026 2.65708,4.10974 -0.39947,0.39947 -1.89876,-0.61899 -3.33176,-2.26326 l -2.60544,-2.98958 1.99235,3.28396 c 1.62582,2.67981 1.71955,3.88268 0.50949,6.53848 -0.81557,1.78997 -2.66311,3.5912 -4.10566,4.00272 -1.44254,0.41151 -3.50724,0.99101 -4.58821,1.28778 -1.08099,0.29675 -2.34662,0.15837 -2.8125,-0.30753 z m -57.84746,-1.38705 c -4.29648,-2.86883 -4.24319,-10.31902 0.0857,-11.98017 1.19489,-0.45851 1.72716,-0.27104 1.28083,0.45112 -0.42003,0.67963 0.11325,1.23569 1.18508,1.23569 2.29783,0 2.39372,0.58296 0.63605,3.86719 -1.5835,2.9588 -3.63243,2.02131 -3.83228,-1.75346 -0.11925,-2.25225 -0.24973,-2.33364 -0.73457,-0.45823 -0.64773,2.50552 2.82871,7.0945 5.37453,7.0945 0.88412,0 1.95514,0.5625 2.38004,1.25 0.88881,1.43813 -4.30313,1.67704 -6.37537,0.29336 z M 92.16504,332.5 c 1.17731,-1.375 2.31659,-2.5 2.53174,-2.5 0.21515,0 -0.2109,1.125 -0.94678,2.5 -0.73588,1.375 -1.87516,2.5 -2.53174,2.5 -0.65659,0 -0.23054,-1.125 0.94678,-2.5 z m -8.86134,-3.34576 c 0.4376,-1.25358 1.62941,-2.95393 2.64846,-3.77854 1.62951,-1.31861 1.60846,-1.74365 -0.17468,-3.52679 -1.11511,-1.11511 -2.02469,-2.97167 -2.02127,-4.1257 0.005,-1.51941 0.85415,-1.06375 3.08004,1.65179 3.8983,4.75581 3.83763,5.60846 -0.65138,9.15424 -3.13246,2.47426 -3.55902,2.56678 -2.88117,0.625 z M 126.875,330 c -0.4249,-0.6875 -0.1945,-1.25 0.512,-1.25 0.7065,0 0.96787,-0.98438 0.58085,-2.1875 -0.53995,-1.67851 -0.42003,-1.7901 0.51537,-0.47959 0.96522,1.35227 1.70559,1.39769 3.55543,0.21813 1.99757,-1.27378 2.01916,-1.39118 0.14885,-0.80965 -1.20313,0.37408 -2.1875,0.1353 -2.1875,-0.53061 0,-2.0576 5.03156,-1.33298 5.86732,0.84498 1.39562,3.6369 -6.93526,7.52263 -8.99232,4.19424 z m 5.28646,-0.75521 c -0.41537,-0.41536 -1.4935,-0.45977 -2.39584,-0.0986 -0.99716,0.39903 -0.70097,0.69523 0.75522,0.7552 1.3177,0.0542 2.05598,-0.24116 1.64062,-0.65652 z m -55.65813,-0.31177 c -1.29527,-0.82165 -1.23237,-1.35178 0.3125,-2.63392 1.31004,-1.08722 1.93417,-1.15246 1.93417,-0.20215 0,0.77168 0.98438,1.41166 2.1875,1.42219 1.86943,0.0164 1.91487,0.19532 0.3125,1.23086 -2.28145,1.47439 -2.68632,1.49 -4.74667,0.18302 z m 2.32035,-8.58141 c -3.63727,-5.16025 -3.77645,-5.62816 -1.16477,-3.91597 2.8707,1.88198 6.84656,8.22556 5.80697,9.26515 -0.28123,0.28122 -2.37022,-2.1259 -4.6422,-5.34918 z m 27.525,3.71089 c 0.0595,-1.31969 0.34984,-1.56454 0.73177,-0.61721 0.34819,0.86366 1.14753,1.25234 1.77631,0.86372 0.62878,-0.3886 1.14324,-0.11086 1.14324,0.61722 0,0.72807 -0.84375,1.32377 -1.875,1.32377 -1.03125,0 -1.83059,-0.98438 -1.77632,-2.1875 z m 38.10668,0.0539 c -0.67835,-1.7815 -0.53477,-1.92507 0.69975,-0.69975 0.85428,0.84793 1.23834,1.85655 0.85348,2.24142 -0.38487,0.38486 -1.08382,-0.30889 -1.55323,-1.54167 z M 39.0625,321.60469 c 1.89063,-0.28642 4.98438,-0.28642 6.875,0 1.89063,0.2864 0.34375,0.52073 -3.4375,0.52073 -3.78125,0 -5.32812,-0.23433 -3.4375,-0.52073 z M 58.75,320.57464 c 0,-2.26477 6.8607,-8.07464 9.53509,-8.07464 4.16145,0 4.82455,2.26465 0.7986,2.72742 -2.07052,0.23802 -3.32084,1.06199 -3.11522,2.05299 0.19084,0.91978 -0.26077,1.28198 -1.01627,0.81505 -0.74785,-0.4622 -2.44929,0.14566 -3.78097,1.35083 -1.33168,1.20515 -2.42123,1.7129 -2.42123,1.12835 z M 144.375,317.5 c -1.25199,-1.38343 -1.99509,-2.79657 -1.65134,-3.14033 0.34375,-0.34375 1.64935,0.5069 2.90134,1.89033 1.25199,1.38342 1.99509,2.79657 1.65134,3.14033 -0.34375,0.34375 -1.64935,-0.50691 -2.90134,-1.89033 z m 1.25,-6.25 c -0.43634,-0.70601 0.58742,-1.25 2.35246,-1.25 1.71875,0 3.47264,0.5625 3.89754,1.25 0.43634,0.70601 -0.58743,1.25 -2.35246,1.25 -1.71875,0 -3.47264,-0.5625 -3.89754,-1.25 z m 8.459,0.49934 c 0.41286,-0.41287 5.29769,-0.86424 10.85516,-1.00304 8.67322,-0.21664 10.36412,-0.62302 11.93724,-2.86896 1.68495,-2.40562 1.6076,-2.66445 -0.95934,-3.21024 -1.53564,-0.32651 -5.30653,-0.69652 -8.37977,-0.82226 -3.07324,-0.12573 -5.87028,-0.51116 -6.21564,-0.85653 -0.34536,-0.34536 4.31479,-0.4917 10.35589,-0.3252 8.74731,0.24108 11.20998,0.72535 12.09462,2.37831 0.70565,1.3185 0.58504,2.60138 -0.33066,3.51708 -1.927,1.927 -3.81971,1.84182 -2.68871,-0.121 0.49518,-0.85938 -0.49224,-0.29688 -2.19429,1.25 -2.71975,2.4718 -4.43506,2.8125 -14.1599,2.8125 -6.0859,0 -10.72748,-0.3378 -10.3146,-0.75066 z M 41.01563,310.39611 c 0.90234,-0.36108 1.98046,-0.31668 2.39583,0.0986 0.41536,0.41536 -0.32292,0.7108 -1.64063,0.65652 -1.45617,-0.06 -1.75237,-0.35617 -0.7552,-0.7552 z m 6.79687,-0.007 c 1.20313,-0.3144 3.17188,-0.3144 4.375,0 1.20313,0.31442 0.21875,0.57167 -2.1875,0.57167 -2.40625,0 -3.39062,-0.25725 -2.1875,-0.57167 z M 97.5,310 c 0,-0.6875 0.63138,-1.25 1.40306,-1.25 0.96938,0 0.92207,-0.57955 -0.15306,-1.875 -1.87374,-2.25773 -5.19546,-2.42954 -7.25,-0.375 -1.16667,1.16666 -1.5,1.15979 -1.5,-0.0309 0,-0.84201 1.44287,-2.07951 3.20637,-2.74999 4.04956,-1.53964 3.75884,-1.57528 6.07934,0.74522 2.49515,2.49507 2.5516,6.78565 0.0893,6.78565 -1.03125,0 -1.875,-0.5625 -1.875,-1.25 z m -71.76988,-2.0518 c -0.65833,-1.7156 -0.47542,-1.79292 1.11626,-0.47195 2.16906,1.80016 2.39481,2.52375 0.78736,2.52375 -0.61395,0 -1.47058,-0.92331 -1.90362,-2.0518 z M 70.625,307.5 c 1.24436,-1.375 3.04697,-2.5 4.00581,-2.5 2.3804,0 9.51201,3.77385 8.68827,4.59759 -0.36479,0.36478 -2.35695,-0.18168 -4.42703,-1.21437 -3.1974,-1.59507 -4.10261,-1.62068 -6.01542,-0.17017 -3.39448,2.57409 -4.81837,2.12316 -2.25163,-0.71305 z m -53.07495,-5.27009 c -0.11889,-2.12635 4.27732,-9.684 6.02268,-10.35375 1.67829,-0.64402 1.67232,-0.45969 -0.0489,1.50755 -1.07853,1.2327 -2.8526,3.92879 -3.94237,5.99129 -1.08977,2.0625 -2.00392,3.34721 -2.03145,2.85491 z M 106.59045,297.5 c 0,-3.09375 0.24377,-4.35938 0.54172,-2.8125 0.29794,1.54687 0.29794,4.07812 0,5.625 -0.29795,1.54687 -0.54172,0.28125 -0.54172,-2.8125 z m 27.6943,3.34056 c -0.67919,-1.76994 1.40338,-8.34056 2.64355,-8.34056 0.40709,0 0.36075,1.19544 -0.103,2.65654 -0.64459,2.03091 -0.44364,2.41597 0.85327,1.63505 1.40494,-0.84598 1.40165,-0.6581 -0.0191,1.09346 -1.56149,1.92501 -1.1063,2.65919 1.40305,2.26298 0.51562,-0.0814 0.9375,0.41447 0.9375,1.10197 0,1.86659 -4.97873,1.50991 -5.71525,-0.40944 z M 50,300.03922 c 0,-0.66591 0.84375,-0.88698 1.875,-0.49126 1.03125,0.39574 1.875,0.94058 1.875,1.21078 0,0.27019 -0.84375,0.49126 -1.875,0.49126 -1.03125,0 -1.875,-0.54485 -1.875,-1.21078 z m 51.04564,-7.40017 c -0.36882,-7.79886 -0.15114,-8.89434 1.76686,-8.89186 1.72119,0.002 2.15597,-0.99643 2.03961,-4.68469 l -0.1479,-4.6875 -1.03159,3.75 c -0.79753,2.89916 -0.95686,2.10847 -0.70222,-3.48485 0.25853,-5.67876 -0.0363,-7.09454 -1.37072,-6.58246 -0.93506,0.35881 -1.61086,-0.0417 -1.50179,-0.89015 0.4467,-3.4745 -0.20653,-5.8476 -2.14253,-7.78362 -2.44974,-2.44973 -0.71397,-4.88437 2.58089,-3.62001 1.65869,0.6365 2.02756,1.72954 1.49027,4.41598 -0.39271,1.96356 -0.20349,3.57011 0.4205,3.57011 0.62398,0 1.47323,1.06722 1.88723,2.3716 0.49564,1.56162 1.54812,2.16361 3.08164,1.76259 1.2809,-0.33498 3.76785,0.3338 5.52654,1.48613 4.39613,2.88045 5.7757,1.62658 4.45725,-4.05116 -2.37065,-10.20897 -0.68358,-18.04032 3.02174,-14.02686 1.10648,1.1985 1.10196,1.3771 -0.0189,0.74793 -2.55759,-1.43561 -3.11631,3.81592 -1.12087,10.53529 2.82855,9.52474 0.53225,12.73422 -6.38695,8.92687 -3.61324,-1.98823 -4.12851,-1.90482 -4.23253,0.68511 -0.0757,1.88576 -0.24852,1.84265 -1.25257,-0.3125 -0.90022,-1.93228 -1.03567,-1.50649 -0.59646,1.875 0.31253,2.40625 0.9526,6.28871 1.42235,8.62769 0.76652,3.81657 0.59954,4.18612 -1.62824,3.60353 -2.24015,-0.58581 -2.50467,0.0339 -2.7111,6.35113 -0.34116,10.43998 -2.361,10.6573 -2.85049,0.3067 z m 53.21591,3.14106 c -1.05901,-2.75976 0.34989,-4.16867 2.25929,-2.25927 1.12737,1.12737 1.13217,1.82615 0.0201,2.93818 -1.11202,1.11203 -1.65412,0.95057 -2.27942,-0.67891 z M 49.72031,289.75784 c -0.58854,-5.70102 -0.0846,-8.50784 1.52761,-8.50784 0.89505,0 0.36555,12.5532 -0.56893,13.48768 -0.22164,0.22163 -0.65305,-2.01929 -0.95868,-4.97984 z m 16.00981,3.19036 c -0.68547,-1.7863 -0.50058,-1.83208 1.42876,-0.35371 1.21887,0.93395 2.4505,1.85726 2.73695,2.0518 C 70.18229,294.84082 69.53935,295 68.46707,295 c -1.07228,0 -2.30391,-0.92331 -2.73695,-2.0518 z m 18.72525,0.43539 c 0.46941,-1.23278 1.16836,-1.92653 1.55322,-1.54167 0.38486,0.38487 7.9e-4,1.39349 -0.85348,2.24142 -1.23452,1.22532 -1.3781,1.08175 -0.69974,-0.69975 z m 35.57951,-0.21656 c -2.224,-2.67976 0.0633,-8.6857 3.50053,-9.19147 1.83839,-0.27051 2.71459,0.25763 2.71459,1.63628 0,1.11964 -0.53427,1.7055 -1.18729,1.30192 -0.653,-0.40359 -1.80226,0.41531 -2.5539,1.81978 -1.70356,3.18313 1.00113,4.65187 4.81134,2.61271 3.97791,-2.12891 4.83099,-1.49313 1.60387,1.19534 -3.50446,2.91951 -6.79319,3.1509 -8.88914,0.62543 z m 22.34164,-5.11348 c 3.0288,-5.13342 3.23154,-6.05101 1.06098,-4.80191 -0.9078,0.52241 -1.12604,0.42239 -0.52084,-0.23873 0.57293,-0.62585 1.69021,-1.13791 2.48289,-1.13791 0.79266,0 1.64062,-1.03546 1.88435,-2.30101 0.4534,-2.3543 4.51731,-7.07399 6.0911,-7.07399 0.48125,0 0.24396,0.63104 -0.52733,1.40233 -0.77127,0.77127 -1.06942,2.26979 -0.66257,3.33004 0.40686,1.06025 0.21642,1.60431 -0.4232,1.209 -0.63961,-0.39531 -3.12584,2.59778 -5.52493,6.65129 -2.39908,4.05353 -4.83941,7.37843 -5.42294,7.38869 -0.58353,0.01 0.11962,-1.98225 1.5625,-4.4278 z m 11.68397,-2.45742 c -0.0579,-3.82578 0.39541,-5.56747 1.36395,-5.2412 1.76871,0.5958 1.75689,9.95963 -0.0132,10.5497 -0.72173,0.24057 -1.30118,-2.03692 -1.35064,-5.3085 z m -68.48689,3.07071 c -0.45317,-0.73324 -0.55585,-1.60125 -0.22819,-1.92891 0.32766,-0.32767 0.92883,0.27226 1.33594,1.33316 0.84523,2.20264 0.12481,2.59007 -1.10775,0.59575 z M 37.5,286.25 c 0.73588,-1.375 1.84276,-2.5 2.45974,-2.5 0.61699,0 1.47885,-1.125 1.91526,-2.5 0.43641,-1.375 1.59931,-2.5 2.58424,-2.5 2.54924,0 2.21426,1.63415 -0.70924,3.45991 -1.375,0.8587 -2.50861,2.82213 -2.51914,4.36318 -0.0155,2.26745 -0.25028,2.44425 -1.23086,0.92691 -0.80781,-1.25 -1.2181,-1.35416 -1.23086,-0.3125 -0.0105,0.85937 -0.60143,1.5625 -1.31312,1.5625 -0.87731,0 -0.86315,-0.80501 0.044,-2.5 z m 24.3236,1.16684 c -0.45316,-0.73324 -0.55585,-1.60125 -0.22819,-1.92891 0.32766,-0.32767 0.92883,0.27226 1.33594,1.33316 0.84523,2.20264 0.12481,2.59007 -1.10775,0.59575 z m 100.0126,-4.97962 c -1.18776,-1.92185 0.43919,-3.16183 2.04355,-1.55747 0.89772,0.89772 0.91929,1.5969 0.0655,2.12455 -0.6999,0.43256 -1.64899,0.17737 -2.10909,-0.56708 z m 8.8029,-1.96612 c -1.18163,-1.8034 -1.5306,-2.89708 -0.77548,-2.43039 1.44299,0.89183 4.35334,5.70929 3.44912,5.70929 -0.28887,0 -1.492,-1.47551 -2.67364,-3.2789 z m -123.04042,0.0498 c 0.06,-1.45619 0.35618,-1.75237 0.75521,-0.75521 0.36109,0.90234 0.31668,1.98046 -0.0987,2.39583 -0.41536,0.41537 -0.7108,-0.32292 -0.65652,-1.64062 z m 52.5,0 c 0.06,-1.45619 0.35618,-1.75237 0.75521,-0.75521 0.36109,0.90234 0.31668,1.98046 -0.0987,2.39583 -0.41536,0.41537 -0.7108,-0.32292 -0.65652,-1.64062 z m 38.65132,1.05292 c 0,-0.59057 0.49199,-1.60815 1.09331,-2.26127 0.60131,-0.65313 1.37733,-5.6875 1.72448,-11.1875 0.43478,-6.88868 0.29063,-8.78494 -0.46332,-6.0947 -2.18154,7.78413 -7.38702,8.65219 -10.30261,1.71805 -0.87646,-2.08449 -1.92975,-3.45379 -2.34065,-3.04289 -1.31752,1.31751 -5.96263,-1.96695 -5.92146,-4.18694 0.0763,-4.11467 3.3189,-6.85971 7.39618,-6.2613 2.09773,0.30789 3.81407,0.14358 3.81407,-0.36515 0,-0.50871 2.10938,0.102 4.6875,1.35725 3.34179,1.62702 5.1405,1.90708 6.26544,0.97557 1.15851,-0.95932 2.43095,-0.38622 4.78705,2.15606 3.11803,3.36441 3.13022,3.44206 0.4295,2.73581 -2.0864,-0.54561 -2.42297,-0.37024 -1.34955,0.70318 0.78654,0.78653 1.43006,2.5389 1.43006,3.89413 0,1.35524 0.93092,3.49274 2.06874,4.75 1.92557,2.12774 1.92448,2.28593 -0.0157,2.28593 -1.325,0 -3.19323,-2.50704 -5.1275,-6.88075 -3.46757,-7.8408 -6.18865,-9.44015 -15.34388,-9.01855 -5.03184,0.23171 -5.9566,0.66242 -5.9566,2.7743 0,1.81457 0.83334,2.5 3.03945,2.5 2.37861,0 3.26966,0.88327 4.09825,4.0625 1.35854,5.21266 2.9404,5.13232 6.15293,-0.3125 4.18193,-7.08785 5.4872,-5.76151 4.92053,5 -0.33758,6.41136 -2.30693,14.05489 -3.87012,15.02099 -0.66884,0.41336 -1.21605,0.26836 -1.21605,-0.32222 z m -88.65132,-3.55293 c 0.06,-1.45619 0.35618,-1.75238 0.75521,-0.75522 0.36109,0.90234 0.31668,1.98047 -0.0987,2.39584 -0.41536,0.41536 -0.7108,-0.32292 -0.65652,-1.64062 z m 95.00001,0 c 0.06,-1.45619 0.35617,-1.75238 0.7552,-0.75522 0.36108,0.90234 0.31668,1.98047 -0.0986,2.39584 -0.41537,0.41536 -0.7108,-0.32292 -0.65652,-1.64062 z m 8.79631,-0.87257 c -0.0798,-1.22471 0.66304,-2.53681 1.65064,-2.91578 1.5139,-0.58094 1.44443,-1.31434 -0.44279,-4.67438 -2.21265,-3.93942 -2.20454,-4.01088 0.70436,-6.20507 1.61854,-1.22086 2.94279,-3.00404 2.94279,-3.96263 0,-0.95857 0.50276,-2.0536 1.11725,-2.43337 0.61449,-0.37978 1.03636,0.71163 0.9375,2.42535 -0.0989,1.71371 -0.46431,3.11625 -0.81211,3.11672 -0.3478,4.9e-4 -1.37593,1.68073 -2.28474,3.73386 -1.49011,3.36642 -1.37144,4.13358 1.20852,7.8125 1.88674,2.69043 2.13268,3.49537 0.72224,2.36398 -1.81269,-1.45408 -2.14157,-1.45408 -2.1578,0 -0.016,1.43326 -0.20085,1.42859 -1.12341,-0.0284 -0.88725,-1.40122 -1.22346,-1.27839 -1.71085,0.625 -0.54211,2.11713 -0.62201,2.13224 -0.7516,0.14222 z M 148.75,271.875 c 0.85586,-1.03125 2.4385,-1.875 3.51696,-1.875 1.56975,0 1.47689,0.36606 -0.46555,1.83525 -3.17449,2.40106 -5.0312,2.42525 -3.05141,0.0398 z M 90,271.39579 c 0,-0.60732 1.15715,-1.40682 2.57144,-1.77665 2.10996,-0.55178 2.30682,-0.35362 1.09694,1.1042 C 92.01803,272.71189 90,273.08181 90,271.39579 Z m -5,-4.36814 c 0,-2.32229 0.86164,-6.28455 1.91477,-8.80501 1.05312,-2.52048 1.5331,-5.26105 1.06662,-6.09017 -0.57528,-1.02247 -0.42603,-1.10531 0.4639,-0.25747 0.72163,0.6875 1.6245,2.375 2.00638,3.75 0.38189,1.375 0.48907,0.8125 0.23819,-1.25 -0.25087,-2.0625 -0.82523,-5.15625 -1.27634,-6.875 l -0.8202,-3.125 1.90905,3.125 c 2.1617,3.53859 2.56409,10.93922 0.74763,13.75 -1.0059,1.55652 -1.22142,1.45036 -1.26887,-0.625 -0.0543,-2.3759 -0.12346,-2.38594 -1.39301,-0.20214 -0.73473,1.26383 -1.11183,4.21695 -0.838,6.5625 0.3409,2.91999 -0.0142,4.26464 -1.12612,4.26464 -1.01148,0 -1.624,-1.59253 -1.624,-4.22235 z M 51.25,265 c 1.56471,-2.92369 3.20664,-3.21895 4.15514,-0.74721 0.84644,2.2058 -0.16618,3.24721 -3.15745,3.24721 -1.9483,0 -2.11376,-0.4146 -0.99769,-2.5 z m 16.5625,-0.039 c -2.77794,-1.11655 -4.05954,-6.211 -1.5625,-6.211 0.6875,0 1.25,1.125 1.25,2.5 0,3.16706 4.35826,3.38853 6.14988,0.3125 1.04882,-1.80071 1.28082,-1.84491 1.31211,-0.25 0.0373,1.90334 -2.29927,5.01387 -3.64949,4.85826 -0.37812,-0.0436 -1.95312,-0.58795 -3.5,-1.20971 z m 40.97551,0.21771 c -0.022,-0.9821 -0.82109,-1.39574 -1.89801,-0.98249 -1.07489,0.41248 -1.73443,0.0733 -1.5625,-0.80376 0.16362,-0.83457 -0.265,-1.42371 -0.9525,-1.30912 -0.77741,0.12956 -1.25,-5.65973 -1.25,-15.3125 0,-8.53647 0.42188,-15.52084 0.9375,-15.52084 0.51563,0 0.9375,6.1415 0.9375,13.64776 0,15.06971 0.54317,17.79501 3.33326,16.72435 1.5264,-0.58572 1.56539,-0.91714 0.20905,-1.77692 -1.30343,-0.82625 -1.31774,-1.06109 -0.0656,-1.07605 2.29198,-0.0274 3.20917,3.18929 1.66588,5.84244 -0.84633,1.45497 -1.33016,1.65756 -1.3546,0.56718 z m 55.71873,-0.91119 c -0.4184,-1.09033 -0.21444,-2.91846 0.45326,-4.0625 0.96564,-1.65456 1.22175,-1.24902 1.25199,1.98243 0.0416,4.44822 -0.52928,5.14461 -1.70525,2.08007 z M 61.25,262.64754 c 0,-0.6875 0.5625,-1.59764 1.25,-2.02254 0.6875,-0.4249 1.25,-0.21004 1.25,0.47746 0,0.6875 -0.5625,1.59764 -1.25,2.02254 -0.6875,0.4249 -1.25,0.21004 -1.25,-0.47746 z m 20.20005,-6.76484 c -0.12572,-2.98034 -0.78058,-4.66691 -1.76255,-4.53939 -0.85937,0.11163 -2.96875,0.0981 -4.6875,-0.0298 -3.09135,-0.2302 -3.09576,-0.24683 -0.40953,-1.54582 1.99468,-0.96456 3.73662,-0.86111 6.5625,0.38974 2.11587,0.93657 3.84703,2.16125 3.84703,2.7215 0,0.56025 -0.52607,0.6935 -1.16903,0.29612 -0.64297,-0.39738 -1.3967,1.1163 -1.67496,3.36374 -0.49604,4.00643 -0.50982,3.99362 -0.70596,-0.65608 z m -31.84588,2.0548 c -1.33521,-1.33521 -1.00218,-5.19849 0.52975,-6.14526 0.938,-0.57973 1.12258,0.10137 0.57285,2.11372 l -0.81106,2.96904 1.97929,-3.125 1.97929,-3.125 -0.81764,3.125 c -0.98606,3.76874 -2.27671,5.34327 -3.43248,4.1875 z m 103.98958,-2.22085 c -0.25845,-5.32071 -0.40029,-5.76553 -2.1914,-6.87249 -0.94745,-0.58556 -1.33613,-1.69004 -0.86372,-2.45441 0.4724,-0.76436 0.16947,-1.38975 -0.67319,-1.38975 -0.84267,0 -1.21162,-0.32049 -0.8199,-0.7122 0.7397,-0.7397 10.95446,4.04331 10.95446,5.12938 0,0.33901 -2.02079,-0.22797 -4.49064,-1.25994 l -4.49064,-1.8763 3.96348,3.70244 c 4.19647,3.92008 4.62677,7.8216 0.94095,8.53142 -1.58146,0.30456 -2.21569,-0.4573 -2.3294,-2.79815 z m -98.55574,0.26482 c -0.0542,-3.05788 4.46881,-5.31967 5.46204,-2.73135 1.02164,2.66237 0.95708,2.99988 -0.57382,2.99988 -0.72807,0 -0.97613,-0.5625 -0.55123,-1.25 0.4249,-0.6875 0.2048,-1.25 -0.48912,-1.25 -0.69391,0 -1.835,0.98437 -2.53576,2.1875 -1.18717,2.03825 -1.27669,2.04125 -1.31211,0.044 z m 52.09526,0.58103 c -0.44249,-0.80663 -0.29854,-10.38083 0.19733,-13.125 0.0932,-0.51563 1.43503,-0.92889 2.9819,-0.91836 1.61774,0.0113 2.22788,0.40926 1.43629,0.9375 -1.60759,1.07276 -3.1554,8.0377 -1.56822,7.05676 0.58819,-0.36351 1.06943,0.17476 1.06943,1.19617 0,1.02142 -0.98437,2.11437 -2.1875,2.42877 -1.64614,0.43018 -1.49146,0.60755 0.625,0.71666 1.54688,0.0798 2.8125,0.7075 2.8125,1.395 0,1.44475 -4.59873,1.71254 -5.36673,0.3125 z m 53.80423,-2.50924 c -1.20313,-0.26761 -2.1875,-1.00782 -2.1875,-1.64491 0,-1.59675 3.41486,-1.46189 4.4264,0.17481 1.05419,1.70573 0.48896,2.07686 -2.2389,1.4701 z m -63.80336,-9.0392 c 0.35755,-1.36727 1.10606,-2.20413 1.66337,-1.8597 0.55731,0.34444 1.27186,-0.36501 1.58789,-1.57656 0.35059,-1.34405 0.63113,-0.83395 0.7196,1.30848 0.0847,2.05208 -0.37446,3.19022 -1.105,2.73872 -0.6875,-0.4249 -1.25,-0.17685 -1.25,0.55122 0,0.72808 -0.50984,1.32378 -1.13298,1.32378 -0.62313,0 -0.84043,-1.11868 -0.48288,-2.48594 z m -19.39111,-0.27102 c -2.01284,-2.01284 -1.88224,-3.49304 0.3082,-3.49304 2.32344,0 3.28405,1.58947 2.10932,3.49021 -0.71664,1.15956 -1.26014,1.1602 -2.41752,0.002 z M 111.25,238.82377 c 0,-1.41557 -0.49219,-2.57377 -1.09375,-2.57377 -0.60156,0 -1.09375,-1.34616 -1.09375,-2.99146 0,-2.0904 0.61183,-2.87224 2.03125,-2.59564 1.11719,0.2177 2.4933,0.43886 3.05804,0.49146 0.56473,0.0526 0.0675,1.0549 -1.10491,2.22734 -1.37901,1.379 -1.63122,2.29852 -0.71429,2.60416 1.75197,0.58399 1.86055,3.59273 0.16741,4.63914 -0.6875,0.4249 -1.25,-0.38565 -1.25,-1.80123 z M 106.44737,236.25 c 0,-1.71875 0.28371,-2.42188 0.63048,-1.5625 0.34677,0.85937 0.34677,2.26562 0,3.125 -0.34677,0.85937 -0.63048,0.15625 -0.63048,-1.5625 z m -24.69113,-1.43189 c -2.36847,-2.66751 -2.36616,-2.67397 0.43126,-1.20602 1.54688,0.81174 2.8125,2.01857 2.8125,2.68188 0,1.7758 -0.59835,1.50357 -3.24376,-1.47586 z M 100,235.13456 c 0,-0.84266 -0.5625,-1.18446 -1.25,-0.75956 -0.6875,0.4249 -1.25,0.21004 -1.25,-0.47746 0,-0.6875 0.50356,-1.56122 1.11902,-1.94159 1.22055,-0.75435 3.10019,2.99151 2.0354,4.05629 C 100.29449,236.37217 100,235.97722 100,235.13456 Z m 36.875,156.05159 c 8.9375,-3.98554 17.79687,-7.63135 19.6875,-8.1018 C 158.45312,382.6139 160,381.49221 160,380.59172 160,377.94156 158.5757,375 157.29249,375 c -0.65452,0 -0.84637,0.55606 -0.42634,1.23569 0.43792,0.70857 -0.0639,0.91812 -1.17622,0.49126 -1.06971,-0.41049 -1.93993,-0.0906 -1.93993,0.71309 0,0.80162 -0.50395,1.14603 -1.1199,0.76536 -0.61595,-0.38068 -2.72533,0.14516 -4.6875,1.16854 -1.96218,1.02336 -4.30393,1.86412 -5.20388,1.86836 -0.91776,0.004 -1.24461,0.6414 -0.74436,1.45084 0.514,0.83166 0.34658,1.1061 -0.39515,0.64768 -1.39499,-0.86215 -12.68619,2.5115 -14.72421,4.39938 -0.7835,0.72579 -0.31701,0.86841 1.25,0.38216 1.375,-0.42666 0.60385,0.29275 -1.71365,1.59871 -2.31751,1.30595 -5.41126,2.15135 -6.87501,1.87868 -1.46374,-0.27268 -3.71251,0.2815 -4.99728,1.23151 -2.04622,1.51305 -2.12592,2.06356 -0.64265,4.43866 2.05454,3.28985 1.81788,3.3525 22.97859,-6.08377 z M 92.5,392.5 c -1.03125,-0.66645 -2.71875,-1.1808 -3.75,-1.143 -1.23632,0.0452 -1.02343,0.43465 0.625,1.143 3.43636,1.47665 5.40996,1.47665 3.125,0 z m 31.90808,-3.50859 c -0.38486,-0.38486 -1.3935,-8e-4 -2.24141,0.85348 -1.22534,1.23452 -1.08176,1.3781 0.69974,0.69975 1.23278,-0.46942 1.92653,-1.16837 1.54167,-1.55323 z M 80.625,387.5 c -0.4249,-0.6875 -1.44247,-1.24139 -2.26127,-1.23086 -0.89452,0.0113 -0.74034,0.50278 0.38627,1.23086 2.4014,1.55191 2.83413,1.55191 1.875,0 z m 34.35632,-3.6923 c 3.53042,-2.71256 3.13984,-3.68084 -1.64445,-4.0768 -3.9005,-0.32281 -4.01152,-0.73634 -1.12157,-4.17768 3.9395,-4.69115 8.16204,-5.65751 15.53585,-3.55551 11.29858,3.22081 12.21233,3.33872 14.05069,1.81302 0.9831,-0.81592 2.15789,-3.16999 2.61062,-5.2313 0.45274,-2.06131 1.61044,-5.25682 2.57265,-7.10113 0.96221,-1.84431 1.75295,-3.98755 1.75719,-4.76275 0.004,-0.77519 0.85769,-2.11486 1.89656,-2.97705 1.59071,-1.32018 1.61829,-1.78828 0.17468,-2.96556 -3.25598,-2.65528 -3.54906,-5.9454 -0.59838,-6.71703 l 2.72549,-0.71272 -2.85098,-1.05464 c -1.73328,-0.64119 -2.58602,-1.74509 -2.17513,-2.81584 0.3717,-0.96865 0.28987,-3.16685 -0.18185,-4.8849 l -0.85769,-3.12372 -4.24444,4.19851 c -3.49875,3.46089 -3.77326,4.07529 -1.5625,3.49716 2.43236,-0.63607 2.68194,-0.20624 2.68194,4.61915 0,3.6012 -0.70688,5.85708 -2.1875,6.98103 -2.4566,1.86483 -4.13659,2.20927 -3.91448,0.80256 0.42529,-2.69349 -0.3455,-3.02924 -1.98327,-0.86391 -4.09691,5.41661 -0.9451,7.47323 4.67634,3.05141 3.79342,-2.9839 4.24225,-3.05585 4.24225,-0.67999 0,1.00101 -0.60938,1.5218 -1.35418,1.1573 -0.74479,-0.36449 -0.26227,0.22276 1.07225,1.30499 2.16686,1.75722 1.84578,2.54357 -0.86391,2.11572 -0.89603,-0.14147 -1.4259,1.84455 -1.06268,3.98304 0.094,0.55334 -0.75236,2.24084 -1.88077,3.75 -1.86513,2.49446 -1.97935,2.51664 -1.2564,0.24394 0.64791,-2.03681 0.3445,-1.924 -1.63765,0.60889 l -2.43289,3.10888 -3.20362,-3.00965 c -3.66149,-3.43978 -3.2454,-5.38071 0.43873,-2.04661 2.32842,2.10719 2.49119,2.04545 4.41477,-1.67432 1.09846,-2.1242 1.67851,-3.86219 1.28898,-3.86219 -0.38952,0 -4.4821,1.17867 -9.0946,2.61926 -7.14814,2.23254 -9.44759,3.73648 -15.57387,10.1859 -7.23518,7.61683 -8.44915,10.43319 -5.6875,13.19484 2.05289,2.05289 3.59453,1.852 7.23132,-0.9423 z M 45,374.05185 c 0,-1.1593 -0.82656,-1.45797 -2.53456,-0.91589 -1.85935,0.59014 -3.53413,-0.26561 -6.28677,-3.21232 -4.36897,-4.677 -5.77198,-4.13023 -4.15044,1.61749 0.79385,2.81388 2.50406,4.76535 5.49946,6.27526 4.08026,2.05677 4.4433,2.06129 5.90981,0.0736 C 44.29688,376.72523 45,374.99806 45,374.05189 Z m 128.76837,0.80225 c 2.72278,-5.06656 2.52402,-6.9335 -0.90447,-8.49562 -2.65305,-1.20882 -3.53485,-1.22063 -3.9242,-0.0526 -0.27621,0.82864 -1.55689,2.56129 -2.84595,3.85035 -1.47813,1.47813 -1.76666,2.35779 -0.78125,2.38176 0.86349,0.021 0.5802,0.61007 -0.63326,1.31674 -1.70055,0.99033 -1.90984,1.81299 -0.92796,3.64764 1.1408,2.13161 1.65947,2.20422 5.17783,0.72486 2.15053,-0.90422 4.32819,-2.42215 4.83926,-3.37315 z m -133.9858,-5.93938 c -1.59916,-1.9719 -3.12439,-3.3957 -3.38939,-3.164 -0.83718,0.73194 3.60339,6.74928 4.98071,6.74928 0.72394,0 0.008,-1.61338 -1.59132,-3.58528 z M 96.25,369.375 c -0.85586,-1.03125 -2.15725,-1.875 -2.89197,-1.875 -0.73472,0 -0.24397,0.82586 1.09056,1.83525 3.13558,2.37164 3.74792,2.38515 1.80141,0.0398 z m 10,-1.25 2.93579,-3.125 -6.1554,0.0191 c -3.38546,0.01 -5.55186,0.43239 -4.81421,0.9375 0.73764,0.5051 1.70437,1.90273 2.14827,3.10586 1.094,2.96512 2.41724,2.75433 5.88555,-0.9375 z m -32.96516,-5.21256 4.84016,-2.08756 -4.4628,-1.34994 c -2.45455,-0.74247 -5.88101,-2.28887 -7.61438,-3.43644 l -3.15156,-2.0865 2.54129,5.524 c 1.39771,3.0382 2.64611,5.524 2.77422,5.524 0.1281,0 2.41099,-0.9394 5.07307,-2.08756 z M 84.375,362.5 c -0.4249,-0.6875 -1.44247,-1.24139 -2.26127,-1.23086 -0.89452,0.0113 -0.74034,0.50278 0.38627,1.23086 2.4014,1.55191 2.83413,1.55191 1.875,0 z M 33.14177,356.72235 C 32.1013,354.23214 31.25,351.88839 31.25,351.51401 c 0,-0.37437 -0.3142,-0.36647 -0.69823,0.0175 -0.7874,0.7874 2.68286,9.71844 3.77622,9.71844 0.38806,0 -0.14574,-2.03745 -1.18622,-4.52765 z m 61.80471,-3.15898 C 93.5413,348.6638 92.5,347.54696 92.5,350.93944 c 0,1.43335 -0.34388,3.50222 -0.76418,4.5975 -0.58042,1.51257 -0.23055,1.78665 1.45506,1.13981 1.63929,-0.62905 1.95185,-0.41895 1.19604,0.80396 -0.6559,1.06128 -0.53821,1.35583 0.32785,0.82057 0.90007,-0.55627 0.97741,-2.13779 0.23171,-4.73791 z M 116.875,356.25 c 0.4249,-0.6875 0.17685,-1.25 -0.55123,-1.25 -0.72807,0 -1.32377,0.5625 -1.32377,1.25 0,0.6875 0.24805,1.25 0.55123,1.25 0.30318,0 0.89887,-0.5625 1.32377,-1.25 z m -81.72241,-3.34375 c -1.47355,-2.53401 -1.82939,-1.72294 -0.62317,1.42043 0.42869,1.11712 1.04275,1.76782 1.36458,1.44598 0.32184,-0.32184 -0.0118,-1.61172 -0.74141,-2.86641 z m 51.46005,0.84203 c 0.35982,-1.37595 0.14417,-2.1865 -0.47921,-1.80123 C 85.51004,352.33232 85,353.4581 85,354.44877 c 0,2.58719 0.84937,2.21824 1.61264,-0.7005 z M 112.5,355 c 0,-0.6875 -0.24805,-1.25 -0.55123,-1.25 -0.30318,0 -0.89887,0.5625 -1.32377,1.25 -0.4249,0.6875 -0.17684,1.25 0.55123,1.25 0.72807,0 1.32377,-0.5625 1.32377,-1.25 z m 12.41214,-5.3125 c 0.0483,-1.20313 -0.47464,-2.1875 -1.16214,-2.1875 -0.6875,0 -1.21046,2.10937 -1.16214,4.6875 0.0705,3.76025 0.30036,4.19296 1.16214,2.1875 0.59086,-1.375 1.11382,-3.48438 1.16214,-4.6875 z m -6.55825,1.32812 c -0.39903,-0.99716 -0.69523,-0.70097 -0.75521,0.75522 -0.0543,1.3177 0.24116,2.05598 0.65653,1.64062 0.41536,-0.41536 0.45977,-1.4935 0.0987,-2.39584 z m 21.28772,-2.46128 c 2.63059,0.34472 2.989,-0.0446 2.63873,-2.86658 -0.22294,-1.79601 -0.96784,-3.19175 -1.65534,-3.10162 -0.6875,0.0901 -1.07764,0.76532 -0.86698,1.50045 0.24965,0.87112 -0.21779,0.83795 -1.34223,-0.0953 -1.95899,-1.62581 -4.66579,0.23494 -4.66579,3.20744 0,0.93432 -0.55606,1.3551 -1.23569,0.93507 -0.71287,-0.44059 -0.91554,0.0706 -0.47901,1.20814 0.61985,1.6153 1.1007,1.68629 2.65946,0.39264 1.04654,-0.86855 3.27263,-1.39969 4.94685,-1.18029 z m -48.98056,-0.0729 c 0.54437,0.49144 0.58513,0.1904 0.0906,-0.66897 -0.49455,-0.85938 -2.41285,-1.60204 -4.2629,-1.65036 -2.89214,-0.0755 -3.01962,-0.22239 -0.9093,-1.04749 2.16759,-0.84749 2.0215,-1.06329 -1.25,-1.8465 -2.03744,-0.48778 -4.56911,-1.14133 -5.62594,-1.45233 -1.30404,-0.38373 -1.96605,0.33829 -2.0601,2.24687 -0.0762,1.54677 0.1322,2.10918 0.46317,1.24981 0.33098,-0.85938 1.69969,-1.5625 3.04158,-1.5625 2.10791,0 2.24449,0.36497 1.00398,2.68289 -1.28672,2.40425 -1.16146,2.61113 1.20602,1.99202 1.453,-0.37994 2.64184,-0.1612 2.64184,0.48612 0,0.70989 0.92691,0.6809 2.33565,-0.073 1.2846,-0.6875 2.78103,-0.84792 3.3254,-0.35649 z M 129.63781,347.5 c -0.35957,-1.375 -0.092,-2.5 0.59455,-2.5 0.68658,0 2.74329,-1.21293 4.57048,-2.6954 2.42611,-1.9684 2.64786,-2.43439 0.82216,-1.72765 -1.375,0.53225 -4.92726,1.61479 -7.89392,2.40564 -2.96667,0.79084 -5.02105,1.81077 -4.5653,2.26652 0.45575,0.45575 1.65095,0.51309 2.656,0.12742 1.16076,-0.44543 2.08133,0.26997 2.52358,1.96112 0.38292,1.46429 0.97747,2.66235 1.32122,2.66235 0.34375,0 0.33081,-1.125 -0.0288,-2.5 z M 66.94968,341.81354 C 64.33582,337.8243 61.25,337.81763 61.25,341.80124 c 0,3.98679 2.19901,5.31568 2.73834,1.65481 0.37879,-2.5711 0.58784,-2.4531 2.27687,1.28517 1.21955,2.6992 2.003,3.4311 2.27578,2.12604 0.2288,-1.09459 -0.4873,-3.36876 -1.59131,-5.05371 z m -10.38718,1.10861 c -0.85937,-0.34676 -2.26562,-0.34676 -3.125,0 -0.85937,0.34676 -0.15625,0.63049 1.5625,0.63049 1.71875,0 2.42188,-0.28373 1.5625,-0.63049 z M 158.75,342.42623 c 0,-0.72808 0.5625,-0.97613 1.25,-0.55123 1.97157,1.2185 1.45844,-0.82282 -0.84729,-3.37063 -1.99235,-2.20152 -1.76985,-2.62008 4.44687,-8.36536 l 6.54415,-6.04787 -6.63437,-0.86545 c -3.6489,-0.47601 -8.04061,-1.11863 -9.75936,-1.42805 l -3.125,-0.56259 3.25689,1.30144 c 1.79128,0.71579 3.88371,2.67719 4.64985,4.35865 1.18522,2.60129 1.02052,3.25652 -1.1044,4.39375 -1.37355,0.7351 -2.11344,1.95773 -1.64422,2.71696 0.54164,0.87639 0.27518,1.02321 -0.72973,0.40214 -0.9221,-0.56989 -2.03839,-0.25914 -2.674,0.74436 -0.8641,1.36426 -1.09509,1.26975 -1.11025,-0.45426 -0.01,-1.1973 1.03017,-2.83221 2.31267,-3.63314 2.85516,-1.78309 2.11725,-5.59056 -1.25437,-6.47226 -2.25223,-0.58898 -2.4128,-0.0486 -2.07194,6.97272 0.249,5.12909 0.93579,7.79831 2.106,8.18504 1.05315,0.34805 1.39304,0.0181 0.86372,-0.83829 -0.50611,-0.81889 -0.0541,-1.41216 1.076,-1.41216 2.18295,0 2.61668,1.93967 0.69878,3.125 -2.1138,1.3064 -1.38635,3.125 1.25,3.125 1.375,0 2.5,-0.5957 2.5,-1.32378 z M 70,338.02104 c -3.09375,-1.75938 -7.17187,-4.67034 -9.0625,-6.46881 l -3.4375,-3.26995 0,4.53508 c 0,2.4943 0.5625,4.88274 1.25,5.30764 0.6875,0.4249 1.25,0.20914 1.25,-0.47946 0,-1.5212 2.91689,-0.99545 8.75,1.57711 6.79328,2.99602 7.47647,2.33929 1.25,-1.20161 z m 50,-2.42754 c 0,-0.90146 0.18906,-2.38816 0.42013,-3.30376 0.23107,-0.91561 0.18303,-1.23936 -0.10676,-0.71945 -0.28979,0.51991 -1.03491,0.63132 -1.65581,0.24757 -0.62091,-0.38373 -0.79119,0.18243 -0.3784,1.25814 0.41279,1.07571 0.0455,2.8053 -0.81612,3.84354 -1.3047,1.57206 -1.22358,1.75605 0.48516,1.10034 1.12849,-0.43304 2.0518,-1.52492 2.0518,-2.42638 z m -96.83118,-5.50876 c -2.81611,-5.44575 -3.37218,-4.75259 -0.88849,1.10755 1.15207,2.71825 2.26946,4.44388 2.48309,3.83473 0.21363,-0.60915 -0.50394,-2.83317 -1.5946,-4.94228 z m 31.25758,-1.25158 c -0.45317,-0.73324 -2.05637,-1.32487 -3.56267,-1.31473 -2.62661,0.0176 -2.6108,0.0859 0.38627,1.6653 3.43076,1.80801 4.44153,1.69646 3.1764,-0.35057 z M 17.5,312.5 c 0,-0.6875 -0.24805,-1.25 -0.55123,-1.25 -0.30317,0 -0.89887,0.5625 -1.32377,1.25 -0.4249,0.6875 -0.17684,1.25 0.55123,1.25 0.72807,0 1.32377,-0.5625 1.32377,-1.25 z m 182.12917,-2.8125 c 0.81795,-1.824 0.8421,-4.02066 0.0688,-6.25 -1.33765,-3.856 -1.90661,-4.05409 -4.96691,-1.72925 -1.5075,1.1452 -1.75144,2.02131 -0.8217,2.95105 0.92974,0.92974 0.91979,2.0744 -0.0335,3.85566 -1.01477,1.89611 -0.96529,2.69111 0.1967,3.16051 3.05458,1.23393 4.31393,0.78338 5.55669,-1.98797 z m -8.38508,-5.5779 c -1.36201,-2.12411 -1.39729,-2.12139 -0.71348,0.0551 0.39566,1.25935 0.7638,2.94686 0.81808,3.75 0.0712,1.05395 0.26973,1.0386 0.71346,-0.0551 0.33814,-0.83348 -0.03,-2.52098 -0.81806,-3.75 z M 192.5,300.75874 c 0,-0.2702 -0.87296,-0.82625 -1.93993,-1.23569 -1.1124,-0.42686 -1.61415,-0.21731 -1.17622,0.49126 0.73407,1.18776 3.11615,1.75681 3.11615,0.74443 z m 2.46034,-5.08594 c 1.59288,-1.91931 0.39673,-5.06587 -9.28417,-24.4228 -2.23493,-4.46875 -4.7364,-10.18937 -5.55878,-12.71251 -1.73697,-5.32905 -3.9308,-7.54339 -6.1281,-6.18538 -1.17823,0.72819 -0.76795,2.74242 1.70407,8.366 4.1361,9.40917 4.95588,11.41849 6.84675,16.78189 0.84833,2.40625 2.87385,7.15731 4.50115,10.55792 1.62731,3.40062 2.95874,6.91624 2.95874,7.8125 0,2.19232 3.07866,2.06966 4.96034,-0.19762 z m -17.02899,-25.10171 c -0.40711,-1.0609 -1.00829,-1.66083 -1.33594,-1.33316 -0.32766,0.32766 -0.22497,1.19567 0.22819,1.92891 1.23256,1.99432 1.95297,1.60689 1.10775,-0.59575 z M 170,253.98891 c 0,-0.5561 -0.85289,-2.10297 -1.89531,-3.4375 -1.7575,-2.24999 -1.78837,-2.17646 -0.42437,1.01109 1.47177,3.43936 2.31968,4.3263 2.31968,2.42641 z M 119.19639,243.428 c 0.50332,-1.92471 0.292,-2.05951 -1.23798,-0.78975 -1.01469,0.84212 -2.41025,2.5875 -3.10123,3.87861 -1.13053,2.11241 -1.00657,2.19149 1.23798,0.78975 1.37187,-0.85675 2.76742,-2.60212 3.10123,-3.87861 z m 54.31342,4.2469 c 2.63534,-1.67137 -1.86137,-9.79144 -6.27416,-11.32975 -5.36746,-1.8711 -5.98941,1.48064 -1.11898,6.0303 2.13583,1.99516 3.88333,4.24565 3.88333,5.00106 0,1.62485 1.25065,1.73118 3.50981,0.29839 z m -12.81122,-5.83965 c -1.33453,-1.00939 -3.02203,-1.81531 -3.75,-1.79095 -0.72798,0.0244 0.0826,0.84818 1.80141,1.8307 4.04906,2.31466 5.03481,2.29455 1.94859,-0.0397 z M 73.125,228.14247 c 12.42313,-5.06045 20.62252,-8.78418 20.60586,-9.35812 -0.0105,-0.36265 -0.54663,-1.49359 -1.19135,-2.51321 -1.32749,-2.09947 -3.03295,-1.57757 -22.53951,6.89746 -5.84375,2.53895 -13.80572,5.76846 -17.69326,7.17671 -6.57345,2.38121 -6.97902,2.75633 -5.79344,5.35839 l 1.27483,2.79794 10.79343,-4.41583 c 5.93639,-2.4287 12.48094,-5.1032 14.54344,-5.94334 z m 87.36193,7.33455 c -0.39304,-1.50302 -2.54022,-3.20182 -5.26292,-4.16393 -2.52946,-0.89383 -7.41151,-2.93034 -10.84901,-4.52559 -10.6186,-4.92781 -23.62746,-10.2659 -26.25,-10.77151 -1.375,-0.26509 -3.13741,0.35439 -3.91647,1.37661 -1.48374,1.94685 -0.55588,2.45661 18.29147,10.04914 3.78125,1.52325 10.8125,4.36244 15.625,6.3093 9.03332,3.65436 12.30883,4.79917 12.76292,4.46075 0.1446,-0.10775 -0.0359,-1.33843 -0.40099,-2.73477 z M 108.66206,202.5808 c 0.98288,-0.622 1.865,-2.18889 1.96026,-3.48196 0.19913,-2.70287 -2.94258,-3.33055 -7.67138,-1.53267 -2.03293,0.77293 -2.8297,0.74894 -2.3236,-0.07 0.42361,-0.68537 -0.0788,-1.24617 -1.11646,-1.24617 -1.03766,0 -2.43812,0.98437 -3.11214,2.1875 -0.9544,1.7036 -0.6225,2.52334 1.50038,3.7057 3.24347,1.80649 8.27649,2.01111 10.76294,0.4376 z M 92.4493,197.59472 c 1.11547,-2.08426 0.70274,-2.59818 -3.09253,-3.85073 -2.57178,-0.84877 -4.03731,-1.99962 -3.55015,-2.78786 0.51253,-0.82928 0.23652,-0.97583 -0.72207,-0.38339 -1.77556,1.09736 -11.574,-2.92404 -10.67376,-4.38065 0.32596,-0.52742 -0.67374,-0.72392 -2.22157,-0.43665 -1.54782,0.28725 -2.00858,0.15375 -1.0239,-0.29669 2.4938,-1.14076 -9.23838,-5.64005 -11.97175,-4.59116 -1.39352,0.53473 -1.80646,0.32633 -1.22324,-0.61734 0.54534,-0.88236 -0.87697,-2.15889 -3.73686,-3.35383 -5.31005,-2.21868 -5.01509,-2.32282 -6.14238,2.16864 -0.59106,2.35498 -0.37771,3.43494 0.67857,3.43494 1.47439,0 8.72904,3.04415 30.60534,12.8424 11.93898,5.3474 11.46186,5.2652 13.0743,2.25232 z M 65,183.75 c -1.03125,-0.66645 -1.3125,-1.21171 -0.625,-1.21171 0.6875,0 2.09375,0.54526 3.125,1.21171 1.03125,0.66645 1.3125,1.21171 0.625,1.21171 -0.6875,0 -2.09375,-0.54526 -3.125,-1.21171 z m 70.20806,8.21769 c 9.85431,-4.41778 19.46381,-8.41627 21.35444,-8.88552 C 158.45312,182.61291 160,181.49221 160,180.59173 160,177.94156 158.5757,175 157.29249,175 c -0.65452,0 -0.84637,0.55606 -0.42634,1.23569 0.43792,0.70857 -0.0639,0.91812 -1.17622,0.49126 -1.06971,-0.41049 -1.93993,-0.0906 -1.93993,0.71309 0,0.80162 -0.50395,1.14604 -1.1199,0.76536 -0.61595,-0.38068 -2.72533,0.14516 -4.6875,1.16854 -1.96218,1.02336 -4.30393,1.86412 -5.20388,1.86836 -0.91776,0.004 -1.24461,0.6414 -0.74436,1.45084 0.514,0.83166 0.34658,1.1061 -0.39515,0.64768 -1.39499,-0.86215 -12.68619,2.5115 -14.72421,4.39938 -0.7835,0.72579 -0.31701,0.86841 1.25,0.38216 1.375,-0.42666 0.57745,0.30641 -1.77233,1.62905 -2.34977,1.32264 -5.39086,2.11229 -6.75796,1.75479 -1.563,-0.40874 -2.18045,-0.1562 -1.66345,0.68033 0.51035,0.82576 -0.0731,1.09618 -1.53846,0.71299 -1.29836,-0.33952 -2.72444,-0.0287 -3.16907,0.69073 -0.83178,1.34584 1.71412,6.40975 3.22251,6.40975 0.46469,0 8.90751,-3.61454 18.76182,-8.03231 z m -10.79998,-2.97628 c -0.38486,-0.38486 -1.3935,-8e-4 -2.24141,0.85348 -1.22534,1.23452 -1.08176,1.3781 0.69974,0.69975 1.23278,-0.46942 1.92653,-1.16836 1.54167,-1.55323 z M 80.625,187.5 c -0.4249,-0.6875 -1.44247,-1.24139 -2.26127,-1.23086 -0.89452,0.0113 -0.74034,0.50278 0.38627,1.23086 2.4014,1.55191 2.83413,1.55191 1.875,0 z M 45,174.13609 C 45,173.23624 44.41064,172.5 43.69031,172.5 c -0.72032,0 -2.76742,-1.54688 -4.5491,-3.4375 -2.64207,-2.80364 -2.97398,-2.92875 -1.79998,-0.67854 0.79168,1.51744 2.4169,3.32845 3.6116,4.02449 1.43444,0.83572 1.59956,1.27844 0.48618,1.30354 -0.92729,0.0209 -3.33446,-1.72669 -5.34927,-3.88355 -4.28543,-4.58756 -5.67377,-4.00213 -4.06151,1.71268 0.79385,2.81389 2.50406,4.76535 5.49946,6.27527 4.08025,2.05677 4.44329,2.06128 5.90981,0.0736 C 44.29688,176.72522 45,175.03597 45,174.13612 Z m 128.76837,0.71801 c 2.67402,-4.97581 2.51409,-6.93803 -0.68423,-8.39527 -4.05279,-1.84658 -4.33414,-1.82949 -4.33414,0.26312 0,0.94706 -0.83756,2.41705 -1.86124,3.26662 -1.02367,0.84959 -1.51574,2.10373 -1.09346,2.78698 0.47642,0.77087 -0.3589,0.92322 -2.20126,0.40149 -1.99429,-0.56477 -2.42102,-0.46025 -1.29978,0.31833 0.9181,0.63753 1.69284,1.65875 1.72165,2.26938 0.16471,3.49079 1.23363,4.00964 4.99888,2.42647 2.1034,-0.88441 4.24251,-2.38612 4.75358,-3.33712 z M 31.25,161.40716 c 0,-0.60106 -0.84375,-3.48429 -1.875,-6.40716 -2.25603,-6.39428 -2.27483,-6.64465 -0.41258,-5.49371 0.92803,0.57355 1.22295,0.25792 0.80707,-0.86374 -0.36044,-0.97215 -1.63834,-4.75711 -2.83978,-8.41103 -1.20143,-3.65391 -2.4241,-6.4038 -2.71704,-6.11086 -0.29294,0.29294 0.0614,2.09489 0.78733,4.00434 0.72597,1.90945 1.10324,3.68842 0.83837,3.95329 -0.71232,0.71232 -6.37625,-14.94965 -6.04187,-16.70706 C 20.19566,123.27336 16.61084,115 15.3027,115 c -0.59118,0 -2.1029,0.75171 -3.35937,1.67046 -2.15908,1.57876 -1.82576,2.72825 6.07123,20.9375 4.59565,10.59688 8.87911,20.53266 9.51879,22.07954 1.12859,2.72916 3.71665,3.92664 3.71665,1.71966 z m 1.89177,-4.68481 C 32.1013,154.23214 31.25,151.88839 31.25,151.51401 c 0,-0.37437 -0.3142,-0.36647 -0.69823,0.0175 -0.7874,0.7874 2.68286,9.71844 3.77622,9.71844 0.38806,0 -0.14574,-2.03745 -1.18622,-4.52765 z M 23.75,131.48891 c 0,-0.5561 -0.85289,-2.10297 -1.89531,-3.4375 -1.75751,-2.24998 -1.78836,-2.17646 -0.42436,1.01109 1.47176,3.43936 2.31967,4.3263 2.31967,2.42641 z m 168.0222,-22.14934 c 0.43952,-1.75123 0.19374,-4.14717 -0.54621,-5.32432 -1.16587,-1.8547 -1.24977,-1.78704 -0.62884,0.50715 0.39409,1.45607 0.14139,4.16009 -0.56154,6.00893 -0.70292,1.84885 -0.77957,3.05346 -0.17031,2.67692 0.60926,-0.37655 1.46736,-2.11745 1.9069,-3.86868 z m 7.88917,0.73814 c 1.11883,-1.79153 1.16529,-3.41904 0.17842,-6.25 -1.50182,-4.308109 -1.55605,-4.33511 -5.00268,-2.49054 -1.93731,1.03682 -2.18014,1.72081 -1.08107,3.0451 1.01572,1.22388 1.04143,2.41051 0.0907,4.18699 -0.98199,1.83486 -0.92332,2.64204 0.22576,3.10622 2.89202,1.16826 4.07217,0.83088 5.58889,-1.59777 z m -4.85198,-13.998765 c 2.14035,-1.336671 1.99,-2.023267 -2.53195,-11.5625 -2.64409,-5.577795 -5.91704,-12.206619 -7.27323,-14.730721 -1.35619,-2.524101 -3.63986,-7.727226 -5.07481,-11.5625 -2.68028,-7.163668 -3.16903,-7.655583 -5.89021,-5.928401 -1.2199,0.774288 -0.73304,2.887303 2.10996,9.157413 2.03267,4.48298 5.12782,12.249705 6.87811,17.259389 1.75028,5.009685 3.67635,9.73961 4.28018,10.510946 0.60381,0.771337 1.46737,2.949304 1.91901,4.839929 0.89619,3.751491 2.10537,4.188224 5.58294,2.016445 z M 183.27287,84.17301 c -1.05753,-1.951405 -1.9453,-3.152602 -1.97282,-2.669326 -0.0846,1.485842 2.82345,7.28948 3.37583,6.737108 0.28587,-0.285875 -0.34548,-2.116377 -1.40301,-4.067782 z M 168.90511,50.916666 c -1.23452,-1.225333 -1.3781,-1.081753 -0.69975,0.699744 0.46941,1.232776 1.16836,1.926526 1.55323,1.541666 0.38486,-0.384859 8e-4,-1.393492 -0.85348,-2.24141 z m 4.50048,-3.57225 c 2.22243,-2.222436 -1.85759,-9.49597 -6.16994,-10.999262 -5.04255,-1.757843 -6.27972,1.637891 -1.94516,5.339022 1.73322,1.479953 3.48426,3.675199 3.89119,4.878324 0.8542,2.525554 2.22627,2.779547 4.22391,0.781916 z M 160.625,41.25 c -0.4249,-0.6875 -1.44248,-1.241386 -2.26128,-1.230859 -0.89451,0.0115 -0.74033,0.502784 0.38628,1.230859 2.4014,1.551906 2.83412,1.551906 1.875,0 z M 90.3125,21.033581 c 3.85432,-1.433128 4.12096,-2.159167 1.875,-5.105507 -1.4419,-1.891545 -1.94842,-1.870104 -6.5625,0.277801 -7.70339,3.58601 -30.7096,13.278544 -35.81626,15.089421 -4.07514,1.445086 -4.43225,1.913383 -3.32023,4.353991 1.23452,2.709475 1.42687,2.660488 20.81626,-5.301407 10.76363,-4.419885 21.11711,-8.611319 23.00773,-9.314299 z m 70.1939,14.517913 c -0.39811,-1.522402 -3.12641,-3.48261 -7.13791,-5.128412 -3.57143,-1.465243 -11.27474,-4.733486 -17.11849,-7.26276 -18.75803,-8.118794 -20.10761,-8.490982 -21.90007,-6.039642 -1.66253,2.273644 -1.26424,2.500132 18.15007,10.321057 3.78125,1.523253 10.92319,4.461206 15.87099,6.528786 4.94778,2.067579 9.58841,3.393093 10.3125,2.945584 C 159.40756,36.4686 160,36.791905 160,37.634562 c 0,0.842658 0.25894,1.273165 0.57542,0.956683 0.31648,-0.316481 0.28543,-1.684369 -0.069,-3.039751 z M 85.61615,26.264317 C 86.05407,25.555742 85.55235,25.346184 84.43992,25.773054 82.2744,26.604042 81.87819,27.5 83.67623,27.5 c 0.64693,0 1.51989,-0.556057 1.93992,-1.235683 z M 88.125,184.10866 c -1.375,-0.33072 -3.04492,-1.11977 -3.71094,-1.75342 -1.30639,-1.24293 5.63666,-0.19443 9.96094,1.50425 2.2278,0.87512 2.15975,0.97489 -0.625,0.91627 -1.71875,-0.0361 -4.25,-0.33636 -5.625,-0.6671 z m -8.35937,-3.71255 c 0.90234,-0.36109 1.98046,-0.31669 2.39583,0.0986 0.41536,0.41536 -0.32292,0.7108 -1.64063,0.65652 -1.45617,-0.06 -1.75237,-0.35617 -0.7552,-0.7552 z m -6.75939,-9.45861 -2.38124,-2.8125 2.8125,2.38124 c 2.64306,2.23777 3.38155,3.24376 2.38124,3.24376 -0.2372,0 -1.50283,-1.26563 -2.8125,-2.8125 z m 59.61925,-0.56815 c 0.91018,-1.51561 1.92394,-2.48659 2.25278,-2.15774 0.32885,0.32885 -0.41583,1.56889 -1.65487,2.75565 -2.15243,2.06161 -2.17906,2.03498 -0.59791,-0.59791 z m -65.67961,-3.14749 c -2.68691,-3.8361 -2.50363,-11.32964 0.34005,-13.90312 2.45857,-2.22498 4.56142,-2.79654 3.40505,-0.9255 -0.3886,0.62877 -0.25774,1.3319 0.29082,1.5625 0.54855,0.2306 -0.1081,1.50129 -1.45923,2.82377 -2.11437,2.06955 -2.34129,2.10404 -1.6289,0.24758 0.53685,-1.399 0.34616,-1.85933 -0.54264,-1.31002 -1.61261,0.99664 -0.44631,10.1845 1.60685,12.65842 0.74153,0.89347 1.03,1.62451 0.64106,1.62451 -0.38895,0 -1.58283,-1.25016 -2.65306,-2.77814 z m 55.86662,1.42072 C 117.14537,166.50264 121.65148,155 128.15691,155 c 3.46254,0 9.34309,2.44995 9.34309,3.8925 0,0.54518 -1.62863,0.0565 -3.61916,-1.08589 -4.48848,-2.57603 -9.38122,-0.81947 -11.66228,4.18691 -1.27968,2.80859 -1.16232,3.52334 0.81608,4.96998 1.64402,1.20214 2.9822,1.33026 4.63803,0.44409 3.61452,-1.93443 2.74258,-3.67814 -1.42267,-2.84509 -4.45429,0.89086 -4.91322,-0.89929 -1.18606,-4.62644 2.64261,-2.64261 7.05596,-2.37479 8.97942,0.54491 1.62558,2.46755 0.93545,3.97085 -0.78342,1.70653 -1.89627,-2.49801 -5.18769,-2.87469 -6.5043,-0.74436 -0.49055,0.79372 -0.35626,1.11208 0.29841,0.70747 1.89869,-1.17345 4.63159,1.16118 3.8237,3.26646 -1.12084,2.92087 -4.88516,4.42632 -8.06525,3.2255 z m -53.4889,-2.47574 c -0.45316,-0.73324 -0.55585,-1.60125 -0.22819,-1.92891 0.32766,-0.32767 0.92883,0.27226 1.33594,1.33316 0.84523,2.20264 0.12481,2.59007 -1.10775,0.59575 z m 71.59041,-1.26704 c 0.44202,-1.69025 1.00863,-2.25688 1.32069,-1.32069 0.3006,0.9018 -0.0478,2.23395 -0.77414,2.96033 -0.92758,0.92758 -1.09026,0.43955 -0.54655,-1.63964 z m -48.20562,-0.88809 c -2.09943,-0.33319 -3.75957,-2.27337 -5.92529,-6.92479 -1.65477,-3.55406 -3.01417,-7.12422 -3.02089,-7.93369 -0.007,-0.80948 -1.46896,-2.61765 -3.24944,-4.01818 l -3.23722,-2.5464 3.22576,-2.98955 c 4.73705,-4.39015 13.80759,-8.88177 16.13363,-7.98919 1.11172,0.4266 3.738,4.1764 5.83618,8.33287 6.16826,12.21927 7.53662,10.21868 7.51181,-10.98252 -0.009,-8.02189 -0.34264,-15.79888 -0.74057,-17.28219 -0.69364,-2.58563 -5.69226,-5.21338 -5.13713,-2.70056 0.4787,2.16686 -11.50477,6.15462 -15.97494,5.31601 C 80.80673,112.91961 79.87055,108.6086 80.27593,78.125 L 80.625,51.875 97.5,51.085167 c 9.28125,-0.434407 17.04882,-0.856282 17.26127,-0.9375 0.21245,-0.08122 -0.0184,-0.850792 -0.51291,-1.710167 -0.49454,-0.859375 -0.43887,-1.145505 0.12372,-0.635845 0.56259,0.50966 1.70648,0.35933 2.54197,-0.334066 2.50762,-2.081141 5.02057,-0.190435 8.3595,6.289569 1.73985,3.376598 3.51505,5.787573 3.9449,5.357723 C 129.6483,58.68503 130,59.165594 130,60.182802 c 0,1.017209 -1.54688,3.301233 -3.4375,5.075609 -3.07181,2.882938 -4.66755,3.281214 -15,3.743835 C 105.20312,69.286977 100,69.135992 100,68.666722 c 0,-0.46927 4.80675,-1.105508 10.68167,-1.413862 9.26276,-0.486171 11.04774,-0.957454 13.4375,-3.547855 2.43643,-2.640995 2.45468,-2.739058 0.1574,-0.846108 -2.04543,1.685438 -5.10469,2.14183 -14.375,2.144523 L 98.125,65.00682 97.80383,72.815899 C 97.62719,77.110914 97.20355,83.15625 96.8624,86.25 c -0.4828,4.378343 -0.0806,6.260196 1.81489,8.491044 1.9306,2.272205 2.90265,2.595915 4.69143,1.56232 C 107.71826,93.790114 117.72951,90 120.01851,90 c 1.27119,0 3.598,1.807062 5.17068,4.015695 2.77541,3.897697 2.8547,4.788406 2.69821,30.312505 l -0.16121,26.2968 -7.92559,3.89872 c -17.00261,8.36388 -22.35786,10.23934 -27.09221,9.48799 z m 8.10078,-7.34862 c 7.24918,-2.90205 7.97348,-3.47083 5.55784,-4.36444 -1.52769,-0.56513 -2.47968,-1.50958 -2.11554,-2.09877 0.36414,-0.5892 -0.33437,-2.14083 -1.55225,-3.44808 -1.21788,-1.30724 -2.39082,-2.9393 -2.60653,-3.6268 -2.5511,-8.13086 -4.38114,-9.21773 -10.29237,-6.11268 l -4.17532,2.19322 3.125,0.81033 c 3.0425,0.78895 3.01774,0.83507 -0.9375,1.74655 -2.23438,0.51492 -4.0625,1.12034 -4.0625,1.34538 0,1.18236 7.49544,16.8922 8.05957,16.8922 0.36527,0 4.41509,-1.50161 8.9996,-3.33691 z M 115,155 c 1.03125,-0.66645 1.3125,-1.21171 0.625,-1.21171 -0.6875,0 -2.09375,0.54526 -3.125,1.21171 -1.03125,0.66645 -1.3125,1.21171 -0.625,1.21171 0.6875,0 2.09375,-0.54526 3.125,-1.21171 z m -3.59056,-5.9375 c 1.49204,-1.90249 1.47127,-2.00145 -0.15944,-0.75951 -1.03125,0.7854 -3,1.70452 -4.375,2.0425 -2.37453,0.58367 -2.36653,0.62178 0.15944,0.75951 1.4627,0.0798 3.43145,-0.83938 4.375,-2.0425 z m 9.84056,-1.48624 c 3.09818,-2.19869 3.12793,-2.40002 3.46622,-23.46084 0.48797,-30.379061 -0.95209,-33.679217 -12.48041,-28.60132 l -4.11081,1.810694 4.375,-0.5808 c 4.02622,-0.534498 3.83906,-0.328214 -2.3478,2.587603 C 101.47694,103.42018 97.5,103.5124 97.5,99.625 97.5,98.04375 96.93143,96.181431 96.23651,95.486515 94.51197,93.761969 93.68013,66.05763 95.29299,64.0625 96.13916,63.01578 100.3798,62.5 108.13958,62.5 c 9.34427,0 12.12722,-0.440311 14.39637,-2.27776 2.70799,-2.192792 2.73367,-2.398704 0.68849,-5.52004 -2.48387,-3.790869 -5.28653,-5.172026 -6.50254,-3.204473 -0.55041,0.890569 -0.22855,1.061892 0.89746,0.477712 0.9656,-0.500958 0.70836,-0.05799 -0.57165,0.984385 -1.28001,1.042368 -5.21751,2.209122 -8.75,2.592786 -11.84629,1.286624 -22.165,1.564622 -21.16438,0.570194 0.54542,-0.542045 4.36667,-1.191311 8.49167,-1.442814 6.62266,-0.403787 6.29367,-0.484927 -2.8125,-0.693635 L 82.5,53.75 82.507,77.1875 c 0.007,22.090721 1.09069,31.79826 3.73357,33.43165 0.63138,0.39022 4.5311,-0.71446 8.66605,-2.45483 6.56302,-2.76234 18.09495,-4.4992 16.00655,-2.41079 -0.41444,0.41444 -0.26847,2.02932 0.32437,3.58862 0.59285,1.55931 1.21917,11.63272 1.39183,22.38536 0.30694,19.11512 0.3716,19.53375 2.90479,18.80837 1.42495,-0.40806 3.99709,-1.73988 5.71584,-2.95962 z M 85.37458,96.25 c 0,-3.78125 0.23433,-5.328125 0.52074,-3.4375 0.2864,1.890625 0.2864,4.984375 0,6.875 -0.28641,1.89063 -0.52074,0.34375 -0.52074,-3.4375 z M 83.76914,85.386271 C 83.77967,84.830072 84.33356,83.53125 85,82.5 86.04425,80.884141 86.21436,80.917135 86.23086,82.738729 86.24136,83.90128 85.6875,85.200101 85,85.625 c -0.6875,0.424899 -1.24139,0.31747 -1.23086,-0.238729 z m 16.88894,23.605139 c -0.38486,-0.38486 -1.3935,-7.9e-4 -2.24141,0.85348 -1.22534,1.23452 -1.08176,1.3781 0.69974,0.69974 1.23278,-0.46941 1.92653,-1.16836 1.54167,-1.55322 z m 1.50338,-8.49662 c -0.41537,-0.41536 -1.49349,-0.45977 -2.39583,-0.0987 -0.99717,0.39904 -0.70097,0.69523 0.7552,0.75521 1.31771,0.0543 2.05599,-0.24116 1.64063,-0.65652 z m 4.74662,-2.75338 c -0.38486,-0.384859 -1.3935,-7.93e-4 -2.24141,0.85348 -1.22534,1.23452 -1.08176,1.3781 0.69974,0.699744 1.23278,-0.469414 1.92653,-1.168365 1.54167,-1.553224 z m 7.75338,-44.746619 c -0.41537,-0.415363 -1.49349,-0.459772 -2.39583,-0.09869 -0.99717,0.399032 -0.70097,0.695228 0.7552,0.755209 1.31771,0.05427 2.05599,-0.241161 1.64063,-0.656526 z M 73.88035,162.60701 c -1.14926,-0.72771 -1.40318,-1.89426 -0.74405,-3.41836 0.86403,-1.99788 1.06769,-2.03751 1.49218,-0.29039 0.27036,1.1128 1.73019,2.6216 3.24405,3.3529 2.59154,1.2519 2.6063,1.33346 0.25247,1.3951 -1.375,0.036 -3.28509,-0.43166 -4.24465,-1.03925 z m 96.21834,-1.58712 c -0.0831,-0.71983 2.75197,-7.97809 7.47791,-19.14489 0.58191,-1.375 1.7172,-4.82944 2.52284,-7.67653 0.80563,-2.84708 2.82618,-6.78458 4.4901,-8.74999 l 3.02528,-3.57348 -1.9835,4.09921 c -1.09091,2.25457 -1.59233,4.7321 -1.11427,5.50564 0.49886,0.80717 0.31115,1.06151 -0.44058,0.59692 -1.61121,-0.99578 -3.10002,4.37438 -2.08245,7.5114 0.63139,1.94642 0.52313,2.00772 -0.72721,0.41183 -1.19539,-1.52574 -1.33291,-1.24896 -0.73832,1.48589 0.40187,1.8485 0.17256,3.70583 -0.50959,4.12742 -0.71626,0.44269 -0.97355,-0.18509 -0.60898,-1.48588 0.34722,-1.23884 -0.4903,-0.002 -1.86112,2.74757 -1.37083,2.75 -2.2303,5.73234 -1.90993,6.62743 0.32038,0.89507 0.0854,1.32018 -0.52221,0.94467 -1.42102,-0.87825 -2.88324,2.86031 -1.80259,4.60884 0.46109,0.74605 0.23527,0.96758 -0.51417,0.50441 -0.73501,-0.45426 -1.62126,-0.11925 -1.96945,0.74436 -0.3482,0.86367 -0.67749,1.18549 -0.73176,0.71518 z M 53.80756,155.13895 c -0.84092,-2.03016 -1.26314,-4.72008 -0.93826,-5.97758 0.46351,-1.7941 0.62192,-1.66312 0.7357,0.6083 0.0797,1.59208 0.75307,4.03088 1.49628,5.41957 0.7432,1.38868 1.10016,2.77598 0.79325,3.0829 -0.30691,0.30691 -1.24605,-1.10303 -2.08697,-3.13319 z M 143.75,143.125 c 0,-3.32291 0.22882,-5.80729 0.50851,-5.52084 0.96665,0.99008 1.28915,9.76484 0.39186,10.66213 -0.4952,0.49521 -0.90037,-1.81838 -0.90037,-5.14129 z M 66.80254,139.04336 C 64.29141,137.29954 61.25,131.93519 61.25,129.24992 c 0,-1.4816 0.85436,-3.40287 1.89858,-4.26949 1.64414,-1.36451 1.74928,-1.17563 0.78456,1.40945 -1.38943,3.72312 0.26526,8.50432 3.94355,11.39482 2.62491,2.06274 1.67932,3.17076 -1.07415,1.25866 z m 8.68658,-3.2603 c 2.13723,-2.31931 4.12612,-4.00095 4.41975,-3.73696 0.64551,0.58035 -6.27585,7.9539 -7.46611,7.9539 -0.46174,0 0.90913,-1.89763 3.04636,-4.21694 z M 52.69737,136.25 c 0,-1.71875 0.28371,-2.42188 0.63048,-1.5625 0.34677,0.85937 0.34677,2.26562 0,3.125 -0.34677,0.85937 -0.63048,0.15625 -0.63048,-1.5625 z m 103.48442,-3.19761 c -2.78511,-2.96461 -2.8149,-3.21998 -0.85488,-7.33019 2.24357,-4.70481 6.59432,-6.87119 8.86142,-4.4124 1.11606,1.21043 0.94218,1.38394 -0.77918,0.77753 -2.64598,-0.93216 -7.15915,3.11043 -7.15915,6.41267 0,4.67677 6.69701,7.02394 11.25,3.94289 1.39301,-0.94267 0.91104,-1.09102 -1.875,-0.57712 -3.25681,0.60075 -3.38285,0.52987 -0.95831,-0.53903 1.91585,-0.84465 2.56514,-1.9321 2.06957,-3.46625 -0.54821,-1.6972 -0.42913,-1.82519 0.49452,-0.53155 1.02713,1.43858 1.3357,1.43858 1.98137,0 0.42063,-0.93717 0.42845,-0.36788 0.0174,1.2651 -0.56952,2.26243 -0.34367,2.7421 0.94903,2.01547 0.93303,-0.52446 0.57142,0.17874 -0.80358,1.56266 -1.375,1.38394 -4.2567,2.83925 -6.40379,3.23404 -3.08985,0.56814 -4.50544,0.0774 -6.78943,-2.35382 z M 143.75,132.5057 c 0,-5.83329 4.23026,-16.42826 7.44725,-18.65213 3.51175,-2.42765 7.55275,-4.11751 7.55275,-3.1584 0,0.33919 -1.37684,1.14018 -3.05962,1.77997 -4.07419,1.54901 -6.41791,5.38061 -8.73268,14.27657 -2.13629,8.21003 -3.2077,10.13193 -3.2077,5.75399 z m 15.20328,-2.09806 c -1.65314,-2.954 -0.27254,-6.65764 2.48174,-6.65764 3.51198,0 4.1366,3.17837 1.20146,6.11352 -2.28688,2.28688 -2.67576,2.34433 -3.6832,0.54412 z M 163.125,127.5 c 0.4249,-0.6875 0.21004,-1.25 -0.47746,-1.25 -0.6875,0 -1.59764,0.5625 -2.02254,1.25 -0.4249,0.6875 -0.21004,1.25 0.47746,1.25 0.6875,0 1.59764,-0.5625 2.02254,-1.25 z m -89.12167,1.43303 c -1.29527,-0.82166 -1.23237,-1.35179 0.3125,-2.63393 1.0638,-0.88286 1.93417,-1.30109 1.93417,-0.92939 0,0.3717 0.34143,1.56558 0.75874,2.65305 0.82529,2.15068 -0.44396,2.5351 -3.00541,0.91027 z M 57.5,126.32378 c 0,-0.64693 0.55606,-1.5199 1.23568,-1.93993 0.70858,-0.43792 0.91814,0.0638 0.49127,1.17622 C 58.39596,127.7256 57.5,128.12181 57.5,126.32378 Z m 11.42023,-1.63628 c -0.17404,-3.51435 1.47396,-4.5835 3.07414,-1.99436 0.53158,0.86012 0.34499,1.10512 -0.46187,0.60646 -0.78095,-0.48266 -1.584,0.3612 -1.8979,1.99436 -0.47092,2.45008 -0.56705,2.36846 -0.71437,-0.60646 z m 12.42845,0.83334 c 0.06,-1.45619 0.35618,-1.75238 0.75521,-0.75521 0.36109,0.90233 0.31668,1.98046 -0.0987,2.39583 -0.41536,0.41537 -0.7108,-0.32292 -0.65652,-1.64062 z M 173.125,125 c 0.4249,-0.6875 1.0206,-1.25 1.32377,-1.25 0.30318,0 0.55123,0.5625 0.55123,1.25 0,0.6875 -0.5957,1.25 -1.32378,1.25 -0.72807,0 -0.97612,-0.5625 -0.55122,-1.25 z m -2.85873,-8.78813 c -0.8718,-1.39597 -3.26881,-2.87488 -5.32668,-3.28645 C 161.29134,112.19577 158.49676,110 161.21637,110 c 3.12675,0 9.93188,3.72423 11.22699,6.14418 1.7953,3.35453 -0.0879,3.41308 -2.17709,0.0677 z m -31.20377,-1.25082 c -1.54688,-0.62177 -2.8125,-1.46777 -2.8125,-1.88 0,-0.41224 1.26562,-0.33294 2.8125,0.17622 1.54687,0.50916 4.10901,0.83206 5.69362,0.71756 1.63057,-0.11783 2.54804,0.33077 2.11374,1.03349 -0.92749,1.5007 -4.00255,1.48208 -7.80736,-0.0473 z M 17.47493,111.84479 c -0.86965,-1.04786 -1.26535,-2.22104 -0.87933,-2.60705 0.38602,-0.38602 1.32971,0.47132 2.0971,1.9052 1.63731,3.05934 1.0295,3.40965 -1.21777,0.70185 z m -4.25764,-2.94545 c -0.48326,-0.78194 -0.49411,-2.6333 -0.0241,-4.11414 0.75759,-2.38693 0.98654,-2.45658 2.0178,-0.61382 1.37399,2.45519 -0.56153,7.04523 -1.99368,4.72796 z m 55.70294,-2.88046 c -0.0936,-2.53337 -0.73103,-6.081145 -1.41645,-7.883941 -0.76753,-2.018748 -0.78612,-2.993454 -0.0484,-2.537526 1.57661,0.974397 2.91052,8.287197 2.19826,12.051347 -0.39319,2.07795 -0.61455,1.58601 -0.7334,-1.62988 z m 75.14227,0.0283 c 1.89062,-0.69052 3.4375,-2.00635 3.4375,-2.92408 0,-2.62741 -1.40875,-5.62307 -2.64433,-5.62307 -0.61977,0 -0.43305,1.11096 0.41494,2.468801 2.44654,3.917549 -0.45576,6.016439 -4.58142,3.313199 -5.98054,-3.918591 -2.89215,-14.532 4.22863,-14.532 1.93934,0 4.2182,0.833969 5.06414,1.853264 1.31856,1.588772 0.85748,1.811766 -3.23082,1.5625 -4.1184,-0.251104 -5.00288,0.186956 -6.48429,3.211545 -1.86071,3.799022 -0.44215,7.122691 3.04002,7.122691 1.42187,0 1.3661,-0.58706 -0.29682,-3.125 -1.99234,-3.040694 -1.9648,-3.125 1.02055,-3.125 3.74041,0 6.10439,4.34513 4.59044,8.4375 -0.75288,2.03508 -2.00179,2.78522 -4.51827,2.71382 l -3.47777,-0.0987 3.4375,-1.25548 z M 28.25874,104.27277 c -0.41731,-1.08748 -0.74639,-6.009359 -0.73129,-10.937504 0.0379,-12.358519 4.28455,-21.168069 11.41801,-23.686125 1.13876,-0.401971 -0.36496,1.704569 -3.34159,4.6812 -6.21721,6.217205 -7.72603,12.064963 -6.31986,24.493883 0.82891,7.326576 0.45595,9.308556 -1.02527,5.448546 z m 31.29238,-1.73431 c 1.20585,-2.04135 2.45726,-3.446753 2.78089,-3.123119 0.84536,0.845359 -2.54063,6.834659 -3.86391,6.834659 -0.61019,0 -0.12283,-1.67019 1.08302,-3.71154 z M 41.85613,98.272643 c -1.25131,-2.994797 -1.43667,-5.376718 -0.63575,-8.169357 1.36082,-4.744905 5.52033,-11.681942 8.40967,-14.025263 1.4459,-1.172661 1.80751,-1.216422 1.16113,-0.140523 -0.53952,0.898018 -0.31067,1.5625 0.53811,1.5625 1.08045,0 1.04599,0.519122 -0.12839,1.934167 -1.29016,1.554544 -1.83073,1.615879 -2.75416,0.3125 -0.77315,-1.091243 -0.92846,-0.596128 -0.47485,1.513718 C 48.74807,84.870629 47.68713,86.875 45,86.875 c -2.87526,0 -3.2675,10.205069 -0.50938,13.25276 1.35589,1.49824 1.59143,2.37224 0.63933,2.37224 -0.82913,0 -2.30235,-1.90231 -3.27382,-4.227357 z M 135.19736,98.75 c 0,-1.71875 0.28373,-2.421875 0.63049,-1.5625 0.34676,0.859375 0.34676,2.265625 0,3.125 -0.34676,0.85938 -0.63049,0.15625 -0.63049,-1.5625 z M 47.72947,91.5625 c 0.28975,-2.518139 1.18629,-3.549383 3.3522,-3.855831 1.62617,-0.230083 3.49694,0.121937 4.15728,0.782278 0.76748,0.767479 0.10279,0.990748 -1.84248,0.618887 -2.05181,-0.392229 -3.29957,0.08666 -3.83046,1.470143 -0.43305,1.128528 -0.29026,1.744633 0.31733,1.369124 0.60758,-0.375507 1.42724,0.157778 1.82145,1.185079 C 52.19597,94.41219 51.62099,95 49.87774,95 c -2.0376,0 -2.46509,-0.684033 -2.14827,-3.4375 z m 84.84977,-0.325272 c -0.0784,-3.102029 5.75545,-10.819204 7.13551,-9.43915 0.39147,0.391478 -0.4754,1.975475 -1.9264,3.519992 -1.451,1.544516 -3.19881,4.214174 -3.88404,5.932571 l -1.24585,3.124359 -0.0793,-3.137772 z m 7.04991,-15.651509 C 138.39392,73.888574 137.88486,72.5 138.49791,72.5 c 1.25421,0 5.25209,4.118784 5.25209,5.410926 0,1.750252 -1.95928,0.644725 -4.12085,-2.325207 z M 47.5,67.066513 c 0,-0.266364 2.23585,-1.963915 4.96856,-3.772338 2.73271,-1.808421 6.12562,-5.398795 7.5398,-7.978608 C 61.70439,52.221579 62.29198,51.68869 61.73463,53.75 60.3278,58.953025 57.36769,62.51669 52.30906,65.097413 49.66407,66.446781 47.5,67.332876 47.5,67.066513 Z M 68.84868,40.520834 c 0.06,-1.456179 0.35618,-1.752375 0.75521,-0.755209 0.36109,0.902344 0.31668,1.980469 -0.0987,2.395834 -0.41536,0.415363 -0.7108,-0.322918 -0.65652,-1.640625 z"
     id="path4819"
     inkscape:connector-curvature="0" />
</svg>
