<?xml version="1.0" encoding="UTF-8" standalone="no"?>
<!-- Created with Inkscape (http://www.inkscape.org/) -->

<svg
   xmlns:dc="http://purl.org/dc/elements/1.1/"
   xmlns:cc="http://creativecommons.org/ns#"
   xmlns:rdf="http://www.w3.org/1999/02/22-rdf-syntax-ns#"
   xmlns:svg="http://www.w3.org/2000/svg"
   xmlns="http://www.w3.org/2000/svg"
   xmlns:sodipodi="http://sodipodi.sourceforge.net/DTD/sodipodi-0.dtd"
   xmlns:inkscape="http://www.inkscape.org/namespaces/inkscape"
   id="svg4269"
   version="1.1"
   inkscape:version="0.91 r13725"
   width="211.25"
   height="410"
   viewBox="0 0 211.25 410"
   sodipodi:docname="5coins-2simplify.svg">
  <metadata
     id="metadata4275">
    <rdf:RDF>
      <cc:Work
         rdf:about="">
        <dc:format>image/svg+xml</dc:format>
        <dc:type
           rdf:resource="http://purl.org/dc/dcmitype/StillImage" />
        <dc:title></dc:title>
      </cc:Work>
    </rdf:RDF>
  </metadata>
  <defs
     id="defs4273">
    <inkscape:perspective
       sodipodi:type="inkscape:persp3d"
       inkscape:vp_x="0 : 205 : 1"
       inkscape:vp_y="0 : 1000 : 0"
       inkscape:vp_z="211.25 : 205 : 1"
       inkscape:persp3d-origin="105.625 : 136.66667 : 1"
       id="perspective5446" />
  </defs>
  <sodipodi:namedview
     pagecolor="#ffffff"
     bordercolor="#666666"
     borderopacity="1"
     objecttolerance="10"
     gridtolerance="10"
     guidetolerance="10"
     inkscape:pageopacity="0"
     inkscape:pageshadow="2"
     inkscape:window-width="1720"
     inkscape:window-height="1188"
     id="namedview4271"
     showgrid="false"
     inkscape:zoom="2.302439"
     inkscape:cx="105.625"
     inkscape:cy="205"
     inkscape:window-x="65"
     inkscape:window-y="24"
     inkscape:window-maximized="0"
     inkscape:current-layer="svg4269" />
  <path
     style="fill:#000000"
     d="M 96.25,404.83786 C 76.410711,397.29953 57.306465,387.94313 37.320432,380.77699 22.510019,367.4812 21.676873,345.79015 11.862049,329.28755 0.44959755,312.6059 6.2029462,293.62396 15.536216,277.75887 c 3.189051,-7.31867 17.347319,-32.51795 9.265445,-12.3978 -2.535829,8.70683 -18.0504363,25.69935 -9.261446,30.33821 9.473627,-10.94976 10.622941,-27.99728 17.42721,-40.91155 -4.021723,-1.87715 -7.933399,-7.17174 -1.443662,-8.96679 5.307716,10.27755 21.429768,-18.17994 5.661107,-8.18012 -6.688958,1.84225 9.463131,-11.28904 15.082098,-9.80098 13.941275,-7.26702 40.56331,-13.95518 46.661126,-21.42755 C 82.747787,199.42365 66.471094,192.56102 50.223567,185.8273 33.289921,184.06756 26.788112,168.76733 22.355544,154.63985 15.996671,139.39037 9.0350329,124.34169 4.1641909,108.52284 8.1486482,89.712558 18.138079,72.960043 27.511543,56.505956 28.094469,70.329919 8.5921467,81.871504 14.343511,96.057367 26.982053,106.17447 -1.3285507,95.204988 6.9850516,109.57714 c 16.5113204,3.51803 17.2687504,23.60689 24.6685754,37.01761 4.590873,9.02448 1.419951,21.22486 14.078197,24.00685 -2.039829,-3.68278 5.386455,8.96802 10.887626,5.86669 17.606134,4.18207 33.53754,17.00326 51.59864,17.34428 12.48044,-5.08466 23.76067,-12.56225 35.54256,-15.41256 10.98933,-2.53231 33.21172,-11.78882 13.6979,-21.52334 -3.20423,-5.45299 19.8953,17.10381 22.76661,1.52864 2.81031,-13.39474 20.19929,-32.20223 11.86246,-42.61637 -10.16955,4.99854 3.21284,-22.807271 -8.24913,-24.888127 0.55278,-10.278624 -11.97851,-18.870994 -10.72328,-16.624566 4.37009,-8.908114 -7.34154,-21.259274 -10.22639,-7.036987 -11.26871,8.760158 -15.70113,-28.114886 -19.63585,-6.182169 -2.85432,7.409237 13.09804,22.08077 11.44571,17.052009 -6.18348,-5.817648 10.14457,-2.704742 1.13727,-2.659961 10.73317,3.264338 -1.39258,7.3738 7.02295,10.008676 13.57012,4.213279 22.46851,34.471445 15.41501,36.420985 3.61378,-17.2355 -8.77572,-31.671441 -23.30376,-39.107957 -13.06716,-3.442776 -21.61406,-31.879321 -4.40214,-31.162572 -1.43666,10.929536 12.78664,20.552432 14.20134,5.055799 -1.51961,-18.189325 -23.25547,-17.588932 -35.86768,-24.273099 -3.89866,-4.300168 -25.58377,-11.69553 -11.1155,-2.939059 15.46352,11.877712 15.06925,31.739658 13.95801,49.263553 1.07858,7.9053 -8.56401,20.953704 -2.79573,5.919765 4.09632,-16.111154 2.89923,-35.425338 -7.61558,-49.096399 C 109.41547,14.638662 87.960647,26.085289 71.722185,34.375497 55.855057,38.943257 37.125638,45.564998 33.820263,64.133872 29.331791,70.54808 25.19599,85.400603 23.871765,80.518274 25.207335,69.33425 38.68952,56.002823 27.539416,48.760125 30.947025,45.108625 35.6448,54.855949 38.723873,45.550245 51.778182,34.439594 37.64668,36.166489 34.200347,39.202012 39.854609,26.871113 55.314541,29.262839 65.527293,22.251284 77.361579,17.149178 89.244054,11.977698 101.75304,8.7384471 c -15.930034,9.0479899 21.77141,12.9003009 4.99384,2.1832369 1.15542,-2.4036146 20.56887,5.313286 28.04524,8.989502 15.21472,8.004554 37.8809,8.865834 44.89387,27.072853 5.36788,20.958625 18.13113,39.154857 23.7107,60.063701 -6.7968,22.77735 -18.17386,43.81351 -26.19959,66.13636 -11.29822,14.93387 -33.06677,14.21511 -47.92091,24.57945 -10.23401,4.69925 -27.54634,7.31139 -31.804067,16.77817 10.494127,5.75372 17.913057,2.24796 7.306767,-5.43512 22.94154,5.6932 43.97028,17.26633 66.12174,25.37392 12.67509,14.97812 14.72124,35.59667 24.6239,52.22245 9.53893,12.28254 7.17864,27.30824 0.66659,40.21413 -6.41796,15.65165 -13.42597,31.09971 -19.35521,46.9194 -11.83873,14.22465 -32.92636,13.80731 -47.9926,23.49124 -9.98715,4.67243 -21.22055,11.73102 -32.59331,7.51012 z m 12.41206,-2.25706 c 8.82164,-8.63925 -22.498377,-6.65491 -3.72708,-7.45002 10.66959,-4.34429 23.07043,-11.23569 31.94002,-14.93648 8.29758,-4.3785 33.17215,-4.69003 27.58407,-16.46552 -7.22624,9.9e-4 -11.76814,-16.66105 -15.07947,-1.20009 -2.61867,16.63185 -18.37167,14.20897 -29.95255,11.75991 -7.83586,3.14844 7.21857,11.94578 -6.49108,13.02084 -9.65102,1.77988 -8.23823,-12.05989 -13.800649,-1.9835 -8.303464,5.80836 -22.32432,-7.13765 -8.251857,-10.94347 -11.734168,11.51106 14.315446,15.33517 8.620943,1.71893 -3.777171,-0.98225 7.748193,4.61604 8.632943,-3.75013 6.07558,-4.61792 10.07699,-11.59723 1.31989,-3.13691 -6.71412,9.73509 -17.342832,3.65022 -18.627553,-5.90186 -11.459553,5.45472 -29.888962,8.77928 -30.352839,-9.68353 -0.577634,-10.29957 -29.545922,-9.42186 -12.051136,-11.43592 6.26026,-6.05473 8.753282,-7.43721 -0.06443,-12.00192 -2.494219,-8.25325 12.11419,-2.62611 14.45448,-9.26523 8.040073,2.38159 -8.841119,7.68 3.237331,11.62871 7.638565,5.45058 15.66821,6.80115 20.883877,6.59717 3.650258,-2.99411 12.510598,2.96323 4.312533,4.40411 5.886354,3.76999 14.592949,9.56828 13.998459,11.94574 0.68361,-7.60362 5.16407,-8.10506 9.78367,-3.27622 -2.23631,-14.37417 12.17676,6.13998 -0.59251,8.14829 -11.91949,1.37402 -29.96773,-1.20433 -35.328928,-7.97946 -9.74461,7.17691 -3.6945,-19.9999 -10.087387,-3.60593 0.541634,6.88152 -13.444407,-8.23247 -6.712113,1.03639 20.394794,13.61359 48.281908,17.0482 70.814308,6.52806 -7.94018,5.36138 -1.02059,-9.45312 -7.65458,-0.36018 -8.79333,5.1858 -0.57294,-18.29305 -14.16318,-12.05117 -8.20125,0.81706 7.14524,-8.39072 -3.84052,-3.88961 -4.04304,6.26366 -4.21388,-16.52061 -4.75824,-4.38647 -6.744392,2.17409 2.93476,-12.35508 5.94227,-1.54435 0.002,9.35813 17.62373,-8.83213 6.94629,-9.70737 5.07585,-5.77103 7.77328,-12.91798 -3.14822,-10.4782 -15.19641,-3.05837 4.81578,-19.34099 10.07019,-6.83568 -6.80409,-2.80854 -20.98066,-0.20055 -8.24934,5.43546 6.55805,0.0271 17.12054,-6.42547 7.891,3.11641 -5.21672,10.57393 -0.61076,8.67347 4.0079,3.68922 -0.5539,10.37594 -4.26679,14.9549 -8.34894,23.10449 15.7907,0.27329 26.95749,-11.21265 35.28124,-22.54316 8.28448,-1.29999 30.19265,4.60047 12.25842,10.51115 -6.77113,4.93528 0.54619,15.81174 -11.22365,15.18052 -6.24043,5.82857 8.22606,3.57186 4.68927,11.6237 13.24818,16.94279 15.20415,-19.23261 21.4011,-15.44765 -2.16158,7.58891 -16.24071,30.03729 -0.17484,16.9041 3.73072,-13.90011 16.68641,-29.58443 14.35807,-42.49177 -8.27563,-2.40925 -18.80348,24.57247 -22.42723,17.47469 10.8017,-10.79923 24.92533,-23.95001 14.8742,-40.06436 -3.47722,-0.84986 -11.12688,-20.74077 -18.54995,-27.67679 11.35194,10.04692 -3.5387,-15.30983 -6.6532,-19.22536 -7.45942,-9.65 -33.44893,-11.7587 -31.34707,-14.12967 -4.59068,5.44187 6.46685,3.17306 -0.84343,7.60227 -4.15594,-4.52773 -6.67478,-8.59132 -4.98615,0.33241 5.07276,1.6733 15.8924,1.6184 4.13117,3.7008 -9.24586,0.87385 -5.77904,3.70388 1.17374,3.05899 -6.16326,4.24535 -27.06233,2.47086 -11.66493,-5.6304 15.50465,-14.68027 -16.58393,-23.04351 -26.935353,-15.14886 -15.456661,8.82309 -34.649011,10.38542 -48.405073,22.11708 -5.226447,11.12794 -18.141601,28.96305 -13.873666,38.20829 -5.811397,6.52818 -3.901742,-8.24184 -7.16516,2.33856 -6.57279,4.66167 -7.021055,30.2451 -8.741288,12.35391 -9.2291817,-6.8825 -7.251886,20.47445 4.460239,9.43276 5.122364,9.95996 -9.5527941,2.35123 -4.66999,14.38132 4.401273,11.28338 11.201355,28.86662 17.508592,35.26574 -0.80305,-5.88813 -3.926374,-24.83552 -4.766366,-21.22578 -3.740148,1.9608 -9.867063,-31.23404 -0.908152,-9.80305 1.082714,4.63945 4.745307,17.28963 8.918047,7.35557 7.640574,6.12699 -8.759139,2.43917 -0.172545,11.27228 12.224923,6.24369 -5.501638,16.36304 9.044363,20.31288 12.471707,3.83179 1.307576,15.5037 14.639889,17.07025 10.953248,2.52714 25.604227,16.09706 34.838739,10.23785 -10.144853,-7.1127 -27.670803,-11.57861 -33.291161,-18.1122 12.643814,7.43382 33.182818,5.41687 38.502245,21.37473 1.844919,5.04586 7.28932,5.63005 11.56231,3.52469 z M 90,380 c 2.943055,-5.4091 2.053385,4.99614 0,0 z m -27.39028,-7.1875 c -7.418251,-5.78377 -2.72208,-16.33521 -0.424716,-3.06943 2.957536,7.76024 27.277784,-2.88461 19.887413,2.39081 -6.377177,0.39616 -14.116107,7.53696 -19.462697,0.67862 z M 40,361.52405 c 6.502701,-6.15196 12.535264,-2.45426 0,0 z m 12.1875,-6.22184 c -9.322651,-8.46935 11.626744,6.1245 0,0 z m 107.91119,-1.03137 c 1.45748,-4.31598 0.48802,5.69158 0,0 z M 54.58333,350.41666 c -3.903288,-6.56095 4.686115,1.34528 0,0 z M 172.74369,343.125 c 1.25598,-7.14313 0.43522,8.30863 0,0 z m -78.6574,1.00876 c 6.88483,-1.98455 1.960976,2.40225 0,0 z M 98.75,341.25 c -0.614932,-8.97221 5.84248,8.47959 0,0 z m -55.21963,-2.89121 c 6.791585,-7.37408 -14.856203,-8.85995 -10.411329,-12.57018 -1.832392,-6.91036 26.512097,13.01813 8.932407,14.9465 l 1.478922,-2.37632 0,0 z m 80.66717,-0.0235 c 0.69987,-9.85947 4.35396,2.96182 0,-3e-5 l 0,3e-5 z m -83.6913,-4.89779 c -8.415994,-8.52255 10.974376,8.22243 0,0 z m 87.84085,1.99291 c 5.95683,-4.08509 14.33264,-6.35778 8.81892,-15.65608 5.09069,1.97274 7.14935,8.97783 1.32282,2.04287 4.13626,9.00386 -0.3214,16.11137 -10.14174,13.61321 z m -57.84746,-1.38705 c -11.614061,-9.29316 11.008244,-12.57673 0.542996,-6.68359 -6.402797,-2.1436 14.52042,11.60485 -0.543,6.68359 l 4e-6,0 z M 92.16504,332.5 c 7.268629,-7.73479 -3.874205,7.72061 0,0 z m -8.86134,-3.34576 c 7.347825,-3.10793 -3.431758,-17.50233 6.269272,-6.92337 1.464372,2.42602 -5.051091,10.19813 -6.269272,6.92337 z M 126.875,330 c 1.75,-5.42595 4.69068,-4.29619 6.78748,-5.98484 6.85318,2.27434 -3.49093,10.79293 -6.78748,5.98484 z m 5.28646,-0.75521 c -3.78757,-1.78925 -3.03186,2.64249 0,0 z m -55.65813,-0.31177 c 0.267565,-8.79855 9.899299,4.82856 0,0 z m 2.32035,-8.58141 c -7.044067,-11.83711 9.176565,9.18965 2.060158,2.32647 l -2.060158,-2.32647 z m 27.525,3.71089 c 4.1574,-3.03515 2.98252,6.03545 0,0 z m 38.10668,0.0539 c -0.72999,-4.73882 3.60561,5.63653 0,0 z M 39.0625,321.60469 c 9.342709,-1.17885 5.736736,1.60951 -0.792234,0.20219 L 39.0625,321.60469 Z M 58.75,320.57464 c 0.893304,-8.90895 19.691063,-8.41135 5.987246,-2.45986 -1.978571,0.86585 -4.177318,1.2163 -5.987246,2.45986 z M 144.375,317.5 c -5.74021,-9.53581 7.99046,6.71371 0,0 z m 1.25,-6.25 c 4.36202,-4.89337 8.87086,4.95476 0.70224,0.42358 L 145.625,311.25 Z m 8.459,0.49934 c 5.30048,-0.66643 29.74596,-0.63131 19.03476,-7.33157 -6.122,-0.0485 -14.92463,-2.20264 -3.63482,-1.80266 9.25839,-4.69047 20.56562,7.97322 5.44871,8.9614 -6.7938,2.1481 -13.94164,0.64752 -20.84865,0.17283 z M 41.01563,310.39611 c 8.012136,-2.3966 -1.620635,2.90841 0,0 z m 6.79687,-0.007 c 6.791284,-1.55831 4.226577,2.05569 0,0 z M 97.5,310 c 5.20804,-7.1334 -15.524219,-1.91158 -1.961645,-7.14031 C 100.21028,300.32993 104.26384,314.9648 97.5,310 Z m -71.76988,-2.0518 c 0.944853,-4.36692 4.486383,7.55165 0,0 z M 70.625,307.5 c 5.466794,-7.20265 17.943069,6.77496 4.777619,-0.34396 -1.392287,-0.10623 -8.616354,5.47483 -4.777619,0.34396 z m -53.07495,-5.27009 c 2.092179,-9.22538 10.094455,-12.58403 1.673302,-2.0756 l -0.681732,1.17602 -0.99157,0.89958 z M 106.59045,297.5 c 0.73739,-11.47425 0.69939,11.51026 0,0 z m 27.6943,3.34056 c -1.31939,-20.77765 10.11997,8.30244 0,0 z M 50,300.03922 c 4.059748,-2.60003 4.312717,4.44589 0,0 z m 51.04564,-7.40017 c -1.40556,-5.42101 7.16892,-18.95577 2.01168,-15.33237 1.58029,-5.4595 -10.08677,-27.30921 -1.53949,-18.04441 -0.74893,13.00968 25.06958,14.59763 14.31121,-1.02402 1.72164,-9.6461 5.08851,-7.32628 3.33933,1.05983 4.90479,10.99228 -4.47918,14.80935 -11.0939,12.81867 0.95623,8.90944 -4.62682,18.83084 -5.75066,28.08453 -1.14982,-2.35094 -1.12173,-5.01353 -1.27817,-7.56223 z m 53.21591,3.14106 c -0.87624,-8.54479 5.81637,4.23354 0,0 z M 49.72031,289.75784 c -1.126988,-13.13659 4.840404,-1.21618 0.95868,4.97984 l -0.653881,-2.45097 -0.304799,-2.52887 z m 16.00981,3.19036 c 2.443737,-3.63292 4.559536,6.71588 0,0 z m 18.72525,0.43539 c 4.758627,-6.64766 -1.428326,5.48147 0,0 z m 35.57951,-0.21656 c -5.4435,-8.30501 11.60048,-11.49691 2.44667,-2.18774 6.02322,1.09752 10.88563,-0.68785 2.24083,3.82824 -1.68987,0.3289 -3.64864,-0.17615 -4.6875,-1.6405 z m 22.34164,-5.11348 c -0.36077,-7.10273 16.47374,-21.08982 7.15684,-6.871 -0.53638,1.477 -12.29315,16.21411 -7.15684,6.871 z m 11.68397,-2.45742 c 0.95883,-12.90879 3.90217,4.62633 0.89222,4.30836 l -0.41482,-1.60722 -0.4774,-2.70114 z m -68.48689,3.07071 c -2.054594,-6.29459 4.097673,4.60518 0,0 z M 37.5,286.25 c 4.738836,-7.15759 10.581387,-8.19646 3.979362,-0.13783 -0.361647,1.4736 -6.353387,4.05417 -3.979362,0.13783 z m 24.3236,1.16684 c -2.054591,-6.29459 4.09767,4.60519 0,0 z m 100.0126,-4.97962 c -1.01501,-5.86888 5.28237,3.06552 0,0 z m 8.8029,-1.96612 c -3.54564,-8.80482 6.67103,9.54123 0,0 z m -123.04042,0.0498 c 1.457555,-4.31599 0.487873,5.6915 0,0 z m 52.5,0 c 1.45756,-4.316 0.48787,5.6915 0,0 z m 38.65132,1.05292 c 3.29569,-7.49334 5.99992,-25.69084 -3.44631,-13.954 -12.5828,-4.58172 -15.87487,-20.15795 1.22816,-17.50162 8.92443,2.14426 16.70011,4.04842 13.0443,11.20283 5.43473,17.8247 -4.30983,-11.53214 -14.02975,-8.76609 -14.20033,-1.94527 -6.38744,9.52382 1.27641,12.551 10.65258,-20.17684 8.52967,14.25045 1.92719,16.46788 z m -88.65132,-3.55293 c 1.45755,-4.31601 0.487879,5.6915 0,0 z m 95.00001,0 c 1.45748,-4.31599 0.48802,5.69158 0,0 z m 8.79631,-0.87257 c 3.94117,-4.77786 -2.61607,-18.953 6.27015,-17.60131 -5.52442,8.15552 3.22307,18.92322 -6.27015,17.60131 z M 148.75,271.875 c 8.99504,-7.38159 -0.4097,5.54596 0,0 z M 90,271.39579 c 6.435358,-7.72051 5.149191,3.30271 0,0 z m -5,-4.36814 c -1.481336,-8.69228 6.632151,-13.63391 4.60358,-16.5694 -0.959664,-11.91175 7.053991,13.04391 -1.321251,11.61545 -0.02062,2.88342 -1.614759,13.91964 -3.282329,4.95395 l 0,0 z M 51.25,265 c 10.556889,-10.45367 0.495442,11.98862 0,0 z m 16.5625,-0.039 c -6.294013,-10.7134 3.089996,2.08527 6.910433,-4.32176 2.171587,2.89414 -4.552219,7.65694 -6.910433,4.32176 z m 40.97551,0.21771 c -11.325105,-4.29264 -4.23856,-32.83771 -4.02467,-29.49795 -0.33536,11.00804 -0.34536,23.46561 6.14202,27.00914 0.40818,1.17653 -0.48354,3.29839 -2.11735,2.48881 z m 55.71873,-0.91119 c -0.91153,-6.98064 3.62707,-3.76129 1.09016,1.34975 l -1.09016,-1.34975 z M 61.25,262.64754 c 1.309071,-5.82109 3.849286,1.52015 0,0 z m 20.20005,-6.76484 c 1.010073,-6.70846 -13.715254,-4.90826 -2.234137,-6.44951 9.657212,-2.56957 0.884852,13.81853 2.234137,6.44951 z m -31.84588,2.0548 c -0.668233,-9.9666 0.656549,0.78824 3.816089,-6.1428 0.309844,2.46285 -1.467688,5.31198 -3.816089,6.1428 z m 103.98958,-2.22085 c -9.25721,-12.43324 4.05443,-11.12001 3.56774,-7.11016 -13.81646,-6.8086 9.50842,9.29279 -2.51535,9.37927 l -1.05239,-2.26911 z m -98.55574,0.26482 c 2.051292,-7.68812 9.04674,1.67453 1.760104,-0.78278 -0.122823,0.27605 -2.441001,4.49431 -1.760104,0.78278 z m 52.09526,0.58103 c -4.18215,-8.08763 6.39281,-20.16905 3.31518,-5.63542 -3.42234,4.54469 5.53937,8.05648 -3.31518,5.63542 z m 53.80423,-2.50924 c -7.79085,-6.10494 8.74382,1.00645 0,0 z m -63.80336,-9.0392 c 5.03365,-9.56946 4.14829,5.00579 0,0 z m -19.39111,-0.27102 c -5.349945,-8.50795 8.873218,0.96315 0,0 z M 111.25,238.82377 c -5.21985,-12.2751 6.68542,-5.2256 0.91794,1.8859 l -0.54689,-0.46232 -0.37105,-1.42358 z M 106.44737,236.25 c 1.19793,-7.74521 0.64488,7.00826 0,0 z m -24.69113,-1.43189 c -4.858528,-8.45292 9.042077,8.40426 0,0 z M 100,235.13456 c -7.095766,-3.40011 2.98157,-2.86523 0,0 z m 36.875,156.05159 c 5.84137,-2.14605 25.6429,-7.9539 19.98438,-14.27904 -10.48965,3.47397 -23.97969,7.65864 -31.29584,12.7497 -7.18846,0.0344 -19.1893,10.03656 -4.95138,8.52013 5.54999,-2.02111 10.83989,-4.66614 16.26284,-6.99079 z M 92.5,392.5 c -5.240856,-3.54555 -6.373663,-0.27957 0.252846,1.03918 L 92.5,392.5 Z m 31.90808,-3.50859 c -4.15847,-0.16328 -3.07951,4.88672 0,0 z M 80.625,387.5 c -6.184801,-6.09659 0.399596,4.67553 0,0 z m 34.35632,-3.6923 c 4.20419,-4.52435 -11.74661,-6.84043 0.81954,-11.27785 11.89072,-2.86227 31.63688,8.28701 31.71833,-12.02533 3.45575,-7.16413 3.40196,-15.21173 2.3308,-19.31945 -4.14575,-5.15402 -2.81469,-12.79331 -9.00454,-3.37424 7.01287,5.84032 0.35675,13.97903 -6.04451,14.89946 -0.36584,6.27207 16.04365,-5.72629 8.28629,7.42212 -2.84461,5.82587 -7.10027,12.19935 -12.72041,3.32776 8.29528,5.67789 8.0987,-8.93586 -1.20205,-2.58652 -8.79185,2.46969 -29.720549,18.2097 -18.00154,24.82569 l 1.73629,-0.68442 2.0818,-1.20722 0,0 z M 45,374.05185 c -5.439066,-1.66702 -18.335373,-11.35296 -11.047621,1.1159 2.923088,3.87746 11.181383,6.53922 11.047621,-1.1159 z m 128.76837,0.80225 c 7.35114,-16.84384 -19.25204,-1.44033 -7.2804,4.04857 2.77999,-0.30309 5.81968,-1.50788 7.2804,-4.04857 z m -133.9858,-5.93938 c -9.106476,-9.35273 5.826384,10.26569 0,0 z M 96.25,369.375 c -7.717918,-6.02437 3.40021,5.79925 0,0 z m 10,-1.25 c 7.22948,-7.68024 -17.723229,-0.95712 -3.5556,2.91914 l 1.342,-0.81195 2.2136,-2.10719 z m -32.96516,-5.21256 c 10.562464,-2.34344 -19.146575,-13.70702 -7.0547,-1.3341 1.050341,2.88349 5.230243,5.08003 7.0547,1.3341 z M 84.375,362.5 c -6.184801,-6.09659 0.399596,4.67553 0,0 z m -51.23323,-5.77765 c -5.099508,-14.02502 0.622768,7.18701 0.523376,2.23923 l -0.523376,-2.23923 z m 61.80471,-3.15898 c -4.643254,-11.82987 -2.051375,14.09182 1.16672,1.10952 l -0.246972,-0.82785 -0.919748,-0.28167 z M 116.875,356.25 c -0.80388,-4.60371 -2.8861,4.37759 0,0 z m -81.72241,-3.34375 c -4.944797,-5.1354 3.199626,7.41489 0,0 z m 51.46005,0.84203 c -1.328544,-6.95278 -2.234567,7.99612 0,0 z M 112.5,355 c -1.99305,-3.7406 -2.19474,4.18768 0,0 z m 12.41214,-5.3125 c -4.83391,-2.95396 -0.0342,11.71421 0,0 z m -6.55825,1.32812 c -2.681,-0.5408 1.79896,5.37651 0,0 z m 21.28772,-2.46128 c 9.57822,-11.1656 -17.24124,2.65237 -3.47352,0.4626 l 1.67502,-0.49583 1.7985,0.0332 z m -48.98056,-0.0729 c -5.774794,-1.71574 -6.551456,-10.58115 -13.423675,-4.03517 6.960081,-2.45549 0.639346,7.57407 9.908977,4.19569 l 3.514698,-0.16055 0,3e-5 z M 129.63781,347.5 c 9.5731,-8.71228 3.02492,-6.87082 -5.39114,-3.05553 0.42811,0.13748 7.71638,8.12687 5.39114,3.05553 z m -62.68813,-5.68646 c -4.932173,-10.83089 -6.739509,10.17699 -2.314245,-0.0809 1.499974,5.43533 6.727843,7.64471 2.314245,0.0809 z m -10.38718,1.10861 c -4.743916,-1.28475 -3.768949,2.14893 0,0 z M 158.75,342.42623 c 0.50523,-7.49281 3.20875,-13.75362 10.17684,-17.70997 -5.78063,-1.76605 -25.08081,-6.55014 -10.79679,2.11549 5.46029,7.06138 -13.9415,11.39085 -3.06558,2.59366 -5.84812,-13.79555 -7.00394,15.54508 0.64742,9.47525 -1.61054,4.30156 -3.68886,7.14607 3.03811,3.52557 z M 70,338.02104 c -5.364639,-8.76894 -18.941447,-7.88212 -9.655931,-0.88923 3.081042,-1.12483 19.174108,7.26818 9.655931,0.88923 z m 50,-2.42754 c 2.18574,-15.48697 -7.33726,11.85922 0,0 z m -96.83118,-5.50876 c -6.633785,-9.9076 5.191871,12.88435 0,0 z m 31.25758,-1.25158 c -8.822726,-6.30503 -1.667104,4.79449 0,0 z M 17.5,312.5 c -1.993048,-3.7406 -2.194734,4.18768 0,0 z m 182.12917,-2.8125 c 4.5185,-16.97443 -15.17353,0.011 -2.2223,2.45622 l 1.3934,-0.87454 0.8289,-1.58168 z m -8.38508,-5.5779 c -3.30605,-3.21251 3.43228,9.86722 0,0 z M 192.5,300.75874 c -4.64306,-4.99436 -3.39753,2.36763 0,0 z m 2.46034,-5.08594 c -2.9212,-14.36669 -10.88593,-31.75256 -19.5435,-41.19529 -0.53757,14.40905 11.74009,27.85412 15.04963,42.267 1.15821,1.85331 3.70448,-0.0448 4.49387,-1.07171 z m -17.02899,-25.10171 c -3.64708,-5.01622 1.19493,5.97211 0,0 z M 170,253.98891 c -2.21985,-7.944 -6.49027,-5.17886 0,0 z M 119.19639,243.428 c -4.84504,-2.95341 -6.22671,11.96044 0,0 z m 54.31342,4.2469 c 5.83956,-10.24912 -19.45822,-14.69374 -5.88532,-3.78256 2.2101,1.34754 2.32054,7.52404 5.88532,3.78256 z m -12.81122,-5.83965 c -9.36546,-5.32751 5.29743,5.38119 0,0 z M 73.125,228.14247 c 5.987927,-0.66605 29.15984,-12.81595 12.347917,-11.35521 -11.571921,7.2951 -34.631434,8.69446 -38.411346,20.45704 8.611528,0.17912 17.575575,-6.70487 26.063429,-9.10183 z m 87.36193,7.33455 c -13.44376,-8.66447 -29.26493,-16.3361 -44.92901,-18.37969 5.66332,10.71851 24.42195,10.62815 34.8395,17.99511 2.88872,0.91135 7.759,3.67321 10.08951,0.38458 z M 108.66206,202.5808 c 6.60091,-12.18614 -24.447974,-2.35282 -6.03471,0.97038 2.03942,0.23909 4.21365,0.069 6.03471,-0.97038 z M 92.4493,197.59472 C 81.496978,187.21513 61.942056,180.45494 49.541573,177.38277 c 2.130745,13.38847 26.61783,11.74318 36.47968,21.2857 2.055843,0.86132 4.955851,0.98766 6.428047,-1.07375 z M 65,183.75 c -3.184648,-4.19209 8.866122,4.732 0,0 z m 70.20806,8.21769 c 5.98074,-5.39183 28.77469,-5.30142 21.4683,-16.60471 -13.97706,7.55096 -29.4966,12.12717 -43.23297,19.40693 4.17326,11.97683 14.73439,-1.98623 21.76467,-2.80222 z m -10.79998,-2.97628 c -4.15848,-0.16328 -3.0795,4.88672 0,0 z M 80.625,187.5 c -6.184801,-6.09659 0.399596,4.67553 0,0 z M 45,174.13609 c -4.111065,-5.53189 -11.113513,-7.28929 -2.848647,-0.77189 -5.464326,-4.28456 -15.012228,-8.51991 -8.04775,1.82584 3.00981,3.92085 10.758814,6.61766 10.896397,-1.05395 z m 128.76837,0.71801 c 7.28473,-8.84031 -10.38994,-12.41752 -8.20416,-1.39308 -10.13319,-0.9044 7.86005,11.95756 8.20416,1.39308 z M 31.25,161.40716 c -3.207783,-6.51773 -2.993355,-26.25776 -6.463533,-23.46085 -1.264969,4.94261 -9.248977,-35.98638 -12.69859,-15.55404 4.427972,12.80153 9.680106,26.1729 16.663497,37.89349 l 2.498626,1.1214 z m 1.89177,-4.68481 c -5.099508,-14.02502 0.622768,7.18701 0.523376,2.23923 L 33.14177,156.72235 Z M 23.75,131.48891 c -2.219834,-7.94395 -6.490276,-5.17893 0,0 z m 168.0222,-22.14934 c -0.10358,-15.452089 -3.9828,11.66342 0,0 z m 7.88917,0.73814 c 1.63683,-26.873676 -15.87434,10.10583 0,0 z m -4.85198,-13.998765 c -1.46417,-15.043598 -13.11521,-33.700596 -19.04784,-42.930939 -2.30645,14.317281 11.01949,26.644406 13.13936,40.775991 0.45694,2.77764 3.69637,4.738046 5.90848,2.154948 z M 183.27287,84.17301 c -5.5262,-7.966782 4.76233,11.073104 0,0 z M 168.90511,50.916666 c -3.92383,-1.754312 4.13974,5.691183 0,0 z m 4.50048,-3.57225 c 5.59891,-11.007931 -20.20711,-13.736598 -5.67215,-3.117267 0.99838,1.962401 3.31285,6.708164 5.67215,3.117267 z M 160.625,41.25 c -6.18482,-6.096605 0.39958,4.675557 0,0 z M 90.3125,21.033581 C 96.083417,8.9043576 71.712957,21.559091 67.446734,24.806031 61.737585,25.711003 41.049751,32.527211 50.290976,36.459653 64.230668,32.977594 76.775626,25.65499 90.3125,21.033581 Z m 70.1939,14.517913 c -13.2258,-8.341196 -29.55377,-17.521056 -44.82326,-17.536098 9.5693,9.978937 26.4916,11.698712 38.9114,18.4941 1.51877,0.516217 7.18023,2.778776 5.91186,-0.958002 z M 85.61615,26.264317 c -2.410518,-2.539313 -3.724534,4.395686 0,0 z M 88.125,184.10866 c -12.204107,-6.20474 19.87575,3.2893 0,0 z m -8.35937,-3.71255 c 8.01209,-2.3966 -1.620621,2.90842 0,0 z m -6.75939,-9.45861 c -5.887146,-7.49193 7.413772,7.08466 0.01273,0.014 l -0.01273,-0.014 z m 59.61925,-0.56815 c 6.27638,-8.31058 -3.10913,6.72078 0,0 z m -65.67961,-3.14749 c -9.166571,-5.24074 9.180992,-22.06023 0.702205,-8.84631 -4.001858,-9.46779 4.903822,20.07263 -0.702205,8.84631 z m 55.86662,1.42072 c -12.89068,-11.74664 17.86671,-15.26661 11.52427,-11.38981 -14.55729,-6.25914 -10.6454,17.91028 -7.24731,7.90122 -12.68918,-4.02838 13.9262,-8.20589 5.68324,-3.57289 -12.08742,-4.08785 5.28944,6.77033 -7.29234,7.46193 l -2.66786,-0.40045 0,0 z m -53.4889,-2.47574 c -2.054591,-6.29459 4.09767,4.60519 0,0 z m 71.59041,-1.26704 c 2.90259,-6.57139 -0.67872,7.90111 0,0 z m -48.20562,-0.88809 c -10.263705,-9.43697 -21.102893,-30.02721 0.82391,-31.2868 9.51204,-2.91361 12.83569,22.214 16.70005,6.13649 0.83928,-13.30067 2.24197,-39.484138 -17.594394,-25.17267 C 72.918669,115.93995 82.595289,84.743106 80.310689,72.618107 79.082664,59.19271 79.121672,47.367471 95.563144,51.181549 c 13.292146,2.376456 25.751686,-10.562016 32.822906,6.018233 7.64751,14.687059 -29.511968,12.729783 -22.38611,10.710571 8.22676,0.882612 28.41572,-7.319243 8.74708,-2.865683 -11.76272,-1.673135 -19.355975,-0.790755 -17.484134,12.564813 -3.114833,9.96013 1.585886,25.054237 13.115914,14.767377 22.27437,-7.29787 17.77158,20.25341 17.50449,33.58117 0.80135,14.39706 2.39924,28.99959 -15.03409,32.08397 -6.28821,3.11559 -13.021055,5.85035 -20.14081,5.96971 z m 8.10078,-7.34862 c 13.16948,-2.54014 -8.034588,-30.07728 -13.968864,-16.96486 8.820854,0.0476 -8.22227,3.30314 -0.931379,10.79431 1.923064,5.42333 10.069378,13.75432 14.900243,6.17055 z M 115,155 c 3.18465,-4.19209 -8.86612,4.732 0,0 z m -3.59056,-5.9375 c -1.1392,-2.67816 -9.69827,5.98611 -0.57289,0.43189 l 0.57289,-0.43189 z m 9.84056,-1.48624 c 7.05465,-15.88338 1.98717,-33.97262 3.25028,-50.413343 -3.3855,-5.462 -19.37499,-1.24509 -11.56897,0.857161 -9.46096,8.361532 -20.727558,2.996222 -17.593717,-9.784022 -5.566304,-13.758802 0.45865,-32.681121 18.151007,-24.440209 10.97454,0.826547 11.16342,-18.95676 -0.14027,-9.391593 -6.82725,3.655113 -34.419461,2.161273 -15.603981,-0.16635 -9.68624,-2.412422 -18.99778,-0.934842 -15.240888,11.099963 2.268808,13.409065 -5.466199,38.311613 6.995502,44.043793 12.185417,-6.19505 27.868847,-5.53956 23.279407,11.82437 1.39417,6.40852 -6.08564,34.01152 8.47163,26.37023 z M 85.37458,96.25 c 0.651075,-12.207173 0.548978,12.45107 0,0 z M 83.76914,85.386271 c 0.75218,-7.689253 5.156862,-1.954028 0,0 z m 16.88894,23.605139 c -4.158468,-0.16328 -3.07951,4.88669 0,0 z m 1.50338,-8.49662 c -3.787478,-1.789274 -3.031991,2.64224 0,0 z m 4.74662,-2.75338 c -4.15847,-0.163271 -3.07951,4.88671 0,0 z m 7.75338,-44.746619 c -3.78745,-1.789278 -3.03203,2.642268 0,0 z M 73.88035,162.60701 c -3.714123,-12.16935 11.383165,7.50478 0,0 z m 96.21834,-1.58712 c 4.15843,-9.3898 11.86416,-36.42708 15.90392,-34.91913 -5.34116,13.0647 -7.10386,24.47356 -15.90392,34.91913 l 0,0 z M 53.80756,155.13895 c -3.918439,-18.35602 5.382268,11.22994 0,0 z M 143.75,143.125 c 0.71802,-14.15919 1.48941,13.89068 0,0 z m -76.94746,-4.08164 c -9.382634,-3.18206 -1.307383,-22.83599 -2.704832,-5.66612 -0.01896,1.61264 10.197329,9.02861 2.704832,5.66612 z m 8.68658,-3.2603 c 10.762371,-10.46953 -8.049455,10.92321 0,0 z M 52.69737,136.25 c 1.197929,-7.74521 0.64488,7.00826 0,0 z m 103.48442,-3.19761 c -10.27383,-7.90391 17.58989,-16.83828 0.86346,-7.71603 -5.42268,7.26683 12.78324,11.85484 8.66728,3.9752 12.43435,-8.65608 -2.87711,15.28552 -9.53074,3.74083 z M 143.75,132.5057 c -1.97174,-9.43122 10.57256,-22.35461 13.17983,-21.83537 -9.00235,2.60605 -8.02792,19.18988 -13.17983,21.83537 z m 15.20328,-2.09806 c -2.62404,-16.19973 13.70219,1.10802 0,0 z M 163.125,127.5 c -1.35496,-4.5452 -4.25877,4.92997 0,0 z m -89.12167,1.43303 c -1.724554,-9.1948 7.966464,3.83443 0,0 z M 57.5,126.32378 c 2.402834,-7.66618 1.753195,4.53019 0,0 z m 11.42023,-1.63628 c 2.967143,-10.95683 2.923162,5.06856 0,0 z m 12.42845,0.83334 c 1.457549,-4.31601 0.487878,5.6915 0,0 z M 173.125,125 c 3.80368,-4.29074 0.46098,4.42935 0,0 z m -2.85873,-8.78813 c -7.64286,-2.94826 -11.84264,-8.35053 -1.2927,-3.57527 2.89026,1.09344 5.71893,9.09056 1.2927,3.57527 z m -31.20377,-1.25082 c -8.5664,-6.13778 19.34422,3.19035 0,0 z M 17.47493,111.84479 c -3.717541,-8.91182 6.13447,6.82844 0,0 z m -4.25764,-2.94545 c -3.4431514,-9.181088 6.557567,-1.73231 0,0 z m 55.70294,-2.88046 c -2.668518,-9.352419 -0.310972,-12.105958 0.943679,-1.30219 0.6196,0.51143 -1.49833,8.4308 -0.943679,1.30219 z m 75.14227,0.0283 c 7.46043,-2.6238 -2.13643,-13.021853 1.38197,-1.93895 -16.41757,3.01987 -1.9242,-24.410368 3.72166,-11.857996 -11.05638,-7.002953 -9.47579,16.711586 -5.99569,7.249513 0.31313,-10.255561 12.71953,13.519633 -2.08366,7.706833 l 2.97569,-1.1594 3e-5,0 z M 28.25874,104.27277 C 24.837905,94.329091 27.965023,75.558976 37.541897,72.28661 25.852435,78.471641 30.916512,94.074514 28.25874,104.27277 Z m 31.29238,-1.73431 c 7.254793,-9.242482 -4.259816,10.38045 0,0 z M 41.85613,98.272643 c -8.830338,-7.543838 16.906515,-31.900412 4.709906,-13.779014 -8.283646,3.721285 2.1409,27.037151 -4.709906,13.779014 z M 135.19736,98.75 c 1.19794,-7.744906 0.64488,7.00822 0,0 z M 47.72947,91.5625 c 0.847643,-7.341262 13.055722,-0.998335 1.83654,-0.984523 5.270554,3.381817 -2.028655,7.960339 -1.83654,0.984523 z m 84.84977,-0.325272 c 0.41563,-8.264868 11.51939,-10.797748 2.29346,-2.608238 -1.2691,1.461004 -2.82935,11.222942 -2.29346,2.608238 z m 7.04991,-15.651509 c -3.93989,-8.715447 9.37913,8.461866 0.41576,0.497688 l -0.41576,-0.497688 z M 47.5,67.066513 C 53.729823,62.964694 67.6226,47.313317 56.081924,62.656145 53.572523,64.711683 50.603626,66.16062 47.5,67.066513 Z M 68.84868,40.520834 c 1.457561,-4.315985 0.487866,5.691512 0,0 z"
     id="path4819"
     inkscape:connector-curvature="0" />
</svg>
